<?xml version="1.0" encoding="UTF-8" standalone="no"?>
<!-- Created with Inkscape (http://www.inkscape.org/) -->

<svg
   xmlns:dc="http://purl.org/dc/elements/1.1/"
   xmlns:cc="http://creativecommons.org/ns#"
   xmlns:rdf="http://www.w3.org/1999/02/22-rdf-syntax-ns#"
   xmlns:svg="http://www.w3.org/2000/svg"
   xmlns="http://www.w3.org/2000/svg"
   xmlns:sodipodi="http://sodipodi.sourceforge.net/DTD/sodipodi-0.dtd"
   xmlns:inkscape="http://www.inkscape.org/namespaces/inkscape"
   width="203.20001mm"
   height="406.40033mm"
   viewBox="0 0 203.20001 406.40033"
   version="1.1"
   id="svg8"
   inkscape:version="0.92.4 (5da689c313, 2019-01-14)"
   sodipodi:docname="anim_espere.svg">
  <defs
     id="defs2" />
  <sodipodi:namedview
     id="base"
     pagecolor="#ffffff"
     bordercolor="#666666"
     borderopacity="1.0"
     inkscape:pageopacity="0.0"
     inkscape:pageshadow="2"
     inkscape:zoom="1.4"
     inkscape:cx="353.76617"
     inkscape:cy="317.64735"
     inkscape:document-units="mm"
     inkscape:current-layer="layer1"
     showgrid="false"
     inkscape:window-width="1920"
     inkscape:window-height="1051"
     inkscape:window-x="-9"
     inkscape:window-y="-9"
     inkscape:window-maximized="1"
     fit-margin-top="0"
     fit-margin-left="0"
     fit-margin-right="0"
     fit-margin-bottom="0" />
  <metadata
     id="metadata5">
    <rdf:RDF>
      <cc:Work
         rdf:about="">
        <dc:format>image/svg+xml</dc:format>
        <dc:type
           rdf:resource="http://purl.org/dc/dcmitype/StillImage" />
        <dc:title></dc:title>
      </cc:Work>
    </rdf:RDF>
  </metadata>
  <g
     inkscape:label="Capa 1"
     inkscape:groupmode="layer"
     id="layer1"
     transform="translate(3.3676624e-6,3.0415242e-4)">
    <path
       style="fill:none;fill-opacity:0.99607843;stroke:#000000;stroke-width:6.08368874;stroke-linecap:round;stroke-linejoin:round;stroke-miterlimit:4;stroke-dasharray:none;stroke-dashoffset:0;stroke-opacity:1;paint-order:fill markers stroke"
       d="m 34.740577,3.0421486 v 0"
       id="path815"
       inkscape:connector-curvature="0"
       sodipodi:nodetypes="cc" />
    <path
       sodipodi:nodetypes="cc"
       inkscape:connector-curvature="0"
       id="path818"
       d="m 101.6,3.0418444 c 4.25602,0 8.31058,0.862547 11.99841,2.422368"
       style="fill:none;fill-opacity:0.99607843;stroke:#000000;stroke-width:6.08368874;stroke-linecap:round;stroke-linejoin:round;stroke-miterlimit:4;stroke-dasharray:none;stroke-dashoffset:0;stroke-opacity:1;paint-order:fill markers stroke" />
    <path
       style="fill:none;fill-opacity:0.99607843;stroke:#000000;stroke-width:6.08368874;stroke-linecap:round;stroke-linejoin:round;stroke-miterlimit:4;stroke-dasharray:none;stroke-dashoffset:0;stroke-opacity:1;paint-order:fill markers stroke"
       d="m 169.33334,3.0418444 c 4.25602,0 8.31058,0.862547 11.99841,2.422368 3.68783,1.5598214 7.00893,3.8169151 9.79803,6.6060146"
       id="path820"
       inkscape:connector-curvature="0"
       sodipodi:nodetypes="csc" />
    <rect
       style="fill:none;fill-opacity:0.99607843;stroke:#000000;stroke-width:0.27039307;stroke-linecap:round;stroke-linejoin:round;stroke-miterlimit:4;stroke-dasharray:none;stroke-dashoffset:0;stroke-opacity:1;paint-order:fill markers stroke"
       id="rect822"
       width="67.462944"
       height="67.462944"
       x="0.13519654"
       y="0.13519654"
       ry="0"
       inkscape:export-filename="C:\xampp\htdocs\BatallaNavalPHP\BatallaNaval\imagen\animaci贸n\01.png"
       inkscape:export-xdpi="96"
       inkscape:export-ydpi="96" />
    <rect
       ry="0"
       y="0.13519654"
       x="67.86853"
       height="67.462944"
       width="67.462944"
       id="rect824"
       style="fill:none;fill-opacity:0.99607843;stroke:#000000;stroke-width:0.27039307;stroke-linecap:round;stroke-linejoin:round;stroke-miterlimit:4;stroke-dasharray:none;stroke-dashoffset:0;stroke-opacity:1;paint-order:fill markers stroke"
       inkscape:export-filename="C:\xampp\htdocs\BatallaNavalPHP\BatallaNaval\imagen\animaci贸n\02.png"
       inkscape:export-xdpi="96"
       inkscape:export-ydpi="96" />
    <rect
       style="fill:none;fill-opacity:0.99607843;stroke:#000000;stroke-width:0.27039307;stroke-linecap:round;stroke-linejoin:round;stroke-miterlimit:4;stroke-dasharray:none;stroke-dashoffset:0;stroke-opacity:1;paint-order:fill markers stroke"
       id="rect826"
       width="67.462944"
       height="67.462944"
       x="135.60187"
       y="0.13519654"
       ry="0"
       inkscape:export-filename="C:\xampp\htdocs\BatallaNavalPHP\BatallaNaval\imagen\animaci贸n\03.png"
       inkscape:export-xdpi="96"
       inkscape:export-ydpi="96" />
    <path
       style="fill:none;fill-opacity:0.99607843;stroke:#000000;stroke-width:6.08368874;stroke-linecap:round;stroke-linejoin:round;stroke-miterlimit:4;stroke-dasharray:none;stroke-dashoffset:0;stroke-opacity:1;paint-order:fill markers stroke"
       d="m 33.866663,70.77518 c 4.256021,0 8.310581,0.862547 11.99841,2.422368 3.68783,1.559821 7.00893,3.816915 9.79803,6.606014 2.7891,2.789097 5.04619,6.110198 6.60601,9.798029"
       id="path820-2"
       inkscape:connector-curvature="0"
       sodipodi:nodetypes="cssc" />
    <rect
       ry="0"
       y="67.86853"
       x="0.13519654"
       height="67.462944"
       width="67.462944"
       id="rect843"
       style="fill:none;fill-opacity:0.99607843;stroke:#000000;stroke-width:0.27039307;stroke-linecap:round;stroke-linejoin:round;stroke-miterlimit:4;stroke-dasharray:none;stroke-dashoffset:0;stroke-opacity:1;paint-order:fill markers stroke"
       inkscape:export-filename="C:\xampp\htdocs\BatallaNavalPHP\BatallaNaval\imagen\animaci贸n\04.png"
       inkscape:export-xdpi="96"
       inkscape:export-ydpi="96" />
    <path
       sodipodi:nodetypes="csssc"
       inkscape:connector-curvature="0"
       id="path845"
       d="m 101.6,70.77518 c 4.25602,0 8.31058,0.862547 11.99841,2.422368 3.68783,1.559821 7.00893,3.816915 9.79803,6.606014 2.7891,2.789097 5.04619,6.110198 6.60601,9.798029 1.55983,3.687832 2.42237,7.742389 2.42237,11.998409"
       style="fill:none;fill-opacity:0.99607843;stroke:#000000;stroke-width:6.08368874;stroke-linecap:round;stroke-linejoin:round;stroke-miterlimit:4;stroke-dasharray:none;stroke-dashoffset:0;stroke-opacity:1;paint-order:fill markers stroke" />
    <rect
       style="fill:none;fill-opacity:0.99607843;stroke:#000000;stroke-width:0.27039307;stroke-linecap:round;stroke-linejoin:round;stroke-miterlimit:4;stroke-dasharray:none;stroke-dashoffset:0;stroke-opacity:1;paint-order:fill markers stroke"
       id="rect847"
       width="67.462944"
       height="67.462944"
       x="67.86853"
       y="67.86853"
       ry="0"
       inkscape:export-xdpi="96"
       inkscape:export-ydpi="96" />
    <path
       style="fill:none;fill-opacity:0.99607843;stroke:#000000;stroke-width:6.08368874;stroke-linecap:round;stroke-linejoin:round;stroke-miterlimit:4;stroke-dasharray:none;stroke-dashoffset:0;stroke-opacity:1;paint-order:fill markers stroke"
       d="m 169.33333,70.77518 c 4.25602,0 8.31058,0.862547 11.99841,2.422368 3.68783,1.559821 7.00893,3.816915 9.79803,6.606014 2.7891,2.789097 5.04619,6.110198 6.60601,9.798029 1.55983,3.687832 2.42237,7.742389 2.42237,11.998409 0,4.25602 -0.86254,8.31059 -2.42237,11.99842"
       id="path849"
       inkscape:connector-curvature="0"
       sodipodi:nodetypes="cssssc" />
    <rect
       ry="0"
       y="67.86853"
       x="135.60187"
       height="67.462944"
       width="67.462944"
       id="rect851"
       style="fill:none;fill-opacity:0.99607843;stroke:#000000;stroke-width:0.27039307;stroke-linecap:round;stroke-linejoin:round;stroke-miterlimit:4;stroke-dasharray:none;stroke-dashoffset:0;stroke-opacity:1;paint-order:fill markers stroke"
       inkscape:export-xdpi="96"
       inkscape:export-ydpi="96" />
    <path
       sodipodi:nodetypes="csssssc"
       inkscape:connector-curvature="0"
       id="path853"
       d="m 33.866663,138.50852 c 4.256021,0 8.310581,0.86255 11.99841,2.42237 3.68783,1.55982 7.00893,3.81691 9.79803,6.60601 2.7891,2.7891 5.04619,6.1102 6.60601,9.79803 1.55983,3.68783 2.42237,7.74239 2.42237,11.99841 0,4.25602 -0.86254,8.31059 -2.42237,11.99842 -1.55981,3.68784 -3.81691,7.00894 -6.60601,9.79803"
       style="fill:none;fill-opacity:0.99607843;stroke:#000000;stroke-width:6.08368874;stroke-linecap:round;stroke-linejoin:round;stroke-miterlimit:4;stroke-dasharray:none;stroke-dashoffset:0;stroke-opacity:1;paint-order:fill markers stroke" />
    <path
       style="fill:none;fill-opacity:0.99607843;stroke:#000000;stroke-width:6.08368874;stroke-linecap:round;stroke-linejoin:round;stroke-miterlimit:4;stroke-dasharray:none;stroke-dashoffset:0;stroke-opacity:1;paint-order:fill markers stroke"
       d="m 101.6,138.50852 c 4.25602,0 8.31058,0.86255 11.99841,2.42237 3.68783,1.55982 7.00893,3.81691 9.79803,6.60601 2.7891,2.7891 5.04619,6.1102 6.60601,9.79803 1.55983,3.68783 2.42237,7.74239 2.42237,11.99841 0,4.25602 -0.86254,8.31059 -2.42237,11.99842 -1.55981,3.68784 -3.81691,7.00894 -6.60601,9.79803 -2.7891,2.7891 -6.1102,5.0462 -9.79803,6.60602 -3.68783,1.55982 -7.74239,2.42236 -11.99841,2.42236"
       id="path855"
       inkscape:connector-curvature="0"
       sodipodi:nodetypes="csssssssc" />
    <path
       sodipodi:nodetypes="cssssssssc"
       inkscape:connector-curvature="0"
       id="path857"
       d="m 169.33333,138.50852 c 4.25602,0 8.31058,0.86255 11.99841,2.42237 3.68783,1.55982 7.00893,3.81691 9.79803,6.60601 2.7891,2.7891 5.04619,6.1102 6.60601,9.79803 1.55983,3.68783 2.42237,7.74239 2.42237,11.99841 0,4.25602 -0.86254,8.31059 -2.42237,11.99842 -1.55981,3.68784 -3.81691,7.00894 -6.60601,9.79803 -2.7891,2.7891 -6.1102,5.0462 -9.79803,6.60602 -3.68783,1.55982 -7.74239,2.42236 -11.99841,2.42236 -4.25601,0 -8.31057,-0.86254 -11.9984,-2.42237"
       style="fill:none;fill-opacity:0.99607843;stroke:#000000;stroke-width:6.08368874;stroke-linecap:round;stroke-linejoin:round;stroke-miterlimit:4;stroke-dasharray:none;stroke-dashoffset:0;stroke-opacity:1;paint-order:fill markers stroke" />
    <rect
       style="fill:none;fill-opacity:0.99607843;stroke:#000000;stroke-width:0.27039307;stroke-linecap:round;stroke-linejoin:round;stroke-miterlimit:4;stroke-dasharray:none;stroke-dashoffset:0;stroke-opacity:1;paint-order:fill markers stroke"
       id="rect859"
       width="67.462944"
       height="67.462944"
       x="135.60187"
       y="135.60187"
       ry="0.62263644"
       inkscape:export-xdpi="96"
       inkscape:export-ydpi="96" />
    <path
       style="fill:none;fill-opacity:0.99607843;stroke:#000000;stroke-width:6.08368874;stroke-linecap:round;stroke-linejoin:round;stroke-miterlimit:4;stroke-dasharray:none;stroke-dashoffset:0;stroke-opacity:1;paint-order:fill markers stroke"
       d="m 33.866663,206.24186 c 4.256021,0 8.310581,0.86255 11.99841,2.42237 3.68783,1.55982 7.00893,3.81691 9.79803,6.60601 2.7891,2.7891 5.04619,6.1102 6.60601,9.79803 1.55983,3.68783 2.42237,7.74239 2.42237,11.99841 0,4.25602 -0.86254,8.31059 -2.42237,11.99842 -1.55981,3.68784 -3.81691,7.00894 -6.60601,9.79803 -2.7891,2.7891 -6.1102,5.0462 -9.79803,6.60602 -3.687829,1.55982 -7.742389,2.42236 -11.99841,2.42236 -4.256019,0 -8.310579,-0.86254 -11.998409,-2.42237 -3.68783,-1.55982 -7.00893,-3.81691 -9.798031,-6.60601"
       id="path861"
       inkscape:connector-curvature="0"
       sodipodi:nodetypes="csssssssssc" />
    <path
       sodipodi:nodetypes="cssssssssssc"
       inkscape:connector-curvature="0"
       id="path863"
       d="m 101.6,206.24186 c 4.25602,0 8.31058,0.86255 11.99841,2.42237 3.68783,1.55982 7.00893,3.81691 9.79803,6.60601 2.7891,2.7891 5.04619,6.1102 6.60601,9.79803 1.55983,3.68783 2.42237,7.74239 2.42237,11.99841 0,4.25602 -0.86254,8.31059 -2.42237,11.99842 -1.55981,3.68784 -3.81691,7.00894 -6.60601,9.79803 -2.7891,2.7891 -6.1102,5.0462 -9.79803,6.60602 -3.68783,1.55982 -7.74239,2.42236 -11.99841,2.42236 -4.256019,0 -8.310579,-0.86254 -11.998409,-2.42237 -3.68783,-1.55982 -7.00893,-3.81691 -9.798031,-6.60601 -2.789098,-2.78909 -5.046189,-6.1102 -6.606009,-9.79803"
       style="fill:none;fill-opacity:0.99607843;stroke:#000000;stroke-width:6.08368874;stroke-linecap:round;stroke-linejoin:round;stroke-miterlimit:4;stroke-dasharray:none;stroke-dashoffset:0;stroke-opacity:1;paint-order:fill markers stroke" />
    <path
       style="fill:none;fill-opacity:0.99607843;stroke:#000000;stroke-width:6.08368874;stroke-linecap:round;stroke-linejoin:round;stroke-miterlimit:4;stroke-dasharray:none;stroke-dashoffset:0;stroke-opacity:1;paint-order:fill markers stroke"
       d="m 169.33333,206.24186 c 4.25602,0 8.31058,0.86255 11.99841,2.42237 3.68783,1.55982 7.00893,3.81691 9.79803,6.60601 2.7891,2.7891 5.04619,6.1102 6.60601,9.79803 1.55983,3.68783 2.42237,7.74239 2.42237,11.99841 0,4.25602 -0.86254,8.31059 -2.42237,11.99842 -1.55981,3.68784 -3.81691,7.00894 -6.60601,9.79803 -2.7891,2.7891 -6.1102,5.0462 -9.79803,6.60602 -3.68783,1.55982 -7.74239,2.42236 -11.99841,2.42236 -4.25601,0 -8.31057,-0.86254 -11.9984,-2.42237 -3.68783,-1.55982 -7.00893,-3.81691 -9.79804,-6.60601 -2.78909,-2.78909 -5.04618,-6.1102 -6.606,-9.79803 -1.55983,-3.68784 -2.42237,-7.7424 -2.42237,-11.99842"
       id="path865"
       inkscape:connector-curvature="0"
       sodipodi:nodetypes="csssssssssssc" />
    <rect
       ry="0.62263644"
       y="203.33521"
       x="135.60187"
       height="67.462944"
       width="67.462944"
       id="rect867"
       style="fill:none;fill-opacity:0.99607843;stroke:#000000;stroke-width:0.27039307;stroke-linecap:round;stroke-linejoin:round;stroke-miterlimit:4;stroke-dasharray:none;stroke-dashoffset:0;stroke-opacity:1;paint-order:fill markers stroke"
       inkscape:export-xdpi="96"
       inkscape:export-ydpi="96" />
    <rect
       style="fill:none;fill-opacity:0.99607843;stroke:#000000;stroke-width:0.27039307;stroke-linecap:round;stroke-linejoin:round;stroke-miterlimit:4;stroke-dasharray:none;stroke-dashoffset:0;stroke-opacity:1;paint-order:fill markers stroke"
       id="rect832"
       width="67.462944"
       height="67.462944"
       x="0.13519654"
       y="135.60187"
       ry="0.62263644"
       inkscape:export-xdpi="96"
       inkscape:export-ydpi="96" />
    <rect
       ry="0.62263644"
       y="135.60187"
       x="67.86853"
       height="67.462944"
       width="67.462944"
       id="rect834"
       style="fill:none;fill-opacity:0.99607843;stroke:#000000;stroke-width:0.27039307;stroke-linecap:round;stroke-linejoin:round;stroke-miterlimit:4;stroke-dasharray:none;stroke-dashoffset:0;stroke-opacity:1;paint-order:fill markers stroke"
       inkscape:export-xdpi="96"
       inkscape:export-ydpi="96" />
    <rect
       ry="0.62263644"
       y="203.33521"
       x="0.13519654"
       height="67.462944"
       width="67.462944"
       id="rect836"
       style="fill:none;fill-opacity:0.99607843;stroke:#000000;stroke-width:0.27039307;stroke-linecap:round;stroke-linejoin:round;stroke-miterlimit:4;stroke-dasharray:none;stroke-dashoffset:0;stroke-opacity:1;paint-order:fill markers stroke"
       inkscape:export-xdpi="96"
       inkscape:export-ydpi="96" />
    <rect
       style="fill:none;fill-opacity:0.99607843;stroke:#000000;stroke-width:0.27039307;stroke-linecap:round;stroke-linejoin:round;stroke-miterlimit:4;stroke-dasharray:none;stroke-dashoffset:0;stroke-opacity:1;paint-order:fill markers stroke"
       id="rect838"
       width="67.462944"
       height="67.462944"
       x="67.86853"
       y="203.33521"
       ry="0.62263644"
       inkscape:export-xdpi="96"
       inkscape:export-ydpi="96" />
    <path
       sodipodi:nodetypes="cssssssssssssssc"
       inkscape:connector-curvature="0"
       id="path840"
       d="m 169.33333,273.9752 c 4.25602,0 8.31058,0.86255 11.99841,2.42237 3.68783,1.55982 7.00893,3.81691 9.79803,6.60601 2.7891,2.7891 5.04619,6.1102 6.60601,9.79803 1.55983,3.68783 2.42237,7.74239 2.42237,11.99841 0,4.25602 -0.86254,8.31059 -2.42237,11.99842 -1.55981,3.68784 -3.81691,7.00894 -6.60601,9.79803 -2.7891,2.7891 -6.1102,5.0462 -9.79803,6.60602 -3.68783,1.55982 -7.74239,2.42236 -11.99841,2.42236 -4.25601,0 -8.31057,-0.86254 -11.9984,-2.42237 -3.68783,-1.55982 -7.00893,-3.81691 -9.79804,-6.60601 -2.78909,-2.78909 -5.04618,-6.1102 -6.606,-9.79803 -1.55983,-3.68784 -2.42237,-7.7424 -2.42237,-11.99842 0,-4.25602 0.86255,-8.31058 2.42237,-11.99841 1.55982,-3.68783 3.81691,-7.00893 6.606,-9.79803 2.78911,-2.7891 6.11021,-5.04619 9.79804,-6.60601"
       style="fill:none;fill-opacity:0.99607843;stroke:#000000;stroke-width:6.08368874;stroke-linecap:round;stroke-linejoin:round;stroke-miterlimit:4;stroke-dasharray:none;stroke-dashoffset:0;stroke-opacity:1;paint-order:fill markers stroke" />
    <rect
       style="fill:none;fill-opacity:0.99607843;stroke:#000000;stroke-width:0.27039307;stroke-linecap:round;stroke-linejoin:round;stroke-miterlimit:4;stroke-dasharray:none;stroke-dashoffset:0;stroke-opacity:1;paint-order:fill markers stroke"
       id="rect842"
       width="67.462944"
       height="67.462944"
       x="135.60187"
       y="271.06854"
       ry="0.62263644"
       inkscape:export-xdpi="96"
       inkscape:export-ydpi="96" />
    <path
       style="fill:none;fill-opacity:0.99607843;stroke:#000000;stroke-width:6.08368874;stroke-linecap:round;stroke-linejoin:round;stroke-miterlimit:4;stroke-dasharray:none;stroke-dashoffset:0;stroke-opacity:1;paint-order:fill markers stroke"
       d="m 101.60001,273.9752 c 4.25602,0 8.31058,0.86255 11.99841,2.42237 3.68783,1.55982 7.00893,3.81691 9.79803,6.60601 2.7891,2.7891 5.04619,6.1102 6.60601,9.79803 1.55983,3.68783 2.42237,7.74239 2.42237,11.99841 0,4.25602 -0.86254,8.31059 -2.42237,11.99842 -1.55981,3.68784 -3.81691,7.00894 -6.60601,9.79803 -2.7891,2.7891 -6.1102,5.0462 -9.79803,6.60602 -3.68783,1.55982 -7.74239,2.42236 -11.99841,2.42236 -4.256013,0 -8.310573,-0.86254 -11.998403,-2.42237 -3.68783,-1.55982 -7.00893,-3.81691 -9.79804,-6.60601 -2.78909,-2.78909 -5.04618,-6.1102 -6.606,-9.79803 -1.55983,-3.68784 -2.42237,-7.7424 -2.42237,-11.99842 0,-4.25602 0.86255,-8.31058 2.42237,-11.99841 1.55982,-3.68783 3.81691,-7.00893 6.606,-9.79803"
       id="path844"
       inkscape:connector-curvature="0"
       sodipodi:nodetypes="csssssssssssssc" />
    <rect
       ry="0.62263644"
       y="271.06854"
       x="67.86853"
       height="67.462944"
       width="67.462944"
       id="rect846"
       style="fill:none;fill-opacity:0.99607843;stroke:#000000;stroke-width:0.27039307;stroke-linecap:round;stroke-linejoin:round;stroke-miterlimit:4;stroke-dasharray:none;stroke-dashoffset:0;stroke-opacity:1;paint-order:fill markers stroke"
       inkscape:export-xdpi="96"
       inkscape:export-ydpi="96" />
    <path
       sodipodi:nodetypes="cssssssssssssc"
       inkscape:connector-curvature="0"
       id="path848"
       d="m 33.866669,273.9752 c 4.25602,0 8.31058,0.86255 11.99841,2.42237 3.68783,1.55982 7.00893,3.81691 9.79803,6.60601 2.7891,2.7891 5.04619,6.1102 6.60601,9.79803 1.55983,3.68783 2.42237,7.74239 2.42237,11.99841 0,4.25602 -0.86254,8.31059 -2.42237,11.99842 -1.55981,3.68784 -3.81691,7.00894 -6.60601,9.79803 -2.7891,2.7891 -6.1102,5.0462 -9.79803,6.60602 -3.68783,1.55982 -7.74239,2.42236 -11.99841,2.42236 -4.256013,0 -8.310573,-0.86254 -11.998403,-2.42237 -3.68783,-1.55982 -7.00893,-3.81691 -9.79804,-6.60601 -2.7890896,-2.78909 -5.0461796,-6.1102 -6.6059996,-9.79803 -1.55983,-3.68784 -2.42237,-7.7424 -2.42237,-11.99842 0,-4.25602 0.86255,-8.31058 2.42237,-11.99841"
       style="fill:none;fill-opacity:0.99607843;stroke:#000000;stroke-width:6.08368874;stroke-linecap:round;stroke-linejoin:round;stroke-miterlimit:4;stroke-dasharray:none;stroke-dashoffset:0;stroke-opacity:1;paint-order:fill markers stroke" />
    <rect
       style="fill:none;fill-opacity:0.99607843;stroke:#000000;stroke-width:0.27039307;stroke-linecap:round;stroke-linejoin:round;stroke-miterlimit:4;stroke-dasharray:none;stroke-dashoffset:0;stroke-opacity:1;paint-order:fill markers stroke"
       id="rect850"
       width="67.462944"
       height="67.462944"
       x="0.13519317"
       y="271.06854"
       ry="0.62263644"
       inkscape:export-xdpi="96"
       inkscape:export-ydpi="96" />
    <path
       style="fill:none;fill-opacity:0.99607843;stroke:#000000;stroke-width:6.08368874;stroke-linecap:round;stroke-linejoin:round;stroke-miterlimit:4;stroke-dasharray:none;stroke-dashoffset:0;stroke-opacity:1;paint-order:fill markers stroke"
       d="m 64.691489,372.53336 c 0,4.25602 -0.86254,8.31059 -2.42237,11.99842 -1.55981,3.68784 -3.81691,7.00894 -6.60601,9.79803 -2.7891,2.7891 -6.1102,5.0462 -9.79803,6.60602 -3.68783,1.55982 -7.74239,2.42236 -11.99841,2.42236 -4.256013,0 -8.310573,-0.86254 -11.998403,-2.42237 -3.68783,-1.55982 -7.00893,-3.81691 -9.79804,-6.60601 -2.7890896,-2.78909 -5.0461796,-6.1102 -6.6059996,-9.79803 -1.55983,-3.68784 -2.42237,-7.7424 -2.42237,-11.99842 0,-4.25602 0.86255,-8.31058 2.42237,-11.99841 1.55982,-3.68783 3.81691,-7.00893 6.6059996,-9.79803 2.78911,-2.7891 6.11021,-5.04619 9.79804,-6.60601 3.68783,-1.55982 7.74239,-2.42237 11.998403,-2.42237 4.25602,0 8.31058,0.86255 11.99841,2.42237 3.68783,1.55982 7.00893,3.81691 9.79803,6.60601 2.7891,2.7891 5.04619,6.1102 6.60601,9.79803 1.55983,3.68783 2.42237,7.74239 2.42237,11.99841 z"
       id="path852"
       inkscape:connector-curvature="0"
       sodipodi:nodetypes="sssssssssssssssss" />
    <rect
       ry="0.62263644"
       y="338.80188"
       x="0.13519317"
       height="67.462944"
       width="67.462944"
       id="rect854"
       style="fill:none;fill-opacity:0.99607843;stroke:#000000;stroke-width:0.27039307;stroke-linecap:round;stroke-linejoin:round;stroke-miterlimit:4;stroke-dasharray:none;stroke-dashoffset:0;stroke-opacity:1;paint-order:fill markers stroke"
       inkscape:export-xdpi="96"
       inkscape:export-ydpi="96" />
  </g>
</svg>
