<?xml version="1.0" encoding="UTF-8" standalone="no"?>
<!-- Created with Inkscape (http://www.inkscape.org/) -->

<svg
   xmlns:dc="http://purl.org/dc/elements/1.1/"
   xmlns:cc="http://creativecommons.org/ns#"
   xmlns:rdf="http://www.w3.org/1999/02/22-rdf-syntax-ns#"
   xmlns:svg="http://www.w3.org/2000/svg"
   xmlns="http://www.w3.org/2000/svg"
   xmlns:sodipodi="http://sodipodi.sourceforge.net/DTD/sodipodi-0.dtd"
   xmlns:inkscape="http://www.inkscape.org/namespaces/inkscape"
   width="210mm"
   height="297mm"
   viewBox="0 0 210 297"
   version="1.1"
   id="svg8"
   inkscape:version="0.92.4 (5da689c313, 2019-01-14)"
   sodipodi:docname="barco.svg">
  <defs
     id="defs2">
    <inkscape:path-effect
       effect="mirror_symmetry"
       start_point="68.793571,34.779021"
       end_point="55.280496,34.845311"
       center_point="62.037033,34.812166"
       id="path-effect4647"
       is_visible="true"
       mode="free"
       discard_orig_path="false"
       fuse_paths="false"
       oposite_fuse="false" />
    <inkscape:path-effect
       effect="mirror_symmetry"
       start_point="55.28,23.156248"
       end_point="55.280496,24.475532"
       center_point="55.280248,23.81589"
       id="path-effect4639"
       is_visible="true"
       mode="free"
       discard_orig_path="false"
       fuse_paths="false"
       oposite_fuse="false" />
  </defs>
  <sodipodi:namedview
     id="base"
     pagecolor="#ffffff"
     bordercolor="#666666"
     borderopacity="1.0"
     inkscape:pageopacity="0.0"
     inkscape:pageshadow="2"
     inkscape:zoom="1.4"
     inkscape:cx="100.91466"
     inkscape:cy="942.61423"
     inkscape:document-units="mm"
     inkscape:current-layer="layer1"
     showgrid="false"
     inkscape:snap-page="true"
     showguides="true"
     inkscape:guide-bbox="true"
     inkscape:snap-smooth-nodes="true"
     inkscape:snap-intersection-paths="true"
     inkscape:object-paths="false"
     inkscape:window-width="1920"
     inkscape:window-height="1051"
     inkscape:window-x="-9"
     inkscape:window-y="-9"
     inkscape:window-maximized="1"
     inkscape:snap-global="true"
     inkscape:snap-bbox="true"
     inkscape:bbox-paths="true">
    <sodipodi:guide
       position="33.786987,263.21302"
       orientation="1,0"
       id="guide819"
       inkscape:locked="false" />
    <sodipodi:guide
       position="16.725447,262.22098"
       orientation="0,1"
       id="guide821"
       inkscape:locked="false" />
  </sodipodi:namedview>
  <metadata
     id="metadata5">
    <rdf:RDF>
      <cc:Work
         rdf:about="">
        <dc:format>image/svg+xml</dc:format>
        <dc:type
           rdf:resource="http://purl.org/dc/dcmitype/StillImage" />
        <dc:title />
      </cc:Work>
    </rdf:RDF>
  </metadata>
  <g
     inkscape:label="Capa 1"
     inkscape:groupmode="layer"
     id="layer1">
    <path
       sodipodi:nodetypes="ccccccccc"
       inkscape:connector-curvature="0"
       id="path1438"
       d="m 68.793571,0.26645321 h 34.446599 34.44677 V 34.977615 69.688776 H 103.24017 68.793571 V 34.977615 Z"
       style="fill:none;fill-opacity:1;stroke:#000000;stroke-width:0.16309509;stroke-linecap:round;stroke-linejoin:round;stroke-miterlimit:4;stroke-dasharray:none;stroke-dashoffset:19.80000305;stroke-opacity:1;paint-order:fill markers stroke" />
    <path
       style="fill:#cbcbcb;stroke:#000000;stroke-width:2.11666656;stroke-linecap:butt;stroke-linejoin:miter;stroke-miterlimit:4;stroke-dasharray:none;stroke-opacity:1;fill-opacity:1"
       d="m 137.68694,68.443381 -8.23009,-2.645835 H 77.863095 l -8.70162,2.645835 C 35.374488,68.443381 19.546057,50.678436 1.5875002,34.750854 19.546057,18.823273 35.374488,1.0583333 69.161475,1.0583333 l 8.70162,2.6458333 h 51.593755 l 8.23009,-2.6458333"
       id="path5265"
       inkscape:connector-curvature="0"
       sodipodi:nodetypes="ccccccccc" />
    <path
       style="fill:none;fill-opacity:1;stroke:#000000;stroke-width:0.16309509;stroke-linecap:round;stroke-linejoin:round;stroke-miterlimit:4;stroke-dasharray:none;stroke-dashoffset:19.80000305;stroke-opacity:1;paint-order:fill markers stroke"
       d="M 0.00186694,0.26645321 H 34.448445 68.895022 V 34.977615 69.688776 H 34.448445 0.00186694 V 34.977615 Z"
       id="rect815"
       inkscape:connector-curvature="0"
       sodipodi:nodetypes="ccccccccc" />
    <path
       style="fill:#979797;fill-opacity:1;stroke:#000000;stroke-width:1.05833328;stroke-linecap:round;stroke-linejoin:round;stroke-miterlimit:4;stroke-dasharray:none;stroke-dashoffset:19.80000305;stroke-opacity:1;paint-order:fill markers stroke"
       d="m 3.277578,24.424829 15.367998,0.529167 c 0.369949,0.01274 0.668174,0.298006 0.668174,0.668174 v 4.687961 c 0,0.370168 -0.298225,0.655436 -0.668174,0.668174 L 3.277578,31.507472 c -0.36995,0.01274 -0.668174,-0.298006 -0.668174,-0.668174 v -5.746295 c 0,-0.370168 0.298224,-0.680912 0.668174,-0.668174 z"
       id="rect836"
       inkscape:connector-curvature="0"
       sodipodi:nodetypes="sssssssss" />
    <g
       id="g4620">
      <path
         style="fill:#979797;fill-opacity:1;stroke:#000000;stroke-width:1.05833328;stroke-linecap:round;stroke-linejoin:round;stroke-miterlimit:4;stroke-dasharray:none;stroke-dashoffset:19.80000305;stroke-opacity:1;paint-order:fill markers stroke"
         d="m 3.277578,38.183171 15.367998,0.529167 c 0.369949,0.01274 0.668174,0.298006 0.668174,0.668174 v 4.687961 c 0,0.370168 -0.298225,0.655436 -0.668174,0.668174 L 3.277578,45.265814 C 2.907628,45.278554 2.609404,44.967808 2.609404,44.59764 v -5.746295 c 0,-0.370168 0.298224,-0.680912 0.668174,-0.668174 z"
         id="path4611"
         inkscape:connector-curvature="0"
         sodipodi:nodetypes="sssssssss" />
      <path
         sodipodi:nodetypes="sssssssss"
         inkscape:connector-curvature="0"
         id="path4613"
         d="m 3.8361713,39.753135 13.6160467,0.187242 c 0.327774,0.0046 0.592002,0.105447 0.592002,0.23643 v 1.658799 c 0,0.130983 -0.264228,0.231922 -0.592002,0.23643 L 3.8361713,42.259277 C 3.5083956,42.263856 3.2441692,42.15383 3.2441692,42.022849 v -2.033285 c 0,-0.130981 0.2642264,-0.240935 0.5920021,-0.236429 z"
         style="fill:#ffffff;fill-opacity:1;stroke:none;stroke-width:0.5925765;stroke-linecap:round;stroke-linejoin:round;stroke-miterlimit:4;stroke-dasharray:none;stroke-dashoffset:19.80000305;stroke-opacity:1;paint-order:fill markers stroke" />
      <path
         style="fill:none;stroke:#000000;stroke-width:0.5291667;stroke-linecap:butt;stroke-linejoin:miter;stroke-miterlimit:4;stroke-dasharray:none;stroke-opacity:1"
         d="m 6.7012675,38.30106 0.065632,6.844607"
         id="path4615"
         inkscape:connector-curvature="0"
         sodipodi:nodetypes="cc" />
    </g>
    <path
       style="fill:#969696;fill-opacity:1;stroke:#000000;stroke-width:1.05799995;stroke-linecap:round;stroke-linejoin:round;stroke-miterlimit:4;stroke-dasharray:none;stroke-dashoffset:19.80000305;stroke-opacity:1;paint-order:fill markers stroke"
       d="M 18.645577,46.187865 V 23.502779 c 0,-1.702774 1.370826,-3.073599 3.226035,-3.073599 h 14.819431 c 3.923784,0 7.082643,3.158858 7.082643,7.082642 v 14.667 c 0,3.923784 -3.158859,7.082643 -7.082643,7.082643 H 21.871612 c -1.855209,0 -3.226035,-1.370826 -3.226035,-3.0736 z"
       id="rect830"
       inkscape:connector-curvature="0"
       sodipodi:nodetypes="sscsssscs" />
    <circle
       style="fill:none;fill-opacity:1;stroke:#000000;stroke-width:0.79374999;stroke-linecap:round;stroke-linejoin:round;stroke-miterlimit:4;stroke-dasharray:none;stroke-dashoffset:19.80000305;stroke-opacity:1;paint-order:fill markers stroke"
       id="path834"
       cx="31.209633"
       cy="34.845322"
       r="9.4512053" />
    <g
       id="g858"
       style="stroke-width:0.79374999;stroke-miterlimit:4;stroke-dasharray:none"
       transform="translate(1.5875,1.0583333)">
      <path
         sodipodi:nodetypes="ccccc"
         inkscape:connector-curvature="0"
         id="path846"
         d="M 37.136159,12.572916 C 42.566574,9.1715267 51.703907,6.2683478 58.18471,6.1000739 c 1.671217,0.065415 1.660222,2.7313462 1.889881,5.3389141 L 38.837052,17.959077 C 37.504888,15.879473 35.9735,13.42349 37.136159,12.572916 Z"
         style="fill:none;stroke:#000000;stroke-width:0.79374999;stroke-linecap:butt;stroke-linejoin:miter;stroke-miterlimit:4;stroke-dasharray:none;stroke-opacity:1" />
      <circle
         r="1.201564"
         cy="14.098229"
         cx="41.000202"
         id="path848"
         style="fill:#ffffff;fill-opacity:1;stroke:#000000;stroke-width:0.79374999;stroke-linecap:round;stroke-linejoin:round;stroke-miterlimit:4;stroke-dasharray:none;stroke-dashoffset:19.80000305;stroke-opacity:1;paint-order:fill markers stroke" />
      <circle
         style="fill:#ffffff;fill-opacity:1;stroke:#000000;stroke-width:0.79374999;stroke-linecap:round;stroke-linejoin:round;stroke-miterlimit:4;stroke-dasharray:none;stroke-dashoffset:19.80000305;stroke-opacity:1;paint-order:fill markers stroke"
         id="circle850"
         cx="48.937702"
         cy="11.334279"
         r="1.201564" />
      <circle
         r="1.201564"
         cy="9.3499031"
         cx="56.709835"
         id="circle852"
         style="fill:#ffffff;fill-opacity:1;stroke:#000000;stroke-width:0.79374999;stroke-linecap:round;stroke-linejoin:round;stroke-miterlimit:4;stroke-dasharray:none;stroke-dashoffset:19.80000305;stroke-opacity:1;paint-order:fill markers stroke" />
    </g>
    <g
       id="g868"
       transform="matrix(1,0,0,-1,1.5875,69.061936)"
       style="stroke-width:0.79374999;stroke-miterlimit:4;stroke-dasharray:none">
      <path
         style="fill:none;stroke:#000000;stroke-width:0.79374999;stroke-linecap:butt;stroke-linejoin:miter;stroke-miterlimit:4;stroke-dasharray:none;stroke-opacity:1"
         d="M 37.136159,12.572916 C 42.566574,9.1715267 51.703907,6.2683478 58.18471,6.1000739 c 1.671217,0.065415 1.660222,2.7313462 1.889881,5.3389141 L 38.837052,17.959077 C 37.504888,15.879473 35.9735,13.42349 37.136159,12.572916 Z"
         id="path860"
         inkscape:connector-curvature="0"
         sodipodi:nodetypes="ccccc" />
      <circle
         style="fill:#ffffff;fill-opacity:1;stroke:#000000;stroke-width:0.79374999;stroke-linecap:round;stroke-linejoin:round;stroke-miterlimit:4;stroke-dasharray:none;stroke-dashoffset:19.80000305;stroke-opacity:1;paint-order:fill markers stroke"
         id="circle862"
         cx="41.000202"
         cy="14.098229"
         r="1.201564" />
      <circle
         r="1.201564"
         cy="11.334279"
         cx="48.937702"
         id="circle864"
         style="fill:#ffffff;fill-opacity:1;stroke:#000000;stroke-width:0.79374999;stroke-linecap:round;stroke-linejoin:round;stroke-miterlimit:4;stroke-dasharray:none;stroke-dashoffset:19.80000305;stroke-opacity:1;paint-order:fill markers stroke" />
      <circle
         style="fill:#ffffff;fill-opacity:1;stroke:#000000;stroke-width:0.79374999;stroke-linecap:round;stroke-linejoin:round;stroke-miterlimit:4;stroke-dasharray:none;stroke-dashoffset:19.80000305;stroke-opacity:1;paint-order:fill markers stroke"
         id="circle866"
         cx="56.709835"
         cy="9.3499031"
         r="1.201564" />
    </g>
    <path
       style="fill:#ffffff;fill-opacity:1;stroke:#000000;stroke-width:1.38495982;stroke-linecap:round;stroke-linejoin:round;stroke-miterlimit:4;stroke-dasharray:none;stroke-dashoffset:19.80000305;stroke-opacity:1;paint-order:fill markers stroke"
       d="m 59.054967,22.970093 h 81.800013 c 3.02837,0 5.46638,2.438003 5.46638,5.466375 v 12.817708 c 0,3.028371 -2.43801,5.466375 -5.46638,5.466375 H 59.054967 c -3.028371,0 -5.466374,-2.438004 -5.466374,-5.466375 V 28.436468 c 0,-3.028372 2.438003,-5.466375 5.466374,-5.466375 z"
       id="rect872"
       inkscape:connector-curvature="0"
       sodipodi:nodetypes="sssssssss" />
    <rect
       style="fill:#5bffff;fill-opacity:1;stroke:#000000;stroke-width:1.17181349;stroke-linecap:round;stroke-linejoin:round;stroke-miterlimit:4;stroke-dasharray:none;stroke-dashoffset:19.80000305;stroke-opacity:1;paint-order:fill markers stroke"
       id="rect5324"
       width="21.867489"
       height="23.963602"
       x="53.482021"
       y="22.86352"
       ry="5.5154328" />
    <path
       style="fill:none;stroke:#000000;stroke-width:1.32291663;stroke-linecap:butt;stroke-linejoin:miter;stroke-miterlimit:4;stroke-dasharray:none;stroke-opacity:1"
       d="m 68.886159,22.740475 c 0,0 -6.576735,-3.934125 -10.016368,-3.741964 -3.439633,0.192161 -7.288705,1.111153 -9.260417,4.157737 -0.23446,4.349523 -1.5875,11.660092 -1.5875,11.660092 0,0 1.35304,7.310569 1.5875,11.660092 1.971712,3.046584 5.820784,3.965576 9.260417,4.157737 3.439633,0.192161 10.016368,-3.741964 10.016368,-3.741964 z"
       id="path4631"
       inkscape:connector-curvature="0"
       sodipodi:nodetypes="czccczcc" />
    <rect
       ry="5.5154328"
       y="22.86352"
       x="58.244526"
       height="23.963602"
       width="21.867489"
       id="rect874"
       style="fill:#cbcbcb;fill-opacity:1;stroke:#000000;stroke-width:1.17181349;stroke-linecap:round;stroke-linejoin:round;stroke-miterlimit:4;stroke-dasharray:none;stroke-dashoffset:19.80000305;stroke-opacity:1;paint-order:fill markers stroke" />
    <circle
       r="6.6483293"
       cy="34.845322"
       cx="68.632309"
       id="circle4627"
       style="fill:#000000;fill-opacity:1;stroke:#000005;stroke-width:2.64583333;stroke-linecap:round;stroke-linejoin:round;stroke-miterlimit:4;stroke-dasharray:none;stroke-dashoffset:19.80000305;stroke-opacity:1;paint-order:fill markers stroke" />
    <rect
       style="fill:none;fill-opacity:1;stroke:#000000;stroke-width:0.52916664;stroke-linecap:round;stroke-linejoin:round;stroke-miterlimit:4;stroke-dasharray:none;stroke-dashoffset:19.80000305;stroke-opacity:1;paint-order:fill markers stroke"
       id="rect876"
       width="4.7597399"
       height="6.6021914"
       x="53.560333"
       y="28.243113" />
    <rect
       y="34.845306"
       x="53.557571"
       height="6.6021914"
       width="4.7597399"
       id="rect878"
       style="fill:none;fill-opacity:1;stroke:#000000;stroke-width:0.52916664;stroke-linecap:round;stroke-linejoin:round;stroke-miterlimit:4;stroke-dasharray:none;stroke-dashoffset:19.80000305;stroke-opacity:1;paint-order:fill markers stroke" />
    <circle
       style="fill:#000000;fill-opacity:1;stroke:#191919;stroke-width:1.32291663;stroke-linecap:round;stroke-linejoin:round;stroke-miterlimit:4;stroke-dasharray:none;stroke-dashoffset:19.80000305;stroke-opacity:1;paint-order:fill markers stroke"
       id="path880"
       cx="68.632309"
       cy="34.845322"
       r="6.6483293" />
    <path
       sodipodi:nodetypes="sssssssss"
       inkscape:connector-curvature="0"
       id="path4609"
       d="m 3.8361713,25.861156 13.6160467,0.182249 c 0.327774,0.0044 0.592002,0.102637 0.592002,0.230126 v 1.614579 c 0,0.12749 -0.264228,0.225739 -0.592002,0.230126 L 3.8361713,28.300485 C 3.5083956,28.304877 3.2441692,28.19785 3.2441692,28.07036 v -1.979079 c 0,-0.127489 0.2642264,-0.234513 0.5920021,-0.230125 z"
       style="fill:#ffffff;fill-opacity:1;stroke:none;stroke-width:0.58462435;stroke-linecap:round;stroke-linejoin:round;stroke-miterlimit:4;stroke-dasharray:none;stroke-dashoffset:19.80000305;stroke-opacity:1;paint-order:fill markers stroke" />
    <path
       style="fill:none;stroke:#000000;stroke-width:0.5291667;stroke-linecap:butt;stroke-linejoin:miter;stroke-miterlimit:4;stroke-dasharray:none;stroke-opacity:1"
       d="m 6.7012675,24.542718 0.065632,6.844607"
       id="path882"
       inkscape:connector-curvature="0"
       sodipodi:nodetypes="cc" />
    <path
       style="fill:#000000;stroke:#000000;stroke-width:0.79374999;stroke-miterlimit:4;stroke-dasharray:none;stroke-opacity:1"
       d="m 26.86072,32.17202 2.673426,2.673426 -2.673179,2.673178 1.675364,1.675364 2.673178,-2.673179 2.673426,2.673426 1.67561,-1.67561 -2.673426,-2.673425 2.67318,-2.67318 -1.675364,-1.675364 -2.67318,2.67318 -2.673425,-2.673426 z"
       id="rect1444"
       inkscape:connector-curvature="0" />
    <g
       id="g5209"
       transform="translate(10.392435)">
      <g
         id="g5183">
        <path
           sodipodi:nodetypes="sssssssss"
           inkscape:connector-curvature="0"
           id="path5154"
           d="m 87.120791,1.642014 -0.25123,7.2962113 C 86.863512,9.1138652 86.728077,9.25545 86.552334,9.25545 h -2.225687 c -0.175743,0 -0.311179,-0.1415848 -0.317226,-0.3172247 L 83.75819,1.642014 c -0.006,-0.1756398 0.141483,-0.3172266 0.317227,-0.3172266 h 2.728148 c 0.175743,0 0.323274,0.1415868 0.317226,0.3172266 z"
           style="fill:#ffffff;fill-opacity:1;stroke:#000000;stroke-width:1.05833328;stroke-linecap:round;stroke-linejoin:round;stroke-miterlimit:4;stroke-dasharray:none;stroke-dashoffset:19.80000305;stroke-opacity:1;paint-order:fill markers stroke" />
        <path
           sodipodi:nodetypes="cc"
           inkscape:connector-curvature="0"
           id="path5160"
           d="m 87.064822,3.2674667 -3.24959,0.031159"
           style="fill:none;stroke:#000000;stroke-width:0.5291667;stroke-linecap:butt;stroke-linejoin:miter;stroke-miterlimit:4;stroke-dasharray:none;stroke-opacity:1" />
        <path
           sodipodi:nodetypes="sscsssscs"
           inkscape:connector-curvature="0"
           id="path5156"
           d="m 80.482024,8.953252 h 9.914922 c 0.744227,0 1.343371,0.59914 1.343371,1.41 v 6.47709 c 0,1.71496 -1.380635,3.0956 -3.095595,3.0956 h -6.410474 c -1.71496,0 -3.095595,-1.38064 -3.095595,-3.0956 v -6.47709 c 0,-0.81086 0.599143,-1.41 1.343371,-1.41 z"
           style="fill:#ffffff;fill-opacity:1;stroke:#000000;stroke-width:1.05833328;stroke-linecap:round;stroke-linejoin:round;stroke-miterlimit:4;stroke-dasharray:none;stroke-dashoffset:19.80000305;stroke-opacity:1;paint-order:fill markers stroke" />
        <circle
           r="4.1308179"
           cy="-85.439484"
           cx="14.444601"
           id="circle5158"
           style="fill:none;fill-opacity:1;stroke:#000000;stroke-width:0.79374999;stroke-linecap:round;stroke-linejoin:round;stroke-miterlimit:4;stroke-dasharray:none;stroke-dashoffset:19.80000305;stroke-opacity:1;paint-order:fill markers stroke"
           transform="rotate(90)" />
        <path
           inkscape:connector-curvature="0"
           id="path5162"
           d="m 86.607899,12.543822 -1.168468,1.16847 -1.168361,-1.16836 -0.732247,0.73225 1.168361,1.16836 -1.168469,1.16847 0.732355,0.73235 1.168468,-1.16846 1.168361,1.16836 0.732248,-0.73225 -1.168361,-1.16837 1.168468,-1.16846 z"
           style="fill:#000000;stroke:#000000;stroke-width:0.34692258;stroke-miterlimit:4;stroke-dasharray:none;stroke-opacity:1" />
      </g>
      <g
         transform="translate(14.81667)"
         id="g5195">
        <path
           style="fill:#ffffff;fill-opacity:1;stroke:#000000;stroke-width:1.05833328;stroke-linecap:round;stroke-linejoin:round;stroke-miterlimit:4;stroke-dasharray:none;stroke-dashoffset:19.80000305;stroke-opacity:1;paint-order:fill markers stroke"
           d="m 87.120791,1.642014 -0.25123,7.2962113 C 86.863512,9.1138652 86.728077,9.25545 86.552334,9.25545 h -2.225687 c -0.175743,0 -0.311179,-0.1415848 -0.317226,-0.3172247 L 83.75819,1.642014 c -0.006,-0.1756398 0.141483,-0.3172266 0.317227,-0.3172266 h 2.728148 c 0.175743,0 0.323274,0.1415868 0.317226,0.3172266 z"
           id="path5185"
           inkscape:connector-curvature="0"
           sodipodi:nodetypes="sssssssss" />
        <path
           style="fill:none;stroke:#000000;stroke-width:0.5291667;stroke-linecap:butt;stroke-linejoin:miter;stroke-miterlimit:4;stroke-dasharray:none;stroke-opacity:1"
           d="m 87.064822,3.2674667 -3.24959,0.031159"
           id="path5187"
           inkscape:connector-curvature="0"
           sodipodi:nodetypes="cc" />
        <path
           style="fill:#ffffff;fill-opacity:1;stroke:#000000;stroke-width:1.05833328;stroke-linecap:round;stroke-linejoin:round;stroke-miterlimit:4;stroke-dasharray:none;stroke-dashoffset:19.80000305;stroke-opacity:1;paint-order:fill markers stroke"
           d="m 80.482024,8.953252 h 9.914922 c 0.744227,0 1.343371,0.59914 1.343371,1.41 v 6.47709 c 0,1.71496 -1.380635,3.0956 -3.095595,3.0956 h -6.410474 c -1.71496,0 -3.095595,-1.38064 -3.095595,-3.0956 v -6.47709 c 0,-0.81086 0.599143,-1.41 1.343371,-1.41 z"
           id="path5189"
           inkscape:connector-curvature="0"
           sodipodi:nodetypes="sscsssscs" />
        <circle
           transform="rotate(90)"
           style="fill:none;fill-opacity:1;stroke:#000000;stroke-width:0.79374999;stroke-linecap:round;stroke-linejoin:round;stroke-miterlimit:4;stroke-dasharray:none;stroke-dashoffset:19.80000305;stroke-opacity:1;paint-order:fill markers stroke"
           id="circle5191"
           cx="14.444601"
           cy="-85.439484"
           r="4.1308179" />
        <path
           style="fill:#000000;stroke:#000000;stroke-width:0.34692258;stroke-miterlimit:4;stroke-dasharray:none;stroke-opacity:1"
           d="m 86.607899,12.543822 -1.168468,1.16847 -1.168361,-1.16836 -0.732247,0.73225 1.168361,1.16836 -1.168469,1.16847 0.732355,0.73235 1.168468,-1.16846 1.168361,1.16836 0.732248,-0.73225 -1.168361,-1.16837 1.168468,-1.16846 z"
           id="path5193"
           inkscape:connector-curvature="0" />
      </g>
    </g>
    <g
       transform="matrix(1,0,0,-1,10.392435,69.501715)"
       id="g5263">
      <g
         id="g5249">
        <path
           style="fill:#ffffff;fill-opacity:1;stroke:#000000;stroke-width:1.05833328;stroke-linecap:round;stroke-linejoin:round;stroke-miterlimit:4;stroke-dasharray:none;stroke-dashoffset:19.80000305;stroke-opacity:1;paint-order:fill markers stroke"
           d="m 87.120791,1.642014 -0.25123,7.2962113 C 86.863512,9.1138652 86.728077,9.25545 86.552334,9.25545 h -2.225687 c -0.175743,0 -0.311179,-0.1415848 -0.317226,-0.3172247 L 83.75819,1.642014 c -0.006,-0.1756398 0.141483,-0.3172266 0.317227,-0.3172266 h 2.728148 c 0.175743,0 0.323274,0.1415868 0.317226,0.3172266 z"
           id="path5239"
           inkscape:connector-curvature="0"
           sodipodi:nodetypes="sssssssss" />
        <path
           style="fill:none;stroke:#000000;stroke-width:0.5291667;stroke-linecap:butt;stroke-linejoin:miter;stroke-miterlimit:4;stroke-dasharray:none;stroke-opacity:1"
           d="m 87.064822,3.2674667 -3.24959,0.031159"
           id="path5241"
           inkscape:connector-curvature="0"
           sodipodi:nodetypes="cc" />
        <path
           style="fill:#ffffff;fill-opacity:1;stroke:#000000;stroke-width:1.05833328;stroke-linecap:round;stroke-linejoin:round;stroke-miterlimit:4;stroke-dasharray:none;stroke-dashoffset:19.80000305;stroke-opacity:1;paint-order:fill markers stroke"
           d="m 80.482024,8.953252 h 9.914922 c 0.744227,0 1.343371,0.59914 1.343371,1.41 v 6.47709 c 0,1.71496 -1.380635,3.0956 -3.095595,3.0956 h -6.410474 c -1.71496,0 -3.095595,-1.38064 -3.095595,-3.0956 v -6.47709 c 0,-0.81086 0.599143,-1.41 1.343371,-1.41 z"
           id="path5243"
           inkscape:connector-curvature="0"
           sodipodi:nodetypes="sscsssscs" />
        <circle
           transform="rotate(90)"
           style="fill:none;fill-opacity:1;stroke:#000000;stroke-width:0.79374999;stroke-linecap:round;stroke-linejoin:round;stroke-miterlimit:4;stroke-dasharray:none;stroke-dashoffset:19.80000305;stroke-opacity:1;paint-order:fill markers stroke"
           id="circle5245"
           cx="14.444601"
           cy="-85.439484"
           r="4.1308179" />
        <path
           style="fill:#000000;stroke:#000000;stroke-width:0.34692258;stroke-miterlimit:4;stroke-dasharray:none;stroke-opacity:1"
           d="m 86.607899,12.543822 -1.168468,1.16847 -1.168361,-1.16836 -0.732247,0.73225 1.168361,1.16836 -1.168469,1.16847 0.732355,0.73235 1.168468,-1.16846 1.168361,1.16836 0.732248,-0.73225 -1.168361,-1.16837 1.168468,-1.16846 z"
           id="path5247"
           inkscape:connector-curvature="0" />
      </g>
      <g
         id="g5261"
         transform="translate(14.81667)">
        <path
           sodipodi:nodetypes="sssssssss"
           inkscape:connector-curvature="0"
           id="path5251"
           d="m 87.120791,1.642014 -0.25123,7.2962113 C 86.863512,9.1138652 86.728077,9.25545 86.552334,9.25545 h -2.225687 c -0.175743,0 -0.311179,-0.1415848 -0.317226,-0.3172247 L 83.75819,1.642014 c -0.006,-0.1756398 0.141483,-0.3172266 0.317227,-0.3172266 h 2.728148 c 0.175743,0 0.323274,0.1415868 0.317226,0.3172266 z"
           style="fill:#ffffff;fill-opacity:1;stroke:#000000;stroke-width:1.05833328;stroke-linecap:round;stroke-linejoin:round;stroke-miterlimit:4;stroke-dasharray:none;stroke-dashoffset:19.80000305;stroke-opacity:1;paint-order:fill markers stroke" />
        <path
           sodipodi:nodetypes="cc"
           inkscape:connector-curvature="0"
           id="path5253"
           d="m 87.064822,3.2674667 -3.24959,0.031159"
           style="fill:none;stroke:#000000;stroke-width:0.5291667;stroke-linecap:butt;stroke-linejoin:miter;stroke-miterlimit:4;stroke-dasharray:none;stroke-opacity:1" />
        <path
           sodipodi:nodetypes="sscsssscs"
           inkscape:connector-curvature="0"
           id="path5255"
           d="m 80.482024,8.953252 h 9.914922 c 0.744227,0 1.343371,0.59914 1.343371,1.41 v 6.47709 c 0,1.71496 -1.380635,3.0956 -3.095595,3.0956 h -6.410474 c -1.71496,0 -3.095595,-1.38064 -3.095595,-3.0956 v -6.47709 c 0,-0.81086 0.599143,-1.41 1.343371,-1.41 z"
           style="fill:#ffffff;fill-opacity:1;stroke:#000000;stroke-width:1.05833328;stroke-linecap:round;stroke-linejoin:round;stroke-miterlimit:4;stroke-dasharray:none;stroke-dashoffset:19.80000305;stroke-opacity:1;paint-order:fill markers stroke" />
        <circle
           r="4.1308179"
           cy="-85.439484"
           cx="14.444601"
           id="circle5257"
           style="fill:none;fill-opacity:1;stroke:#000000;stroke-width:0.79374999;stroke-linecap:round;stroke-linejoin:round;stroke-miterlimit:4;stroke-dasharray:none;stroke-dashoffset:19.80000305;stroke-opacity:1;paint-order:fill markers stroke"
           transform="rotate(90)" />
        <path
           inkscape:connector-curvature="0"
           id="path5259"
           d="m 86.607899,12.543822 -1.168468,1.16847 -1.168361,-1.16836 -0.732247,0.73225 1.168361,1.16836 -1.168469,1.16847 0.732355,0.73235 1.168468,-1.16846 1.168361,1.16836 0.732248,-0.73225 -1.168361,-1.16837 1.168468,-1.16846 z"
           style="fill:#000000;stroke:#000000;stroke-width:0.34692258;stroke-miterlimit:4;stroke-dasharray:none;stroke-opacity:1" />
      </g>
    </g>
    <rect
       style="fill:#ffffff;fill-opacity:1;stroke:#000000;stroke-width:1.17181349;stroke-linecap:round;stroke-linejoin:round;stroke-miterlimit:4;stroke-dasharray:none;stroke-dashoffset:19.80000305;stroke-opacity:1;paint-order:fill markers stroke"
       id="rect5268"
       width="21.867489"
       height="23.963602"
       x="127.03624"
       y="22.86352"
       ry="5.5154328" />
    <circle
       r="6.6483293"
       cy="34.845322"
       cx="137.95302"
       id="circle5270"
       style="fill:#ffffff;fill-opacity:1;stroke:#000000;stroke-width:1.32291663;stroke-linecap:round;stroke-linejoin:round;stroke-miterlimit:4;stroke-dasharray:none;stroke-dashoffset:19.80000305;stroke-opacity:1;paint-order:fill markers stroke" />
    <ellipse
       style="fill:none;stroke:#000000;stroke-width:0.79374999;stroke-miterlimit:4;stroke-dasharray:none;stroke-opacity:1"
       id="path5274"
       cx="85.365913"
       cy="26.746456"
       rx="2.2820456"
       ry="1.1393787" />
    <ellipse
       ry="1.1393787"
       rx="2.2820456"
       cy="26.746456"
       cx="94.229446"
       id="ellipse5276"
       style="fill:none;stroke:#000000;stroke-width:0.79374999;stroke-miterlimit:4;stroke-dasharray:none;stroke-opacity:1" />
    <ellipse
       style="fill:none;stroke:#000000;stroke-width:0.79374999;stroke-miterlimit:4;stroke-dasharray:none;stroke-opacity:1"
       id="ellipse5278"
       cx="103.09299"
       cy="26.746456"
       rx="2.2820456"
       ry="1.1393787" />
    <ellipse
       ry="1.1393787"
       rx="2.2820456"
       cy="26.746456"
       cx="111.95652"
       id="ellipse5280"
       style="fill:none;stroke:#000000;stroke-width:0.79374999;stroke-miterlimit:4;stroke-dasharray:none;stroke-opacity:1" />
    <ellipse
       style="fill:none;stroke:#000000;stroke-width:0.79374999;stroke-miterlimit:4;stroke-dasharray:none;stroke-opacity:1"
       id="ellipse5282"
       cx="120.82006"
       cy="26.746456"
       rx="2.2820456"
       ry="1.1393787" />
    <ellipse
       ry="1.1393787"
       rx="2.2820456"
       cy="42.621471"
       cx="85.365913"
       id="ellipse5284"
       style="fill:none;stroke:#000000;stroke-width:0.79374999;stroke-miterlimit:4;stroke-dasharray:none;stroke-opacity:1" />
    <ellipse
       style="fill:none;stroke:#000000;stroke-width:0.79374999;stroke-miterlimit:4;stroke-dasharray:none;stroke-opacity:1"
       id="ellipse5286"
       cx="94.229446"
       cy="42.621471"
       rx="2.2820456"
       ry="1.1393787" />
    <ellipse
       ry="1.1393787"
       rx="2.2820456"
       cy="42.621471"
       cx="103.09299"
       id="ellipse5288"
       style="fill:none;stroke:#000000;stroke-width:0.79374999;stroke-miterlimit:4;stroke-dasharray:none;stroke-opacity:1" />
    <ellipse
       style="fill:none;stroke:#000000;stroke-width:0.79374999;stroke-miterlimit:4;stroke-dasharray:none;stroke-opacity:1"
       id="ellipse5290"
       cx="111.95652"
       cy="42.621471"
       rx="2.2820456"
       ry="1.1393787" />
    <ellipse
       ry="1.1393787"
       rx="2.2820456"
       cy="42.621471"
       cx="120.82006"
       id="ellipse5292"
       style="fill:none;stroke:#000000;stroke-width:0.79374999;stroke-miterlimit:4;stroke-dasharray:none;stroke-opacity:1" />
    <g
       id="g4599"
       transform="translate(0.52916667,-0.52916667)">
      <path
         sodipodi:nodetypes="ccc"
         inkscape:connector-curvature="0"
         id="path5300"
         d="M 84.98793,23.727212 C 80.148931,35.027109 83.716836,43.181129 97.567444,43.539557 Z"
         style="fill:#808080;stroke:#000000;stroke-width:1.57957983;stroke-linecap:butt;stroke-linejoin:miter;stroke-miterlimit:4;stroke-dasharray:none;stroke-opacity:1" />
      <ellipse
         transform="matrix(1,0,0.29299645,0.95611353,0,0)"
         ry="12.158784"
         rx="8.5585718"
         cy="33.7062"
         cx="83.321709"
         id="path5294"
         style="fill:#ffffff;stroke:#000000;stroke-width:1.62226903;stroke-miterlimit:4;stroke-dasharray:none;stroke-opacity:1" />
      <path
         sodipodi:nodetypes="sccss"
         inkscape:connector-curvature="0"
         id="ellipse5302"
         d="m 101.39652,33.07111 c 1.2908,4.272542 -0.0973,7.069053 -1.32163,8.434378 3.40794,-5.10248 -3.873621,-21.539721 -13.043942,-19.186618 0.932778,-0.74505 1.981126,-1.020075 3.162021,-1.020075 4.662128,0 9.26296,5.348925 11.203551,11.772315 z"
         style="fill:#808080;stroke:none;stroke-width:1.57575512;stroke-miterlimit:4;stroke-dasharray:none;stroke-opacity:1" />
      <path
         sodipodi:nodetypes="ccccc"
         inkscape:connector-curvature="0"
         id="path5298"
         d="m 86.295539,22.941253 9.848475,7.034621 -1.594515,13.318884 1.500714,-13.225089 4.971127,0.375182"
         style="fill:none;stroke:#000000;stroke-width:0.52525169px;stroke-linecap:butt;stroke-linejoin:miter;stroke-opacity:1" />
      <ellipse
         style="fill:#ffffff;stroke:#000000;stroke-width:1.6105423;stroke-miterlimit:4;stroke-dasharray:none;stroke-opacity:1"
         id="ellipse5296"
         cx="86.854492"
         cy="31.796591"
         rx="1.8606974"
         ry="2.6780684"
         transform="matrix(1,0,0.28920464,0.9572673,0,0)" />
    </g>
    <path
       sodipodi:nodetypes="cccccccccscccc"
       inkscape:connector-curvature="0"
       id="path4635"
       d="m 36.173941,21.798936 c 3.469922,0 6.263397,2.847737 6.263397,6.385061 0,0 -0.521167,1.186581 -1.066046,-0.808838 -0.03678,-1.827729 -1.506888,-4.554915 -4.554914,-4.554915 -3.255944,-0.383513 -1.701051,-1.007662 -0.642437,-1.021308 z m -7.977006,0.987898 -5.111529,0.03341 c -0.585153,0.0047 -1.607365,0.692145 -1.631653,1.631654 -0.128097,1.035272 -0.379024,2.10851 -1.237967,2.342371 v -2.224457 c 0,-1.535065 1.212264,-2.770876 2.85288,-2.770876 l 8.101643,0.06682 c 1.33412,0.223133 -1.421192,0.75582 -2.973374,0.921082 z"
       style="fill:#fffff4;fill-opacity:1;stroke:none;stroke-width:0.94466501;stroke-linecap:round;stroke-linejoin:round;stroke-miterlimit:4;stroke-dasharray:none;stroke-dashoffset:19.80000305;stroke-opacity:1;paint-order:fill markers stroke" />
    <g
       id="g4645"
       inkscape:path-effect="#path-effect4647">
      <path
         sodipodi:nodetypes="cc"
         inkscape:connector-curvature="0"
         id="path4637"
         d="m 49.609374,23.156248 5.671122,1.319284 m -5.556168,22.113919 5.657906,-1.37486"
         style="fill:none;stroke:#000000;stroke-width:1.32291663;stroke-linecap:butt;stroke-linejoin:miter;stroke-miterlimit:4;stroke-dasharray:none;stroke-opacity:1"
         inkscape:original-d="m 49.609374,23.156248 5.671122,1.319284" />
      <path
         sodipodi:nodetypes="cc"
         inkscape:connector-curvature="0"
         id="path4641"
         d="m 48.02874,34.779021 5.559851,0.06629 m -5.558852,0.137434 5.558933,-0.120835"
         style="fill:none;stroke:none;stroke-width:0.26458332px;stroke-linecap:butt;stroke-linejoin:miter;stroke-opacity:1"
         inkscape:original-d="m 48.02874,34.779021 5.559851,0.06629" />
    </g>
    <path
       style="fill:#575757;fill-opacity:1;stroke:none;stroke-width:0.26499999;stroke-linecap:butt;stroke-linejoin:round;stroke-miterlimit:4;stroke-dasharray:none;stroke-opacity:1"
       d="m 19.174743,43.868021 c 0.636065,-0.18294 1.018485,-0.625313 1.377712,-1.709019 v 2.116666 c -0.02933,1.886393 0.945338,2.216685 1.937128,2.220611 l 15.591517,-0.0945 c 2.650319,-0.120284 3.446437,-2.012244 3.401788,-3.96875 v -6.378347 c 0.351474,0.80829 0.710423,1.233917 1.76163,1.294569 v 4.829566 c 0.08637,3.446364 -2.665813,6.591481 -6.553475,6.553475 l -14.786022,0.0085 c -1.837789,-0.03262 -2.729966,-1.198061 -2.730277,-2.552885 z"
       id="path4661"
       inkscape:connector-curvature="0"
       sodipodi:nodetypes="ccccccccccccc" />
  </g>
</svg>
