<?xml version="1.0" encoding="UTF-8" standalone="no"?>
<svg
   xmlns:dc="http://purl.org/dc/elements/1.1/"
   xmlns:cc="http://creativecommons.org/ns#"
   xmlns:rdf="http://www.w3.org/1999/02/22-rdf-syntax-ns#"
   xmlns:svg="http://www.w3.org/2000/svg"
   xmlns="http://www.w3.org/2000/svg"
   xmlns:sodipodi="http://sodipodi.sourceforge.net/DTD/sodipodi-0.dtd"
   xmlns:inkscape="http://www.inkscape.org/namespaces/inkscape"
   sodipodi:docname="engranaje.png.svg"
   inkscape:version="1.0beta1 (fe3e306, 2019-09-17)"
   inkscape:export-ydpi="96"
   inkscape:export-xdpi="96"
   inkscape:export-filename="C:\xampp\htdocs\BatallaNavalPHP\BatallaNaval\imagen\engranaje.png"
   id="svg8"
   version="1.1"
   viewBox="0 0 44.371429 44.370903"
   height="44.370903mm"
   width="44.371429mm">
  <defs
     id="defs2">
    <inkscape:path-effect
       split_items="false"
       mirror_copies="false"
       copies_to_360="true"
       Gap space between copies, use small negative gaps to fix some joins="0.05"
       rotation_angle="51.428571"
       starting_angle="0"
       num_copies="7"
       method="normal"
       is_visible="true"
       id="path-effect850"
       origin="88.585462,125.23015"
       starting_point="88.585462,125.23015"
       effect="copy_rotate" />
    <inkscape:path-effect
       split_items="false"
       mirror_copies="false"
       copies_to_360="true"
       Gap space between copies, use small negative gaps to fix some joins="0.05"
       rotation_angle="51.428571"
       starting_angle="0"
       num_copies="7"
       method="normal"
       is_visible="true"
       id="path-effect848"
       origin="0,0"
       starting_point="134.77229,0"
       effect="copy_rotate" />
    <inkscape:path-effect
       split_items="false"
       mirror_copies="false"
       copies_to_360="true"
       Gap space between copies, use small negative gaps to fix some joins="0.13"
       rotation_angle="40"
       starting_angle="-0.74998495"
       num_copies="9"
       method="normal"
       is_visible="true"
       id="path-effect13"
       origin="94.928227,128.74277"
       starting_point="135.80548,129.27787"
       effect="copy_rotate" />
  </defs>
  <sodipodi:namedview
     inkscape:window-maximized="1"
     inkscape:window-y="-9"
     inkscape:window-x="-9"
     inkscape:window-height="1051"
     inkscape:window-width="1920"
     inkscape:pagecheckerboard="true"
     fit-margin-bottom="0"
     fit-margin-right="0"
     fit-margin-left="0"
     fit-margin-top="0"
     inkscape:snap-intersection-paths="true"
     inkscape:snap-bbox="true"
     inkscape:snap-global="false"
     inkscape:guide-bbox="true"
     showguides="true"
     inkscape:snap-smooth-nodes="true"
     showgrid="false"
     inkscape:document-rotation="0"
     inkscape:current-layer="layer1"
     inkscape:document-units="mm"
     inkscape:cy="128.29417"
     inkscape:cx="129.86664"
     inkscape:zoom="2"
     inkscape:pageshadow="2"
     inkscape:pageopacity="0.0"
     borderopacity="1.0"
     bordercolor="#666666"
     pagecolor="#ffffff"
     id="base">
    <sodipodi:guide
       id="guide844"
       orientation="1,0"
       position="22.1858,43.981299" />
    <sodipodi:guide
       id="guide846"
       orientation="0,-1"
       position="43.98163,22.185469" />
  </sodipodi:namedview>
  <metadata
     id="metadata5">
    <rdf:RDF>
      <cc:Work
         rdf:about="">
        <dc:format>image/svg+xml</dc:format>
        <dc:type
           rdf:resource="http://purl.org/dc/dcmitype/StillImage" />
        <dc:title></dc:title>
      </cc:Work>
    </rdf:RDF>
  </metadata>
  <g
     transform="translate(-63.220181,-103.44461)"
     id="layer1"
     inkscape:groupmode="layer"
     inkscape:label="Capa 1">
    <path
       inkscape:connector-curvature="0"
       transform="scale(0.26458333)"
       d="m 338.30273,393.89648 -2.14257,11.17774 c -9.05861,-1.73182 -18.30635,-1.65909 -27.2168,0.11328 l -2.2207,-11.16016 c -10.33864,2.05648 -20.28508,6.08418 -29.22657,11.96289 l 6.25782,9.50977 c -7.70631,5.06661 -14.54603,11.72618 -19.99219,19.87695 l -9.46289,-6.32226 c -6.31907,9.45713 -10.4222,19.74728 -12.43164,30.25781 l 11.17969,2.14258 c -1.73189,9.05866 -1.65911,18.30832 0.11328,27.21875 L 242,490.89258 c 2.05649,10.33863 6.0842,20.28511 11.96289,29.22656 l 9.50781,-6.25586 c 5.0666,7.70631 11.72817,14.54604 19.87891,19.99219 l -6.32227,9.46094 c 9.45716,6.31906 19.74728,10.42225 30.25782,12.43164 l 2.14257,-11.17774 c 9.05861,1.73178 18.30633,1.65913 27.2168,-0.11328 l 2.2207,11.16016 c 10.33861,-2.05648 20.28507,-6.08422 29.22657,-11.96289 l -6.25782,-9.50977 c 7.70627,-5.06664 14.53824,-11.4684 19.98438,-19.61914 l 9.4707,6.06445 c 6.31907,-9.45713 10.42226,-19.74732 12.43164,-30.25781 l -11.17968,-2.14258 c 1.73181,-9.05862 1.65912,-18.30832 -0.11329,-27.21875 l 11.16211,-2.21875 c -2.05647,-10.33863 -6.08616,-20.28507 -11.96484,-29.22656 l -9.50781,6.25586 c -5.06663,-7.70631 -11.72818,-14.54604 -19.87891,-19.99219 l 6.32227,-9.46094 c -9.45715,-6.31906 -19.74729,-10.42229 -30.25782,-12.43164 z m -15.63476,46.7168 a 34.209883,34.209883 0 0 1 0.12695,0 34.209883,34.209883 0 0 1 34.20899,34.20899 34.209883,34.209883 0 0 1 -34.20899,34.20898 34.209883,34.209883 0 0 1 -34.21094,-34.20898 34.209883,34.209883 0 0 1 34.08399,-34.20899 z"
       style="fill:#808080;stroke:#000000;stroke-width:5;stroke-miterlimit:4;stroke-dasharray:none;stroke-dashoffset:0"
       id="path946" />
    <circle
       r="11.96321"
       cy="125.63004"
       cx="85.405983"
       id="path949"
       style="fill:none;stroke:#000000;stroke-width:0.596772;stroke-miterlimit:4;stroke-dasharray:none;stroke-dashoffset:0" />
  </g>
</svg>
