<?xml version="1.0" encoding="UTF-8" standalone="no"?>
<!-- Created with Inkscape (http://www.inkscape.org/) -->

<svg
   xmlns:dc="http://purl.org/dc/elements/1.1/"
   xmlns:cc="http://creativecommons.org/ns#"
   xmlns:rdf="http://www.w3.org/1999/02/22-rdf-syntax-ns#"
   xmlns:svg="http://www.w3.org/2000/svg"
   xmlns="http://www.w3.org/2000/svg"
   xmlns:xlink="http://www.w3.org/1999/xlink"
   xmlns:sodipodi="http://sodipodi.sourceforge.net/DTD/sodipodi-0.dtd"
   xmlns:inkscape="http://www.inkscape.org/namespaces/inkscape"
   width="110.10367mm"
   height="41.908913mm"
   viewBox="0 0 110.10366 41.908913"
   version="1.1"
   id="svg8"
   inkscape:export-filename="C:\Bitnami\wampstack-7.3.11-0\apache2\htdocs\BatallaNaval\imagen\logo.png"
   inkscape:export-xdpi="96"
   inkscape:export-ydpi="96"
   inkscape:version="0.92.4 (5da689c313, 2019-01-14)"
   sodipodi:docname="logo_v1.svg">
  <defs
     id="defs2">
    <linearGradient
       inkscape:collect="always"
       id="linearGradient886">
      <stop
         style="stop-color:#000030;stop-opacity:1"
         offset="0"
         id="stop882" />
      <stop
         id="stop890"
         offset="0.2901549"
         style="stop-color:#000083;stop-opacity:1;" />
      <stop
         style="stop-color:#0daaff;stop-opacity:1"
         offset="0.59226269"
         id="stop894" />
      <stop
         style="stop-color:#0000d6;stop-opacity:1"
         offset="1"
         id="stop884" />
    </linearGradient>
    <linearGradient
       inkscape:collect="always"
       id="linearGradient865">
      <stop
         style="stop-color:#570000;stop-opacity:1"
         offset="0"
         id="stop861" />
      <stop
         id="stop869"
         offset="0.3047944"
         style="stop-color:#cc0000;stop-opacity:1" />
      <stop
         style="stop-color:#d04800;stop-opacity:1"
         offset="0.68386245"
         id="stop892" />
      <stop
         style="stop-color:#f90000;stop-opacity:1"
         offset="1"
         id="stop863" />
    </linearGradient>
    <linearGradient
       inkscape:collect="always"
       xlink:href="#linearGradient865"
       id="linearGradient867"
       x1="92.017578"
       y1="52.408203"
       x2="229.10742"
       y2="79.068359"
       gradientUnits="userSpaceOnUse" />
    <linearGradient
       inkscape:collect="always"
       xlink:href="#linearGradient886"
       id="linearGradient888"
       x1="118.63867"
       y1="79.068359"
       x2="204.75195"
       y2="52.408203"
       gradientUnits="userSpaceOnUse" />
    <linearGradient
       inkscape:collect="always"
       xlink:href="#linearGradient865"
       id="linearGradient966"
       gradientUnits="userSpaceOnUse"
       x1="92.017578"
       y1="52.408203"
       x2="229.10742"
       y2="79.068359" />
    <linearGradient
       inkscape:collect="always"
       xlink:href="#linearGradient865"
       id="linearGradient968"
       gradientUnits="userSpaceOnUse"
       x1="92.017578"
       y1="52.408203"
       x2="229.10742"
       y2="79.068359" />
    <linearGradient
       inkscape:collect="always"
       xlink:href="#linearGradient865"
       id="linearGradient970"
       gradientUnits="userSpaceOnUse"
       x1="92.017578"
       y1="52.408203"
       x2="229.10742"
       y2="79.068359" />
    <linearGradient
       inkscape:collect="always"
       xlink:href="#linearGradient865"
       id="linearGradient972"
       gradientUnits="userSpaceOnUse"
       x1="92.017578"
       y1="52.408203"
       x2="229.10742"
       y2="79.068359" />
    <linearGradient
       inkscape:collect="always"
       xlink:href="#linearGradient865"
       id="linearGradient974"
       gradientUnits="userSpaceOnUse"
       x1="92.017578"
       y1="52.408203"
       x2="229.10742"
       y2="79.068359" />
    <linearGradient
       inkscape:collect="always"
       xlink:href="#linearGradient865"
       id="linearGradient976"
       gradientUnits="userSpaceOnUse"
       x1="92.017578"
       y1="52.408203"
       x2="229.10742"
       y2="79.068359" />
    <linearGradient
       inkscape:collect="always"
       xlink:href="#linearGradient865"
       id="linearGradient978"
       gradientUnits="userSpaceOnUse"
       x1="92.017578"
       y1="52.408203"
       x2="229.10742"
       y2="79.068359" />
    <linearGradient
       inkscape:collect="always"
       xlink:href="#linearGradient886"
       id="linearGradient980"
       gradientUnits="userSpaceOnUse"
       x1="118.63867"
       y1="79.068359"
       x2="204.75195"
       y2="52.408203" />
    <linearGradient
       inkscape:collect="always"
       xlink:href="#linearGradient886"
       id="linearGradient982"
       gradientUnits="userSpaceOnUse"
       x1="118.63867"
       y1="79.068359"
       x2="204.75195"
       y2="52.408203" />
    <linearGradient
       inkscape:collect="always"
       xlink:href="#linearGradient886"
       id="linearGradient984"
       gradientUnits="userSpaceOnUse"
       x1="118.63867"
       y1="79.068359"
       x2="204.75195"
       y2="52.408203" />
    <linearGradient
       inkscape:collect="always"
       xlink:href="#linearGradient886"
       id="linearGradient986"
       gradientUnits="userSpaceOnUse"
       x1="118.63867"
       y1="79.068359"
       x2="204.75195"
       y2="52.408203" />
    <linearGradient
       inkscape:collect="always"
       xlink:href="#linearGradient886"
       id="linearGradient988"
       gradientUnits="userSpaceOnUse"
       x1="118.63867"
       y1="79.068359"
       x2="204.75195"
       y2="52.408203" />
  </defs>
  <sodipodi:namedview
     id="base"
     pagecolor="#ffffff"
     bordercolor="#666666"
     borderopacity="1.0"
     inkscape:pageopacity="0.0"
     inkscape:pageshadow="2"
     inkscape:zoom="0.98994949"
     inkscape:cx="265.70059"
     inkscape:cy="81.448667"
     inkscape:document-units="mm"
     inkscape:current-layer="layer1"
     showgrid="false"
     showguides="false"
     inkscape:guide-bbox="true"
     inkscape:snap-global="false"
     fit-margin-top="0"
     fit-margin-left="0"
     fit-margin-right="0"
     fit-margin-bottom="0"
     inkscape:window-width="1366"
     inkscape:window-height="745"
     inkscape:window-x="-8"
     inkscape:window-y="-8"
     inkscape:window-maximized="1">
    <sodipodi:guide
       position="95.184167,42.708713"
       orientation="1,0"
       id="guide831"
       inkscape:locked="false" />
  </sodipodi:namedview>
  <metadata
     id="metadata5">
    <rdf:RDF>
      <cc:Work
         rdf:about="">
        <dc:format>image/svg+xml</dc:format>
        <dc:type
           rdf:resource="http://purl.org/dc/dcmitype/StillImage" />
        <dc:title></dc:title>
      </cc:Work>
    </rdf:RDF>
  </metadata>
  <g
     inkscape:label="Capa 1"
     inkscape:groupmode="layer"
     id="layer1"
     transform="translate(-21.078068,-14.761365)">
    <g
       aria-label="Batalla"
       transform="matrix(0.74130009,0,-0.32933342,0.74130009,-19.260423,-23.340502)"
       style="font-style:normal;font-weight:normal;font-size:40px;line-height:1.25;font-family:sans-serif;letter-spacing:0px;word-spacing:0px;fill:url(#linearGradient867);fill-opacity:1;stroke:#000000;stroke-width:1.78458989;stroke-miterlimit:4;stroke-dasharray:none;stroke-opacity:1"
       id="flowRoot815">
      <path
         d="m 90.923828,79.068359 q 0.410156,-4.296875 0.546875,-6.757812 0.195313,-3.359375 0.371094,-9.21875 0.195312,-5.859375 0.195312,-8.261719 0,-0.859375 -0.01953,-2.421875 2.597656,0.05859 4.121094,0.05859 2.128906,0 4.960937,-0.07813 2.83203,-0.09766 4.86328,-0.09766 2.44141,0 3.47656,0.136718 1.36719,0.175782 2.38282,0.625 1.03515,0.449219 1.71875,1.113282 0.76171,0.78125 1.1914,1.875 0.48828,1.25 0.48828,2.675781 0,1.113281 -0.29297,2.128906 -0.27343,1.015625 -0.80078,1.816406 -0.50781,0.78125 -1.15234,1.308594 -0.64453,0.527344 -1.26953,0.820313 -0.60547,0.292968 -1.64063,0.585937 1.03516,0.175781 1.66016,0.410156 0.625,0.214844 1.32812,0.722657 0.72266,0.488281 1.28907,1.269531 0.5664,0.78125 0.83984,1.757812 0.29297,0.957032 0.29297,2.03125 0,1.484375 -0.48828,2.792969 -0.48828,1.308594 -1.36719,2.246094 -0.74219,0.800781 -1.93359,1.367187 -1.19141,0.566407 -2.44141,0.78125 -1.01562,0.15625 -3.71094,0.234375 -2.67578,0.07813 -5.68359,0.07813 l -5.136718,-0.01953 z m 8.710938,-16.269531 h 2.773434 q 1.36719,0 1.9336,-0.05859 0.58593,-0.07813 1.13281,-0.253906 0.54687,-0.175781 0.9375,-0.585937 0.41016,-0.410157 0.56641,-0.917969 0.17578,-0.507813 0.17578,-1.015625 0,-0.722656 -0.35157,-1.289063 -0.33203,-0.566406 -1.09375,-0.839843 -0.76171,-0.273438 -2.32421,-0.273438 h -3.515629 z m -0.449219,10.917969 h 3.750003 q 1.48437,0 2.1875,-0.175781 0.85937,-0.214844 1.30859,-0.566407 0.44922,-0.351562 0.70313,-0.957031 0.27343,-0.605469 0.27343,-1.347656 0,-0.644531 -0.21484,-1.132813 -0.21484,-0.488281 -0.64453,-0.820312 -0.42969,-0.332031 -1.05469,-0.46875 -0.625,-0.15625 -1.95312,-0.15625 h -4.121098 z"
         style="font-style:normal;font-variant:normal;font-weight:normal;font-stretch:normal;font-family:'Eras Bold ITC';-inkscape-font-specification:'Eras Bold ITC';fill:url(#linearGradient966);fill-opacity:1;stroke:#000000;stroke-width:1.78458989;stroke-miterlimit:4;stroke-dasharray:none;stroke-opacity:1"
         id="path846"
         inkscape:connector-curvature="0" />
      <path
         d="m 120.80664,64.810547 q 0.37109,-1.933594 0.46875,-2.65625 0.0977,-0.742188 0.3125,-2.304688 5.625,-1.230468 9.66797,-1.230468 2.30469,0 4.21875,0.527343 1.91406,0.507813 2.98828,1.660157 1.07422,1.152343 1.07422,3.300781 0,1.09375 -0.29297,4.921875 -0.29297,3.828125 -0.44922,10.039062 -1.91406,-0.03906 -3.80859,-0.03906 -1.83594,0 -3.90625,0.03906 0.27344,-2.148437 0.60547,-8.867187 -0.74219,0.351562 -1.17188,0.507812 -0.41015,0.15625 -1.46484,0.46875 -1.05469,0.3125 -1.66016,0.527344 -0.58594,0.214844 -1.03515,0.546875 -0.42969,0.332031 -0.625,0.683594 -0.17579,0.351562 -0.17579,0.78125 0,0.664062 0.52735,1.132812 0.52734,0.46875 1.67969,0.46875 0.41015,0 0.8789,-0.05859 0.46875,-0.07813 1.28906,-0.351563 -0.5664,1.503906 -1.34765,4.394531 -1.67969,0.273438 -3.1836,0.273438 -2.42187,0 -4.04296,-0.664063 -1.60157,-0.683593 -2.48047,-2.1875 -0.85938,-1.503906 -0.85938,-3.007812 0,-0.917969 0.3125,-1.796875 0.33203,-0.878906 1.01563,-1.71875 0.68359,-0.839844 1.60156,-1.425781 0.91797,-0.605469 2.5,-1.132813 1.60156,-0.527344 4.04297,-0.996094 1.01562,-0.195312 1.85547,-0.410156 0.85937,-0.234375 1.21093,-0.390625 0.3711,-0.175781 0.58594,-0.390625 0.23438,-0.234375 0.33203,-0.46875 0.0977,-0.253906 0.0977,-0.527344 0,-0.742187 -0.625,-1.132812 -0.625,-0.410156 -1.83594,-0.410156 -3.35937,0 -8.30078,1.894531 z"
         style="font-style:normal;font-variant:normal;font-weight:normal;font-stretch:normal;font-family:'Eras Bold ITC';-inkscape-font-specification:'Eras Bold ITC';fill:url(#linearGradient968);fill-opacity:1;stroke:#000000;stroke-width:1.78458989;stroke-miterlimit:4;stroke-dasharray:none;stroke-opacity:1"
         id="path848"
         inkscape:connector-curvature="0" />
      <path
         d="m 157.7207,73.326172 q -0.35156,1.640625 -0.60547,3.203125 l -0.42968,2.382812 q -1.9336,0.429688 -3.02735,0.546875 -1.07422,0.117188 -2.08984,0.117188 -1.66016,0 -2.94922,-0.292969 -1.28906,-0.273437 -2.14844,-1.015625 -0.85937,-0.761719 -1.17187,-1.738281 -0.3125,-0.976563 -0.3125,-2.070313 0,-0.195312 0.0195,-0.683593 0.0195,-0.507813 0.13672,-2.226563 l 0.42969,-6.757812 h -3.04688 q 0.0977,-1.347657 0.17578,-3.554688 l 0.0586,-1.816406 h 3.24218 q 0.11719,-0.898438 0.29297,-3.925781 l 3.33985,-0.683594 q 0.91796,-0.175781 3.90625,-0.898438 -0.13672,2.558594 -0.19532,5.507813 h 4.45313 q -0.15625,4.0625 -0.15625,5.371094 h -4.49219 l -0.23437,4.882812 q -0.0391,1.09375 -0.0391,1.40625 0,0.9375 0.19532,1.5625 0.21484,0.625 0.72265,0.898438 0.52735,0.273437 1.15235,0.273437 0.46875,0 0.97656,-0.05859 0.50781,-0.07813 1.79687,-0.429687 z"
         style="font-style:normal;font-variant:normal;font-weight:normal;font-stretch:normal;font-family:'Eras Bold ITC';-inkscape-font-specification:'Eras Bold ITC';fill:url(#linearGradient970);fill-opacity:1;stroke:#000000;stroke-width:1.78458989;stroke-miterlimit:4;stroke-dasharray:none;stroke-opacity:1"
         id="path850"
         inkscape:connector-curvature="0" />
      <path
         d="m 162.05664,64.810547 q 0.37109,-1.933594 0.46875,-2.65625 0.0977,-0.742188 0.3125,-2.304688 5.625,-1.230468 9.66797,-1.230468 2.30469,0 4.21875,0.527343 1.91406,0.507813 2.98828,1.660157 1.07422,1.152343 1.07422,3.300781 0,1.09375 -0.29297,4.921875 -0.29297,3.828125 -0.44922,10.039062 -1.91406,-0.03906 -3.80859,-0.03906 -1.83594,0 -3.90625,0.03906 0.27344,-2.148437 0.60547,-8.867187 -0.74219,0.351562 -1.17188,0.507812 -0.41015,0.15625 -1.46484,0.46875 -1.05469,0.3125 -1.66016,0.527344 -0.58594,0.214844 -1.03515,0.546875 -0.42969,0.332031 -0.625,0.683594 -0.17579,0.351562 -0.17579,0.78125 0,0.664062 0.52735,1.132812 0.52734,0.46875 1.67969,0.46875 0.41015,0 0.8789,-0.05859 0.46875,-0.07813 1.28906,-0.351563 -0.5664,1.503906 -1.34765,4.394531 -1.67969,0.273438 -3.1836,0.273438 -2.42187,0 -4.04296,-0.664063 -1.60157,-0.683593 -2.48047,-2.1875 -0.85938,-1.503906 -0.85938,-3.007812 0,-0.917969 0.3125,-1.796875 0.33203,-0.878906 1.01563,-1.71875 0.68359,-0.839844 1.60156,-1.425781 0.91797,-0.605469 2.5,-1.132813 1.60156,-0.527344 4.04297,-0.996094 1.01562,-0.195312 1.85547,-0.410156 0.85937,-0.234375 1.21093,-0.390625 0.3711,-0.175781 0.58594,-0.390625 0.23438,-0.234375 0.33203,-0.46875 0.0977,-0.253906 0.0977,-0.527344 0,-0.742187 -0.625,-1.132812 -0.625,-0.410156 -1.83594,-0.410156 -3.35937,0 -8.30078,1.894531 z"
         style="font-style:normal;font-variant:normal;font-weight:normal;font-stretch:normal;font-family:'Eras Bold ITC';-inkscape-font-specification:'Eras Bold ITC';fill:url(#linearGradient972);fill-opacity:1;stroke:#000000;stroke-width:1.78458989;stroke-miterlimit:4;stroke-dasharray:none;stroke-opacity:1"
         id="path852"
         inkscape:connector-curvature="0" />
      <path
         d="m 184.40039,79.048828 0.35156,-4.199219 0.76172,-14.589843 0.21485,-7.851563 q 2.71484,0.03906 4.08203,0.03906 1.77734,0 3.92578,-0.03906 l -0.44922,5.996094 -0.72266,14.765625 -0.15625,5.898437 q -2.08984,-0.03906 -3.76953,-0.03906 z"
         style="font-style:normal;font-variant:normal;font-weight:normal;font-stretch:normal;font-family:'Eras Bold ITC';-inkscape-font-specification:'Eras Bold ITC';fill:url(#linearGradient974);fill-opacity:1;stroke:#000000;stroke-width:1.78458989;stroke-miterlimit:4;stroke-dasharray:none;stroke-opacity:1"
         id="path854"
         inkscape:connector-curvature="0" />
      <path
         d="m 196.82227,79.048828 0.35156,-4.199219 0.76172,-14.589843 0.21484,-7.851563 q 2.71484,0.03906 4.08203,0.03906 1.77735,0 3.92578,-0.03906 l -0.44922,5.996094 -0.72265,14.765625 -0.15625,5.898437 q -2.08985,-0.03906 -3.76953,-0.03906 z"
         style="font-style:normal;font-variant:normal;font-weight:normal;font-stretch:normal;font-family:'Eras Bold ITC';-inkscape-font-specification:'Eras Bold ITC';fill:url(#linearGradient976);fill-opacity:1;stroke:#000000;stroke-width:1.78458989;stroke-miterlimit:4;stroke-dasharray:none;stroke-opacity:1"
         id="path856"
         inkscape:connector-curvature="0" />
      <path
         d="m 211.11914,64.810547 q 0.37109,-1.933594 0.46875,-2.65625 0.0977,-0.742188 0.3125,-2.304688 5.625,-1.230468 9.66797,-1.230468 2.30469,0 4.21875,0.527343 1.91406,0.507813 2.98828,1.660157 1.07422,1.152343 1.07422,3.300781 0,1.09375 -0.29297,4.921875 -0.29297,3.828125 -0.44922,10.039062 -1.91406,-0.03906 -3.80859,-0.03906 -1.83594,0 -3.90625,0.03906 0.27344,-2.148437 0.60547,-8.867187 -0.74219,0.351562 -1.17188,0.507812 -0.41015,0.15625 -1.46484,0.46875 -1.05469,0.3125 -1.66016,0.527344 -0.58594,0.214844 -1.03515,0.546875 -0.42969,0.332031 -0.625,0.683594 -0.17579,0.351562 -0.17579,0.78125 0,0.664062 0.52735,1.132812 0.52734,0.46875 1.67969,0.46875 0.41015,0 0.8789,-0.05859 0.46875,-0.07813 1.28906,-0.351563 -0.5664,1.503906 -1.34765,4.394531 -1.67969,0.273438 -3.1836,0.273438 -2.42187,0 -4.04296,-0.664063 -1.60157,-0.683593 -2.48047,-2.1875 -0.85938,-1.503906 -0.85938,-3.007812 0,-0.917969 0.3125,-1.796875 0.33203,-0.878906 1.01563,-1.71875 0.68359,-0.839844 1.60156,-1.425781 0.91797,-0.605469 2.5,-1.132813 1.60156,-0.527344 4.04297,-0.996094 1.01562,-0.195312 1.85547,-0.410156 0.85937,-0.234375 1.21093,-0.390625 0.3711,-0.175781 0.58594,-0.390625 0.23438,-0.234375 0.33203,-0.46875 0.0977,-0.253906 0.0977,-0.527344 0,-0.742187 -0.625,-1.132812 -0.625,-0.410156 -1.83594,-0.410156 -3.35937,0 -8.30078,1.894531 z"
         style="font-style:normal;font-variant:normal;font-weight:normal;font-stretch:normal;font-family:'Eras Bold ITC';-inkscape-font-specification:'Eras Bold ITC';fill:url(#linearGradient978);fill-opacity:1;stroke:#000000;stroke-width:1.78458989;stroke-miterlimit:4;stroke-dasharray:none;stroke-opacity:1"
         id="path858"
         inkscape:connector-curvature="0" />
    </g>
    <g
       aria-label="Naval"
       transform="matrix(0.74130009,0,0.41832955,0.74130009,-68.178155,-2.9810074)"
       style="font-style:normal;font-weight:normal;font-size:40px;line-height:1.25;font-family:sans-serif;letter-spacing:0px;word-spacing:0px;fill:url(#linearGradient888);fill-opacity:1;stroke:#000000;stroke-width:1.78458989;stroke-miterlimit:4;stroke-dasharray:none;stroke-opacity:1"
       id="flowRoot829">
      <path
         d="m 90.865234,79.068359 0.390625,-4.101562 0.761719,-13.90625 0.214844,-5.605469 v -3.046875 q 3.027344,0.03906 5.351562,0.03906 1.660157,0 4.667966,-0.03906 l 8.35938,15.15625 1.15234,2.226563 q 0.21485,-3.28125 0.42969,-9.199219 0.23437,-5.917969 0.23437,-8.183594 2.40235,0.03906 3.84766,0.03906 0.66406,0 3.82813,-0.03906 l -0.46875,5.820313 -0.87891,16.171875 -0.11719,4.667968 q -2.53906,-0.03906 -4.74609,-0.03906 -1.83594,0 -5.07813,0.03906 -1.01562,-1.914062 -1.5039,-2.773437 l -3.28125,-5.566406 q -1.6211,-2.734375 -2.98828,-5.234375 -0.89844,-1.582032 -1.855473,-3.476563 l -0.410156,9.257813 -0.195313,7.792968 q -2.421875,-0.03906 -3.691406,-0.03906 -1.074219,0 -4.023438,0.03906 z"
         style="font-style:normal;font-variant:normal;font-weight:normal;font-stretch:normal;font-family:'Eras Bold ITC';-inkscape-font-specification:'Eras Bold ITC';fill:url(#linearGradient980);fill-opacity:1;stroke:#000000;stroke-width:1.78458989;stroke-miterlimit:4;stroke-dasharray:none;stroke-opacity:1"
         id="path871"
         inkscape:connector-curvature="0" />
      <path
         d="m 125.25977,64.810547 q 0.37109,-1.933594 0.46875,-2.65625 0.0977,-0.742188 0.3125,-2.304688 5.625,-1.230468 9.66796,-1.230468 2.30469,0 4.21875,0.527343 1.91407,0.507813 2.98829,1.660157 1.07421,1.152343 1.07421,3.300781 0,1.09375 -0.29296,4.921875 -0.29297,3.828125 -0.44922,10.039062 -1.91407,-0.03906 -3.8086,-0.03906 -1.83593,0 -3.90625,0.03906 0.27344,-2.148437 0.60547,-8.867187 -0.74219,0.351562 -1.17187,0.507812 -0.41016,0.15625 -1.46485,0.46875 -1.05468,0.3125 -1.66015,0.527344 -0.58594,0.214844 -1.03516,0.546875 -0.42969,0.332031 -0.625,0.683594 -0.17578,0.351562 -0.17578,0.78125 0,0.664062 0.52734,1.132812 0.52735,0.46875 1.67969,0.46875 0.41016,0 0.87891,-0.05859 0.46875,-0.07813 1.28906,-0.351563 -0.56641,1.503906 -1.34766,4.394531 -1.67968,0.273438 -3.18359,0.273438 -2.42188,0 -4.04297,-0.664063 -1.60156,-0.683593 -2.48047,-2.1875 -0.85937,-1.503906 -0.85937,-3.007812 0,-0.917969 0.3125,-1.796875 0.33203,-0.878906 1.01562,-1.71875 0.6836,-0.839844 1.60156,-1.425781 0.91797,-0.605469 2.5,-1.132813 1.60157,-0.527344 4.04297,-0.996094 1.01563,-0.195312 1.85547,-0.410156 0.85938,-0.234375 1.21094,-0.390625 0.37109,-0.175781 0.58594,-0.390625 0.23437,-0.234375 0.33203,-0.46875 0.0976,-0.253906 0.0976,-0.527344 0,-0.742187 -0.625,-1.132812 -0.625,-0.410156 -1.83593,-0.410156 -3.35938,0 -8.30078,1.894531 z"
         style="font-style:normal;font-variant:normal;font-weight:normal;font-stretch:normal;font-family:'Eras Bold ITC';-inkscape-font-specification:'Eras Bold ITC';fill:url(#linearGradient982);fill-opacity:1;stroke:#000000;stroke-width:1.78458989;stroke-miterlimit:4;stroke-dasharray:none;stroke-opacity:1"
         id="path873"
         inkscape:connector-curvature="0" />
      <path
         d="m 153.01367,79.068359 -2.07031,-6.40625 -4.66797,-13.535156 q 2.22656,0.03906 4.14063,0.03906 1.99218,0 3.75,-0.03906 0.33203,1.347656 1.30859,4.726563 0.97656,3.359375 2.14844,8.007812 l 0.50781,-1.621094 q 0.11719,-0.292968 0.91797,-2.5 l 3.10547,-8.613281 q 2.10937,0.03906 3.98437,0.03906 1.9336,0 4.02344,-0.03906 l -2.69531,5.800781 -5.01953,11.523438 -1.07422,2.617187 q -2.30469,-0.03906 -4.0625,-0.03906 -1.91407,0 -4.29688,0.03906 z"
         style="font-style:normal;font-variant:normal;font-weight:normal;font-stretch:normal;font-family:'Eras Bold ITC';-inkscape-font-specification:'Eras Bold ITC';fill:url(#linearGradient984);fill-opacity:1;stroke:#000000;stroke-width:1.78458989;stroke-miterlimit:4;stroke-dasharray:none;stroke-opacity:1"
         id="path875"
         inkscape:connector-curvature="0" />
      <path
         d="m 173.07227,64.810547 q 0.37109,-1.933594 0.46875,-2.65625 0.0976,-0.742188 0.3125,-2.304688 5.625,-1.230468 9.66796,-1.230468 2.30469,0 4.21875,0.527343 1.91407,0.507813 2.98829,1.660157 1.07421,1.152343 1.07421,3.300781 0,1.09375 -0.29296,4.921875 -0.29297,3.828125 -0.44922,10.039062 -1.91407,-0.03906 -3.8086,-0.03906 -1.83593,0 -3.90625,0.03906 0.27344,-2.148437 0.60547,-8.867187 -0.74219,0.351562 -1.17187,0.507812 -0.41016,0.15625 -1.46485,0.46875 -1.05468,0.3125 -1.66015,0.527344 -0.58594,0.214844 -1.03516,0.546875 -0.42969,0.332031 -0.625,0.683594 -0.17578,0.351562 -0.17578,0.78125 0,0.664062 0.52734,1.132812 0.52735,0.46875 1.67969,0.46875 0.41016,0 0.87891,-0.05859 0.46875,-0.07813 1.28906,-0.351563 -0.56641,1.503906 -1.34766,4.394531 -1.67968,0.273438 -3.18359,0.273438 -2.42188,0 -4.04297,-0.664063 -1.60156,-0.683593 -2.48047,-2.1875 -0.85937,-1.503906 -0.85937,-3.007812 0,-0.917969 0.3125,-1.796875 0.33203,-0.878906 1.01562,-1.71875 0.6836,-0.839844 1.60156,-1.425781 0.91797,-0.605469 2.5,-1.132813 1.60157,-0.527344 4.04297,-0.996094 1.01563,-0.195312 1.85547,-0.410156 0.85938,-0.234375 1.21094,-0.390625 0.37109,-0.175781 0.58594,-0.390625 0.23437,-0.234375 0.33203,-0.46875 0.0976,-0.253906 0.0976,-0.527344 0,-0.742187 -0.625,-1.132812 -0.625,-0.410156 -1.83593,-0.410156 -3.35938,0 -8.30078,1.894531 z"
         style="font-style:normal;font-variant:normal;font-weight:normal;font-stretch:normal;font-family:'Eras Bold ITC';-inkscape-font-specification:'Eras Bold ITC';fill:url(#linearGradient986);fill-opacity:1;stroke:#000000;stroke-width:1.78458989;stroke-miterlimit:4;stroke-dasharray:none;stroke-opacity:1"
         id="path877"
         inkscape:connector-curvature="0" />
      <path
         d="m 195.41602,79.048828 0.35156,-4.199219 0.76172,-14.589843 0.21484,-7.851563 q 2.71484,0.03906 4.08203,0.03906 1.77735,0 3.92578,-0.03906 l -0.44922,5.996094 -0.72265,14.765625 -0.15625,5.898437 q -2.08985,-0.03906 -3.76953,-0.03906 z"
         style="font-style:normal;font-variant:normal;font-weight:normal;font-stretch:normal;font-family:'Eras Bold ITC';-inkscape-font-specification:'Eras Bold ITC';fill:url(#linearGradient988);fill-opacity:1;stroke:#000000;stroke-width:1.78458989;stroke-miterlimit:4;stroke-dasharray:none;stroke-opacity:1"
         id="path879"
         inkscape:connector-curvature="0" />
    </g>
    <path
       inkscape:connector-curvature="0"
       id="path940"
       d="m 88.613068,41.014607 c -2.57733,-0.09969 -6.244671,-0.239879 -8.149653,-0.311526 -3.905268,-0.14687 -5.116974,-0.195176 -13.487668,-0.537704 -7.140255,-0.292179 -10.901241,-0.489672 -18.602086,-0.976799 -1.401,-0.08863 -2.634279,-0.161134 -2.740619,-0.161134 -0.142551,0 -0.220563,-0.06958 -0.296945,-0.264861 -0.05698,-0.145676 -0.207908,-0.508896 -0.335396,-0.807165 -0.307726,-0.719938 -0.206985,-1.314502 0.160466,-0.947051 0.07878,0.07878 0.133543,0.07878 0.259683,0 0.08792,-0.05491 0.211385,-0.09983 0.274369,-0.09983 0.06298,0 0.138751,-0.09657 0.168373,-0.214587 0.05118,-0.203923 0.07358,-0.212252 0.450843,-0.167571 0.218343,0.02587 0.474252,0.09492 0.568688,0.153464 0.129386,0.08021 0.186346,0.08295 0.231121,0.01109 0.08815,-0.141458 0.995062,-0.119058 0.995062,0.02458 0,0.06134 0.07335,0.111524 0.162993,0.111524 0.273464,0 0.206774,-0.303419 -0.08056,-0.366529 -0.419651,-0.09217 -0.396197,-0.232841 0.02821,-0.169198 0.252701,0.0379 0.378338,0.02735 0.378338,-0.03177 0,-0.04868 0.09168,-0.123364 0.203742,-0.165969 0.112057,-0.0426 0.20374,-0.110458 0.20374,-0.150787 0,-0.04033 0.110021,-0.09533 0.24449,-0.122225 0.175066,-0.03501 0.24449,-0.09576 0.24449,-0.213928 0,-0.108783 0.05368,-0.16503 0.1575,-0.16503 0.08663,0 0.180781,-0.07335 0.209234,-0.162994 0.03641,-0.114697 0.123307,-0.162994 0.293287,-0.162994 0.345322,0 0.38632,-0.201919 0.104407,-0.514218 l -0.234701,-0.259998 0.256573,0.23142 c 0.216818,0.195561 0.283113,0.217214 0.427856,0.139751 0.09421,-0.05041 0.171284,-0.164876 0.171284,-0.254352 0,-0.08948 0.05501,-0.183791 0.122245,-0.209591 0.122876,-0.04715 0.175352,-0.353885 0.06112,-0.357271 -0.03362,-9.31e-4 -0.148017,-0.06864 -0.254222,-0.15031 l -0.1931,-0.148498 0.1931,-0.338041 c 0.163075,-0.28548 0.233686,-0.338139 0.454129,-0.338669 0.459294,-0.0012 0.658349,-0.148077 0.760999,-0.561887 0.153635,-0.619341 0.185953,-0.987174 0.08674,-0.987174 -0.04953,0 -0.09006,-0.03667 -0.09006,-0.08149 0,-0.04483 0.0745,-0.0815 0.165551,-0.0815 0.203543,0 0.216526,-0.04074 0.277407,-0.870623 l 0.04892,-0.666878 -0.24594,-0.145283 c -0.320217,-0.189157 -0.312608,-0.337871 0.01892,-0.369837 l 0.264864,-0.02554 0.02322,-0.884684 c 0.01529,-0.582437 -0.009,-0.923512 -0.0711,-0.998333 -0.06834,-0.08234 -0.06912,-0.113647 -0.0029,-0.113647 0.05031,0 0.09147,-0.09168 0.09147,-0.203741 0,-0.187827 -0.03024,-0.204244 -0.387108,-0.210176 -0.21291,-0.0036 -0.332099,-0.02456 -0.264864,-0.04671 0.365047,-0.120264 0.496367,-0.242115 0.574785,-0.53334 0.04647,-0.172558 0.06909,-0.3404 0.05029,-0.372983 -0.01881,-0.03258 -0.0047,-0.132589 0.03138,-0.222235 0.06271,-0.155872 0.06582,-0.155123 0.0713,0.01715 0.0031,0.09908 0.06828,0.383295 0.144744,0.631597 l 0.139017,0.451459 0.655574,0.01659 0.655575,0.01659 -0.664306,0.02733 c -0.799668,0.0329 -0.785185,0.0069 -0.719986,1.291681 0.04769,0.939832 0.121239,1.174209 0.368452,1.174209 0.08807,0 0.160127,0.03667 0.160127,0.08149 0,0.04483 -0.114298,0.0815 -0.253995,0.0815 -0.211041,0 -0.247019,0.02668 -0.21275,0.157721 0.02268,0.08675 -0.0152,0.238307 -0.08419,0.336805 -0.106374,0.151868 -0.11823,0.407786 -0.07802,1.684007 0.02608,0.827707 0.0659,1.523397 0.08848,1.545977 0.02258,0.02258 0.230033,0.01506 0.461002,-0.01669 0.379096,-0.05214 0.415215,-0.07475 0.371315,-0.23248 -0.14565,-0.523307 -0.145539,-0.525177 0.03433,-0.582265 0.15784,-0.05009 0.174021,-0.103852 0.149525,-0.496775 -0.0195,-0.312836 0.002,-0.440565 0.0744,-0.440485 0.05603,6.2e-5 0.101871,0.09396 0.101871,0.208661 0,0.114703 0.03414,0.187451 0.07586,0.161663 0.113163,-0.06994 0.206536,0.129202 0.179854,0.383579 -0.01396,0.133082 0.01622,0.224166 0.07428,0.224166 0.07265,0 0.08994,-0.275146 0.06727,-1.069929 l -0.03053,-1.069929 0.220736,-0.165908 c 0.1353,-0.101692 0.39193,-0.180104 0.66304,-0.202586 0.364705,-0.03025 0.48501,-0.0051 0.685718,0.143283 0.227257,0.168018 0.238605,0.201367 0.170962,0.502424 -0.03985,0.177354 -0.06161,0.531476 -0.04835,0.786941 0.02296,0.442554 0.03499,0.465739 0.254759,0.491128 0.205937,0.02378 0.225705,0.05142 0.184437,0.257756 -0.02975,0.148743 -0.0048,0.265481 0.06999,0.327556 0.09355,0.07764 0.165781,0.04325 0.370323,-0.17626 0.13976,-0.149989 0.279622,-0.337887 0.310804,-0.41755 0.05316,-0.135811 0.06786,-0.13444 0.235799,0.02203 l 0.179102,0.166859 0.171619,-0.171618 c 0.159504,-0.159504 0.169939,-0.245583 0.147827,-1.219472 -0.02057,-0.905903 -0.0044,-1.069258 0.119166,-1.205824 0.143227,-0.158263 0.929278,-0.421745 1.258207,-0.421745 0.09633,0 0.216016,-0.07635 0.265959,-0.169672 0.103876,-0.194091 0.0073,-0.29659 -0.510825,-0.54218 -0.16693,-0.07912 -0.304456,-0.200704 -0.305612,-0.270181 -0.0012,-0.06947 -0.04456,-0.168772 -0.09645,-0.220661 -0.113563,-0.113563 0.02122,-0.311545 0.264696,-0.388821 0.0856,-0.02717 0.155632,-0.120272 0.155632,-0.206899 0,-0.134668 0.05907,-0.157502 0.407483,-0.157502 h 0.407482 V 26.61234 c 0,-0.32855 -0.218721,-0.457148 -0.798425,-0.469435 -0.306853,-0.0065 -0.34265,-0.02052 -0.179533,-0.07028 0.238367,-0.07272 0.12518,-0.140017 -0.325985,-0.193824 -0.156882,-0.01871 0.07233,-0.0151 0.509353,0.008 l 0.79459,0.04204 v -0.69194 -0.691927 l -0.62352,-0.05271 c -0.342935,-0.02899 -0.828858,-0.05311 -1.079828,-0.0536 -0.59476,-0.0012 -1.067532,-0.08154 -1.067532,-0.181478 0,-0.04375 0.06022,-0.05645 0.133814,-0.0282 0.281351,0.107965 2.637066,0.226368 2.637066,0.132545 0,-0.04077 -0.100851,-0.08941 -0.224115,-0.108084 l -0.224115,-0.03395 0.221999,-0.01221 0.222001,-0.01221 -0.0034,-0.728592 c -0.0034,-0.726655 -0.004,-0.728681 -0.222,-0.762006 l -0.218545,-0.03341 0.224115,-0.01221 c 0.179724,-0.0098 0.224116,-0.05148 0.224116,-0.21046 0,-0.126674 -0.05885,-0.216926 -0.162993,-0.249981 -0.182709,-0.05799 -0.228299,-0.4104 -0.06112,-0.472474 0.05723,-0.02125 -0.0052,-0.08602 -0.142618,-0.147801 l -0.24449,-0.109976 0.438516,-0.02661 c 0.526844,-0.03197 0.733196,0.02523 0.593818,0.16461 -0.05237,0.05237 -0.09512,0.325892 -0.09512,0.608551 v 0.513429 h 0.747051 c 0.410878,0 0.723529,0.02352 0.694779,0.05227 -0.02875,0.02875 -0.346586,0.04518 -0.706303,0.03651 -0.41324,-0.01 -0.654031,0.0158 -0.654031,0.06997 0,0.04715 0.03667,0.08574 0.0815,0.08574 0.04483,0 0.0815,0.05501 0.0815,0.122245 0,0.06724 -0.04995,0.122245 -0.11101,0.122245 -0.122077,0 -0.107662,0.413418 0.02674,0.766921 0.05706,0.150084 0.04565,0.208419 -0.04779,0.244276 -0.299338,0.114866 0.05515,0.196467 1.271057,0.292592 0.718245,0.05678 1.305901,0.12077 1.305901,0.142199 0,0.0469 -1.894492,-0.04999 -2.241154,-0.114624 l -0.244489,-0.04558 0.2408,0.25507 c 0.230164,0.243802 0.235287,0.264903 0.115987,0.477684 -0.06865,0.122438 -0.110235,0.286304 -0.09242,0.364146 0.04444,0.194099 0.468667,0.376163 0.958076,0.411168 l 0.407483,0.02915 -0.472652,0.01469 c -0.259959,0.0081 -0.580851,0.07064 -0.713095,0.139027 l -0.240442,0.124338 0.0012,0.833248 c 8.73e-4,0.568087 0.02639,0.794342 0.08025,0.710998 0.04345,-0.06723 0.07956,-0.204758 0.08025,-0.305609 6.99e-4,-0.100852 0.03792,-0.18337 0.08275,-0.18337 0.04482,0 0.0815,0.110021 0.0815,0.244489 0,0.187682 0.03675,0.24449 0.158183,0.24449 0.087,0 0.180849,0.03667 0.208551,0.0815 0.05264,0.08517 0.448231,0.115993 0.448231,0.03493 0,-0.02563 -0.05501,-0.101579 -0.122245,-0.168813 -0.15747,-0.157471 -0.15747,-0.550391 0,-0.68108 0.06724,-0.0558 0.122245,-0.167839 0.122245,-0.248974 0,-0.153106 0.08108,-0.191412 0.584494,-0.276136 0.173562,-0.02921 0.321063,-0.01508 0.351172,0.03364 0.02855,0.0462 0.196442,0.084 0.373087,0.084 0.299496,0 0.321177,0.01583 0.321177,0.23451 0,0.128983 0.05501,0.280164 0.122246,0.335965 0.137115,0.113797 0.166484,0.407483 0.04075,0.407483 -0.04482,0 -0.0815,0.147843 -0.0815,0.328545 0,0.241751 0.03768,0.340203 0.142619,0.37268 0.07844,0.02427 0.207601,0.07895 0.28702,0.121492 0.07942,0.04254 0.306506,0.09957 0.504636,0.126728 0.198129,0.02717 0.379546,0.09969 0.403144,0.161189 0.02359,0.0615 0.117404,0.111813 0.208457,0.111813 0.141879,0 0.16555,0.05245 0.16555,0.366736 0,0.201703 -0.03667,0.366733 -0.0815,0.366733 -0.137999,0 -0.09978,0.813064 0.04075,0.866991 0.08288,0.0318 0.122246,0.161695 0.122246,0.403372 0,0.31226 -0.02526,0.362802 -0.203742,0.407597 -0.153485,0.03852 -0.203433,0.104236 -0.202494,0.266418 0.0012,0.215276 0.123497,0.489068 0.186043,0.416659 0.01824,-0.0211 0.07413,-0.111734 0.124199,-0.201379 0.08843,-0.158334 0.09111,-0.157752 0.09351,0.02036 0.0019,0.139276 0.05019,0.183369 0.200914,0.183369 0.379182,0 0.616529,0.143342 0.616529,0.372345 0,0.144851 -0.05235,0.22708 -0.162994,0.256012 -0.192173,0.05025 -0.205781,0.132174 -0.04815,0.289808 0.06316,0.06317 0.127341,0.203311 0.142618,0.311434 0.0243,0.171995 0.0762,0.199695 0.414882,0.221429 0.212909,0.01365 0.387108,0.0595 0.387108,0.101871 0,0.04237 0.08952,0.07703 0.198931,0.07703 0.109414,0 0.220991,0.03569 0.247952,0.07932 0.02695,0.04362 0.171492,0.137431 0.32118,0.208464 0.247363,0.117379 0.316806,0.117579 0.762145,0.0022 0.598694,-0.15514 0.588702,-0.15506 0.588702,-0.0047 0,0.148745 0.01478,0.14892 0.549884,0.0065 0.270178,-0.07193 0.44573,-0.08458 0.476766,-0.03436 0.06737,0.109005 0.09852,0.09503 -0.904407,0.405882 l -0.896459,0.277857 -0.02529,0.303675 -0.02529,0.303675 h 1.989629 c 2.278286,3e-6 2.991496,0.05135 2.991496,0.215355 0,0.134745 0.009,0.134742 0.582724,-3.08e-4 0.300731,-0.07079 0.508114,-0.08173 0.597781,-0.03155 0.08785,0.04917 0.265206,0.04463 0.492444,-0.0126 0.462674,-0.116505 0.608952,-0.112858 0.608952,0.01518 0,0.06854 -0.482976,0.216032 -1.40108,0.427856 -0.839014,0.19358 -1.468365,0.381958 -1.568807,0.469577 -0.163154,0.142326 -0.153286,0.144846 0.361998,0.09239 0.330873,-0.03368 0.555388,-0.09839 0.598082,-0.172376 0.05823,-0.10091 0.08351,-0.09773 0.170689,0.0215 0.133193,0.182156 0.535209,0.09263 0.594028,-0.132287 0.04892,-0.187041 0.185636,-0.21432 0.185636,-0.03701 0,0.143247 -0.01053,0.14281 0.937207,0.03905 1.127107,-0.123395 4.028079,-0.247464 4.461934,-0.190829 0.38126,0.04977 0.387109,0.05499 0.387038,0.345646 l -7.1e-5,0.295112 1.555889,-0.05538 c 0.85574,-0.03046 2.020147,-0.0948 2.587585,-0.142994 3.144023,-0.267018 9.323353,-0.745725 9.342222,-0.723732 0.09011,0.105044 -0.284423,5.511419 -0.385566,5.565565 -0.01089,0.0058 -2.128518,-0.07097 -4.705848,-0.170659 z m -42.68828,-5.043279 c -0.0017,-0.134469 0.01524,-0.199346 0.03757,-0.144171 0.02232,0.05518 0.02368,0.165196 0.003,0.24449 -0.02066,0.07929 -0.03893,0.03415 -0.04059,-0.100319 z m 4.425672,-1.507685 c -0.12883,-0.134471 -0.215899,-0.244489 -0.193488,-0.244489 0.02241,0 0.146155,0.110018 0.274984,0.244489 0.12883,0.134469 0.215899,0.24449 0.193488,0.24449 -0.02241,0 -0.146155,-0.110021 -0.274984,-0.24449 z m 2.254021,-9.453594 c 0,-0.112058 0.0185,-0.157899 0.04111,-0.10187 0.02261,0.05603 0.02261,0.147712 0,0.203741 -0.02261,0.05603 -0.04111,0.01019 -0.04111,-0.101871 z m -0.09436,-0.276518 c 0,-0.01762 0.05691,-0.05387 0.126478,-0.08056 0.07253,-0.02783 0.105238,-0.01417 0.07669,0.03203 -0.04786,0.07744 -0.203165,0.114539 -0.203165,0.04853 z m 6.438223,-2.08688 -0.529727,-0.05336 0.550101,-0.01407 c 0.321782,-0.0082 0.550102,0.01976 0.550102,0.06743 0,0.04482 -0.0092,0.07517 -0.02038,0.06743 -0.01121,-0.0077 -0.258752,-0.03808 -0.550102,-0.06743 z"
       style="fill:#000000;fill-opacity:1;stroke:#d00000;stroke-width:0.26458332;stroke-miterlimit:4;stroke-dasharray:none;stroke-opacity:1" />
  </g>
</svg>
