<?xml version="1.0" encoding="UTF-8" standalone="no"?>
<!-- Created with Inkscape (http://www.inkscape.org/) -->

<svg
   xmlns:dc="http://purl.org/dc/elements/1.1/"
   xmlns:cc="http://creativecommons.org/ns#"
   xmlns:rdf="http://www.w3.org/1999/02/22-rdf-syntax-ns#"
   xmlns:svg="http://www.w3.org/2000/svg"
   xmlns="http://www.w3.org/2000/svg"
   xmlns:sodipodi="http://sodipodi.sourceforge.net/DTD/sodipodi-0.dtd"
   xmlns:inkscape="http://www.inkscape.org/namespaces/inkscape"
   width="153.37166mm"
   height="153.45433mm"
   viewBox="0 0 153.37166 153.45433"
   version="1.1"
   id="svg8"
   inkscape:version="0.92.4 (5da689c313, 2019-01-14)"
   sodipodi:docname="splash.svg"
   inkscape:export-filename="C:\xampp\htdocs\BatallaNavalPHP\BatallaNaval\imagen\splash2.png"
   inkscape:export-xdpi="89.900002"
   inkscape:export-ydpi="89.900002">
  <defs
     id="defs2" />
  <sodipodi:namedview
     id="base"
     pagecolor="#ffffff"
     bordercolor="#666666"
     borderopacity="1.0"
     inkscape:pageopacity="0.0"
     inkscape:pageshadow="2"
     inkscape:zoom="1.4"
     inkscape:cx="275.68989"
     inkscape:cy="292.3367"
     inkscape:document-units="mm"
     inkscape:current-layer="layer1"
     showgrid="false"
     fit-margin-top="0"
     fit-margin-left="0"
     fit-margin-right="0"
     fit-margin-bottom="0"
     inkscape:window-width="1920"
     inkscape:window-height="1051"
     inkscape:window-x="-9"
     inkscape:window-y="-9"
     inkscape:window-maximized="1"
     inkscape:pagecheckerboard="true" />
  <metadata
     id="metadata5">
    <rdf:RDF>
      <cc:Work
         rdf:about="">
        <dc:format>image/svg+xml</dc:format>
        <dc:type
           rdf:resource="http://purl.org/dc/dcmitype/StillImage" />
        <dc:title></dc:title>
      </cc:Work>
    </rdf:RDF>
  </metadata>
  <g
     inkscape:label="Capa 1"
     inkscape:groupmode="layer"
     id="layer1"
     transform="translate(-20.621996,-18.484524)">
    <path
       style="fill:#090e0f;stroke:#fffffc;stroke-width:9.26041698;stroke-miterlimit:4;stroke-dasharray:none;stroke-opacity:1"
       d="m 89.285539,167.14594 c -9.091277,-1.48968 -16.092875,-8.22896 -17.795738,-17.12903 -0.706905,-3.69465 -0.416343,-7.52389 0.838775,-11.05411 0.595469,-1.67485 14.757095,-29.33337 15.60099,-30.46969 0.944197,-1.27138 2.575404,-2.04351 4.317128,-2.04351 1.8277,0 3.03559,0.51093 4.11543,1.7408 1.18549,1.3502 15.466746,29.36031 16.265306,31.90145 0.55377,1.7622 0.64515,2.64851 0.63419,6.15108 -0.0115,3.6681 -0.0912,4.32623 -0.76889,6.35 -2.83832,8.47562 -10.42885,14.25694 -19.256076,14.66641 -1.397004,0.0648 -3.175004,0.0138 -3.951115,-0.1134 z m 7.323015,-4.68324 c 2.20673,-0.57478 5.056666,-2.10219 6.850796,-3.67166 1.96033,-1.71485 4.05183,-4.91299 4.89322,-7.48229 0.90885,-2.77529 0.98324,-7.74093 0.152,-10.14582 -0.29509,-0.85372 -3.30564,-6.94972 -6.69012,-13.54666 -7.574646,-14.76429 -8.450276,-16.38266 -9.071686,-16.76649 -1.078749,-0.66632 -0.657262,-1.40252 -12.507623,21.84649 -3.665569,7.19142 -4.144887,8.29741 -4.525461,10.44222 -0.509798,2.87308 -0.336104,5.17539 0.619139,8.20657 1.659142,5.26482 6.311019,9.68407 11.68672,11.10232 2.077904,0.54821 6.516745,0.55612 8.593015,0.0153 z m -46.308345,-0.37648 c -1.67075,-0.78294 -3.414511,-2.45806 -4.281691,-4.11315 -0.626511,-1.19576 -0.749621,-1.79758 -0.754187,-3.6868 -0.0046,-1.89181 0.118798,-2.51078 0.7611,-3.8186 0.421606,-0.85845 1.13413,-1.91298 1.583387,-2.3434 0.449257,-0.43041 3.150204,-2.10929 6.002104,-3.73084 5.934986,-3.37455 6.83212,-3.60375 8.394163,-2.14459 0.473191,0.44203 0.943469,1.13487 1.045064,1.53965 0.244441,0.97393 -0.918865,11.54396 -1.455725,13.22701 -0.513958,1.61126 -2.261009,3.65254 -3.996546,4.66963 -1.76024,1.03157 -5.512228,1.23778 -7.297669,0.40109 z m 4.389609,-3.98321 c 1.132778,-0.32488 2.232155,-1.27722 2.614151,-2.26452 0.260635,-0.67363 1.070647,-6.78297 1.075786,-8.11389 0.0014,-0.34925 -0.125349,-0.635 -0.281548,-0.635 -0.318519,0 -5.889409,3.12201 -7.066488,3.96016 -1.049519,0.74733 -1.496131,1.97901 -1.333042,3.6763 0.15653,1.62905 1.171725,2.93536 2.605152,3.35222 1.165466,0.33893 1.286068,0.34018 2.385989,0.0247 z m 85.557312,-17.40147 c -1.2934,-1.64429 -0.47006,-2.84869 2.56968,-3.75897 5.62023,-1.68303 10.19307,-6.41314 11.66568,-12.06687 0.54881,-2.10699 0.53532,-6.18428 -0.0277,-8.36647 -1.3441,-5.20989 -5.4166,-9.73238 -10.49578,-11.65552 -2.47505,-0.93713 -5.97898,-1.13785 -23.26952,-1.33296 -11.57073,-0.13057 -13.23984,-0.0961 -13.61722,0.28129 -0.23656,0.23656 -0.4301,0.66022 -0.4301,0.94148 0,0.6319 17.57851,25.89605 19.2896,27.72334 1.5707,1.67739 4.14655,3.34717 6.44067,4.17516 2.04524,0.73816 2.77417,1.41518 2.77417,2.57662 0,1.15111 -0.89472,1.94506 -2.18722,1.94085 -1.31714,-0.004 -4.73911,-1.4779 -6.9999,-3.01438 -2.60919,-1.77326 -4.31836,-3.83745 -10.13968,-12.24585 -2.94624,-4.25559 -6.79912,-9.76581 -8.56195,-12.24493 -3.75262,-5.27743 -4.54912,-6.58054 -4.85724,-7.94673 -0.33395,-1.48065 0.30667,-3.61337 1.43509,-4.77759 1.88002,-1.939695 1.33281,-1.896766 20.33656,-1.595457 15.92629,0.252515 17.18601,0.308923 19.2397,0.861507 3.79266,1.02049 6.46866,2.61714 9.51464,5.67694 4.38741,4.40731 6.25234,8.76831 6.28104,14.68771 0.0173,3.56682 -0.51153,5.97025 -2.01144,9.14186 -2.59438,5.48591 -6.66197,9.15235 -12.22158,11.01627 -2.84628,0.95425 -3.96654,0.95014 -4.72753,-0.0173 z M 53.054911,126.90515 c -2.404662,-0.67266 -5.307894,-2.3528 -7.04326,-4.07601 -6.669579,-6.62288 -6.38032,-17.37108 0.635788,-23.624432 2.800515,-2.496058 6.801513,-4.043993 10.452647,-4.043993 2.545309,0 25.123226,3.836165 26.399898,4.485549 1.925311,0.979316 2.905017,3.343226 2.267477,5.471136 -0.288419,0.96267 -1.816294,2.60299 -9.240979,9.92111 -4.892486,4.82227 -9.460108,9.17008 -10.150271,9.66181 -0.690163,0.49173 -2.104404,1.24213 -3.142756,1.66756 -1.623788,0.6653 -2.361723,0.78668 -5.274581,0.86761 -2.404892,0.0668 -3.826521,-0.0289 -4.903963,-0.33034 z m 9.398388,-4.92324 c 1.743849,-0.83226 2.844168,-1.81865 10.579258,-9.4838 6.752581,-6.69153 8.558908,-8.62959 8.292899,-8.89769 -0.416159,-0.41944 -22.22757,-4.199658 -24.254075,-4.203569 -5.834569,-0.01126 -11.082249,4.967419 -11.586377,10.992449 -0.379447,4.53492 2.247315,9.30451 6.264982,11.37576 2.14022,1.10336 3.285238,1.33713 6.071852,1.23965 2.344361,-0.082 2.932221,-0.21183 4.631461,-1.0228 z M 87.451095,100.16718 C 86.44215,99.523884 75.583651,92.658886 63.321096,84.911629 51.058541,77.164376 40.073042,70.118958 38.908875,69.255149 27.861705,61.058163 23.67011,47.546152 28.894915,36.974183 c 1.31963,-2.670163 2.421102,-4.192253 4.63811,-6.409261 3.28088,-3.28088 6.65584,-5.254085 11.443628,-6.690631 2.219166,-0.665848 3.02125,-0.761787 6.349999,-0.759543 2.988573,0.002 4.28634,0.131267 6.019396,0.599506 7.097474,1.917603 13.128052,6.639331 16.20023,12.684201 0.766224,1.507633 1.622371,3.593819 1.90255,4.635968 0.479656,1.784116 0.481539,1.937367 0.03219,2.623152 -0.610563,0.931836 -1.645339,1.33478 -2.547211,0.991889 -0.804051,-0.3057 -1.17261,-0.91895 -1.755783,-2.921476 -0.600956,-2.063581 -2.460309,-5.425987 -3.99218,-7.219356 -2.582026,-3.022789 -7.242135,-5.785889 -11.269268,-6.681841 -3.097094,-0.689038 -8.217851,-0.43381 -11.027289,0.54962 -6.231637,2.181355 -10.952316,6.82083 -13.098841,12.873519 -0.883771,2.492023 -1.005618,7.190247 -0.262673,10.128198 0.780349,3.08586 2.203479,5.990429 4.295157,8.766293 2.027588,2.690814 4.077136,4.587767 7.319275,6.774337 5.356266,3.612383 39.263191,24.890893 39.524433,24.803813 0.154734,-0.05158 -0.241647,-1.172345 -0.880847,-2.490594 -1.557903,-3.212933 -3.641668,-8.47859 -4.857394,-12.274594 -2.027975,-6.332175 -4.002588,-16.528093 -4.565229,-23.572571 -0.175308,-2.194904 -0.139102,-2.473355 0.412812,-3.175 0.448395,-0.570042 0.855317,-0.769095 1.572263,-0.769095 1.364691,0 2.016867,0.76501 2.205733,2.587349 0.603145,5.819647 0.874731,7.875515 1.485036,11.24154 2.209289,12.184898 6.282267,22.935462 12.313149,32.500384 1.043189,1.654489 1.896708,3.315101 1.896708,3.690248 0,0.927892 -1.111238,1.913222 -2.134856,1.892972 -0.465663,-0.009 -1.631834,-0.52861 -2.662921,-1.18603 z m 9.974519,0.47816 c -0.54235,-0.54235 -0.68548,-0.914499 -0.56987,-1.481667 0.12461,-0.611282 27.873286,-53.451586 31.397606,-59.788758 3.13437,-5.635988 8.23673,-10.762694 13.20501,-13.268013 3.87457,-1.953802 8.93779,-2.605257 12.74954,-1.64041 5.20908,1.318544 10.59189,5.743103 13.08758,10.757714 1.50018,3.014337 2.04617,5.240768 2.06752,8.430956 0.0311,4.653785 -1.42685,8.700033 -4.45987,12.377115 -2.45376,2.974797 -6.98885,6.10844 -8.84032,6.10844 -0.90363,0 -2.00728,-1.086209 -2.00728,-1.975556 0,-0.804801 1.02854,-1.865127 2.7504,-2.835387 0.89322,-0.503335 2.52711,-1.817531 3.63086,-2.920439 3.04953,-3.047209 4.62541,-6.612258 4.62541,-10.46388 0,-4.169976 -1.49665,-7.578867 -4.78828,-10.906155 -5.35604,-5.414061 -11.80449,-6.175486 -18.55193,-2.190586 -2.12204,1.253232 -6.36184,5.502441 -8.09974,8.117704 -1.33134,2.003464 -25.85116,48.111594 -25.85116,48.611644 0,0.501122 0.48486,0.188293 2.96333,-1.911923 11.23832,-9.523171 22.27571,-17.082317 32.5723,-22.307707 2.23732,-1.135411 4.40593,-2.064382 4.81914,-2.064382 0.98932,0 1.97856,1.078061 1.97856,2.156217 0,1.098728 -0.78733,1.823288 -3.11422,2.865933 -1.01432,0.454502 -3.48568,1.745166 -5.49191,2.868142 -11.90903,6.666021 -24.42259,16.13316 -37.7859,28.586928 -4.281136,3.98976 -4.891876,4.26897 -6.286776,2.87407 z M 31.571098,92.356801 c -3.759355,-1.147688 -6.306275,-4.466525 -6.318864,-8.233977 -0.0052,-1.542342 0.152774,-2.188664 0.911276,-3.7294 1.59254,-3.234907 4.390193,-4.844737 8.088699,-4.654412 3.134331,0.161293 4.069315,0.776823 8.642117,5.689374 2.190115,2.352836 4.170544,4.560725 4.400954,4.906419 0.888055,1.332388 0.342807,3.473255 -1.130437,4.438563 -0.376641,0.246783 -2.883441,0.711259 -6.113885,1.13282 -5.640746,0.736092 -7.262469,0.822268 -8.47986,0.450613 z m 7.972777,-4.834492 c 1.202972,-0.182838 2.187222,-0.45538 2.187222,-0.605649 0,-0.150269 -1.221632,-1.590607 -2.714739,-3.20075 -3.142338,-3.388645 -4.315617,-4.05172 -6.248415,-3.531271 -0.697976,0.187946 -1.480597,0.690293 -2.003811,1.286202 -1.855082,2.11282 -1.329621,4.814671 1.230299,6.326033 0.642447,0.379299 4.066765,0.25476 7.549444,-0.274565 z m 114.026835,0.732389 c -2.98303,-0.686872 -5.68858,-1.390616 -6.01232,-1.563875 -0.77725,-0.415973 -1.68519,-1.93478 -1.68519,-2.818996 0,-0.388056 0.23447,-1.090044 0.52105,-1.559975 0.78955,-1.294723 8.90107,-8.371083 10.42004,-9.090281 1.72023,-0.814497 4.75497,-0.866821 6.41948,-0.110682 1.43479,0.651778 3.41603,2.842832 4.62979,5.120069 0.84726,1.589631 0.9254,1.931459 0.79966,3.497967 -0.33969,4.231806 -3.62841,7.424343 -7.9034,7.672256 -1.35071,0.07833 -3.03942,-0.19098 -7.18911,-1.146483 z m 8.16462,-3.885949 c 1.35733,-0.762857 2.4802,-2.559823 2.4802,-3.969119 0,-2.177277 -2.68093,-3.951977 -5.00944,-3.316102 -1.1753,0.320951 -7.2273,5.496954 -7.04982,6.029389 0.1075,0.32251 6.24648,1.81748 7.64639,1.86206 0.44453,0.01417 1.31424,-0.258645 1.93267,-0.606228 z m -67.686126,3.058217 c -1.30689,-0.582831 -1.963117,-1.624793 -5.723934,-9.088425 -3.819918,-7.580925 -4.263469,-8.996431 -3.743692,-11.947256 1.171925,-6.653117 7.718258,-10.757382 14.052936,-8.810568 3.375676,1.037435 6.345436,3.966486 7.308016,7.207842 0.53858,1.813622 0.53332,4.776078 -0.0116,6.543712 -0.68703,2.228491 -7.519896,15.101089 -8.319806,15.673887 -0.99027,0.709103 -2.51226,0.888913 -3.5619,0.420808 z m 4.51508,-10.973872 c 1.632706,-3.148971 3.101746,-6.319686 3.264526,-7.046036 0.89816,-4.007784 -2.266856,-7.841171 -6.460346,-7.824588 -2.827489,0.01118 -5.034136,1.582756 -6.084649,4.333482 -0.870351,2.278984 -0.560031,3.417573 2.675449,9.816454 2.66942,5.279364 3.31192,6.446087 3.54981,6.446087 0.0477,0 1.42249,-2.576429 3.05521,-5.725399 z"
       id="path889"
       inkscape:connector-curvature="0" />
    <path
       inkscape:connector-curvature="0"
       id="path832"
       d="m 87.874428,166.98248 c -2.799904,-0.51879 -4.935925,-1.38932 -7.3175,-2.98221 -5.252612,-3.51317 -8.686122,-9.11391 -9.505876,-15.50602 -0.390948,-3.04846 -0.05568,-6.15999 0.991867,-9.20527 0.787604,-2.2896 14.673659,-29.512 15.821857,-31.01736 2.049252,-2.68671 6.253508,-2.79594 8.663718,-0.22508 0.68837,0.73424 10.036976,18.67213 14.464516,27.75417 2.10512,4.31813 2.70475,6.62721 2.70475,10.41553 0,3.18424 -0.75861,6.20473 -2.38121,9.48114 -3.02867,6.11555 -8.26078,10.10549 -14.834346,11.31247 -2.57978,0.47368 -5.961697,0.46293 -8.607776,-0.0274 z m -37.328593,-4.55914 c -1.711523,-0.60569 -4.085162,-2.8746 -4.88993,-4.67418 -0.984198,-2.20079 -0.938525,-5.17881 0.112369,-7.32676 1.080309,-2.20807 2.160129,-3.07494 7.811502,-6.27097 5.49017,-3.10486 6.556682,-3.42386 8.135526,-2.43334 1.76394,1.10664 1.842127,1.74052 1.072975,8.6989 -0.789132,7.13916 -1.09805,8.0496 -3.465414,10.21324 -2.355548,2.15284 -5.782327,2.85292 -8.777028,1.79311 z m 89.481175,-21.68373 c -0.75194,-0.94239 -0.87046,-0.98777 -2.57991,-0.98778 -1.62696,-1e-5 -1.86452,0.0779 -2.58268,0.84666 -1.02188,1.09393 -1.92076,1.09249 -4.7735,-0.008 -2.61902,-1.01 -5.53933,-2.99457 -7.51235,-5.10521 -0.78117,-0.83565 -4.01632,-5.26586 -7.18923,-9.84492 -3.17291,-4.57905 -7.21441,-10.35709 -8.9811,-12.84008 -1.7667,-2.48299 -3.4528,-4.98618 -3.74688,-5.56265 -0.66088,-1.29543 -0.69963,-3.6011 -0.0824,-4.90187 0.63028,-1.32822 2.40761,-2.854471 3.74269,-3.213972 0.79458,-0.213955 6.01831,-0.219433 17.87803,-0.01874 15.24206,0.257923 16.95834,0.334487 19.00175,0.847657 7.07352,1.776405 12.7127,6.998345 15.16702,14.044835 0.70308,2.01859 0.88504,3.05655 0.99096,5.65274 0.14851,3.64042 -0.17415,5.69918 -1.38782,8.85508 -2.37339,6.17149 -7.57435,10.96979 -13.8373,12.76603 -2.47783,0.71066 -3.19071,0.61865 -4.10731,-0.53012 z m -86.724802,-13.5531 c -3.922331,-1.07752 -7.362335,-3.47475 -9.399994,-6.55055 -1.554281,-2.34616 -1.985551,-3.36533 -2.608031,-6.16326 -2.073514,-9.32005 5.124193,-18.794621 14.806896,-19.490798 1.806552,-0.12989 3.997875,0.158194 14.062856,1.848784 6.55756,1.101457 12.431784,2.206286 13.053827,2.455181 2.257498,0.903273 3.391645,3.211993 2.784861,5.668993 -0.31218,1.26409 -0.930413,1.94173 -9.345526,10.24363 -4.956177,4.8895 -9.72177,9.36243 -10.590207,9.93985 -2.474113,1.64501 -4.519098,2.24193 -8.108016,2.36668 -2.190611,0.0761 -3.561359,-0.0176 -4.656666,-0.31851 z M 86.732165,99.922921 C 78.002216,94.54945 40.69656,70.829427 38.912144,69.517557 25.855192,59.918324 22.571536,43.509019 31.506061,32.507385 c 6.077122,-7.483138 14.771613,-10.766553 24.336147,-9.190379 8.904313,1.467374 16.672251,8.06281 19.44542,16.510302 0.853223,2.599047 0.788978,3.676487 -0.279787,4.692275 -0.819951,0.779307 -0.865084,0.929233 -0.754224,2.505293 0.08622,1.22575 0.253791,1.756801 0.623381,1.975555 1.479863,0.875904 1.615414,1.129671 1.898568,3.554318 1.160142,9.934303 2.320397,15.928508 4.354031,22.494182 2.490546,8.040824 5.492018,14.571392 9.613767,20.91752 1.98234,3.052154 2.11721,3.705978 0.99579,4.827399 -0.47401,0.47401 -1.157854,0.85798 -1.528059,0.85798 -0.368545,0 -1.934066,-0.77801 -3.47893,-1.728909 z m 10.706519,1.068009 c -0.52443,-0.45109 -0.76833,-0.9346 -0.76833,-1.52314 0,-0.594589 4.757586,-9.873087 15.326056,-29.889663 8.42933,-15.965076 15.89479,-29.977031 16.58991,-31.137681 4.59552,-7.67322 11.49789,-13.141701 18.18931,-14.410704 6.595,-1.250715 13.6063,1.611758 18.36969,7.49971 2.72191,3.364504 4.43166,8.097104 4.43166,12.266821 0,7.122019 -4.21612,13.903675 -11.02871,17.739777 -1.82897,1.029871 -2.72507,1.10748 -3.72308,0.322445 -0.88971,-0.699844 -0.93155,-0.699271 -2.86121,0.03917 -1.36395,0.521956 -1.57734,0.704356 -1.57734,1.348317 0,1.260672 -0.77437,1.95821 -3.93189,3.541767 -13.20234,6.621221 -27.82416,17.286723 -42.16503,30.756167 -1.99236,1.871297 -3.89736,3.556604 -4.23333,3.745134 -0.934606,0.52445 -1.772336,0.42905 -2.617706,-0.29811 z M 31.429987,92.508159 c -3.262517,-1.031798 -5.43633,-3.383793 -6.100807,-6.600875 -0.294624,-1.426427 -0.29466,-2.079865 -1.95e-4,-3.50553 0.455821,-2.206865 0.902696,-3.068286 2.334468,-4.500061 1.755514,-1.755513 3.311824,-2.349385 6.165422,-2.352664 3.357785,-0.0039 4.444371,0.646074 8.689013,5.197269 5.5339,5.933563 5.422098,5.785165 5.422098,7.196911 0,1.380637 -0.951585,2.82343 -2.166931,3.285504 -0.71946,0.273539 -11.416591,1.686332 -12.533628,1.655344 -0.374303,-0.01038 -1.188551,-0.179539 -1.80944,-0.375898 z M 153.42664,88.420667 c -6.39194,-1.458157 -7.0063,-1.75764 -7.5879,-3.698841 -0.53058,-1.770921 0.0791,-2.625902 5.01221,-7.028557 2.46102,-2.196403 5.04608,-4.272035 5.74458,-4.612516 1.52704,-0.744355 4.17992,-0.968163 5.92048,-0.499482 1.6724,0.45033 4.32094,3.144683 5.62002,5.717229 0.84592,1.675141 0.93875,2.073949 0.79869,3.430986 -0.28324,2.744326 -1.73351,5.166484 -3.91981,6.546633 -1.1603,0.732468 -3.84935,1.536124 -5.02145,1.500725 -0.39425,-0.01191 -3.34932,-0.622187 -6.56682,-1.356177 z M 93.020154,86.996125 C 91.5763,85.7284 84.646235,71.868634 84.366948,69.690161 c -0.48247,-3.763346 0.810336,-7.275316 3.643827,-9.898631 2.296513,-2.126163 4.158892,-2.833999 7.483649,-2.844311 2.26497,-0.007 2.74413,0.08776 4.42514,0.875351 3.895686,1.825224 6.394546,5.387021 6.657856,9.489866 0.18875,2.941139 -0.22874,4.101792 -4.38251,12.183671 -4.060786,7.90098 -4.412316,8.326831 -6.873506,8.326831 -1.10093,0 -1.5387,-0.157286 -2.30125,-0.826813 z"
       style="fill:#28c3d4;fill-opacity:1;stroke-width:0.28222221" />
    <path
       inkscape:connector-curvature="0"
       id="path830"
       d="m 89.285539,167.12695 c -8.96822,-1.34884 -16.090295,-8.19648 -17.795738,-17.11004 -0.70938,-3.70758 -0.416769,-7.52222 0.850473,-11.08726 0.607534,-1.70913 14.732953,-29.29346 15.585984,-30.43654 0.949511,-1.27237 2.57987,-2.04351 4.320436,-2.04351 1.82876,0 3.03566,0.51101 4.1178,1.7435 1.1397,1.29805 15.407326,29.20852 16.214656,31.71927 0.8463,2.63194 1.07586,7.94046 0.45744,10.57805 -0.67166,2.86462 -1.50714,4.85637 -2.98984,7.12764 -4.53945,6.95375 -12.749196,10.71391 -20.761211,9.50889 z m 10.200965,-6.21471 c 4.097906,-1.97899 7.027116,-5.34015 8.479916,-9.73042 0.99565,-3.00878 1.05491,-7.27663 0.13775,-9.91996 -0.67893,-1.9567 -10.502776,-21.23643 -10.873596,-21.3399 -0.13168,-0.0367 -2.50642,4.37574 -5.277217,9.80551 -5.554406,10.88466 -6.016763,12.14518 -6.006049,16.37435 0.0153,6.04129 2.980904,11.91325 7.776386,15.39743 1.51198,1.09853 2.47584,1.00035 5.76281,-0.58701 z m -49.288741,1.13046 c -1.656453,-0.77038 -3.251086,-2.32855 -4.183201,-4.08754 -0.638124,-1.20421 -0.748349,-1.76286 -0.751728,-3.81 -0.0035,-2.11766 0.09097,-2.57018 0.805826,-3.86002 0.445383,-0.80362 1.154841,-1.79171 1.576574,-2.19576 0.421733,-0.40404 3.095073,-2.06428 5.940754,-3.68942 5.660178,-3.23247 6.776406,-3.55727 8.247735,-2.39992 1.417568,1.11505 1.480041,1.73741 0.802025,7.98983 -0.340411,3.13913 -0.810667,6.30698 -1.045013,7.03966 -0.515972,1.61318 -2.56039,3.96966 -4.164536,4.80023 -1.737692,0.89971 -5.512669,1.01092 -7.228436,0.21294 z m 90.043227,-21.34895 c -1.49049,-1.89486 -0.8072,-3.13628 2.22559,-4.04352 3.26125,-0.97558 5.87871,-2.41558 7.61367,-4.18866 1.70152,-1.73891 3.60504,-5.08061 4.28724,-7.52641 0.58613,-2.10138 0.50625,-6.96856 -0.1459,-8.89 -1.96412,-5.7869 -5.79409,-9.64033 -11.40983,-11.47974 -3.04625,-0.99778 -35.35963,-1.13818 -35.7368,-0.15527 -0.2056,0.53576 -0.77823,-0.33495 9.41419,14.31464 4.75123,6.82897 9.30585,13.07865 10.12136,13.88819 1.75932,1.74641 3.34223,2.71735 6.07401,3.72572 1.56689,0.57838 2.12987,0.94214 2.53697,1.63918 0.49937,0.85505 0.50084,0.93192 0.0323,1.68767 -0.72936,1.17635 -1.23457,1.49776 -2.34827,1.49394 -1.2327,-0.004 -4.89788,-1.57213 -6.90253,-2.95278 -2.66085,-1.8326 -4.50181,-4.09463 -11.37525,-13.97711 -3.72462,-5.35516 -7.75611,-11.13366 -8.95888,-12.84111 -2.91472,-4.13772 -3.36695,-5.05252 -3.35207,-6.78065 0.0146,-1.6946 0.56018,-2.84735 1.90747,-4.03028 1.76903,-1.553234 1.65226,-1.546052 20.21258,-1.242973 16.23811,0.265162 17.16143,0.308172 19.16879,0.892973 7.27474,2.11935 13.07643,7.97264 14.9995,15.13288 0.76135,2.83475 0.82526,7.30053 0.14467,10.1088 -0.61136,2.52264 -2.29763,6.06675 -3.93403,8.26833 -2.40544,3.23624 -6.87707,6.28642 -10.71324,7.30769 -2.2692,0.60411 -3.17464,0.52168 -3.8615,-0.35151 z M 55.495574,127.31302 c -2.379007,-0.26732 -3.522109,-0.63167 -5.97344,-1.90398 -5.012883,-2.60182 -8.355481,-8.26941 -8.355481,-14.16725 0,-4.37696 1.563033,-8.05806 4.793026,-11.28805 3.183067,-3.183066 6.9171,-4.793025 11.11663,-4.793025 2.185839,0 24.844814,3.755525 26.281963,4.356004 1.705183,0.712471 2.932229,3.110131 2.57263,5.026951 -0.100161,0.53391 -0.529342,1.43152 -0.953736,1.99469 -0.424395,0.56317 -4.709566,4.86933 -9.522601,9.56926 -9.331369,9.11207 -10.388735,9.93406 -13.858665,10.77361 -2.341801,0.56659 -3.911749,0.67772 -6.100326,0.43179 z m 5.91183,-5.28435 c 0.810135,-0.30825 2.080135,-1.01121 2.822222,-1.56212 1.655668,-1.22915 16.906089,-16.47529 16.693034,-16.68835 -0.08415,-0.0841 -0.903927,-0.28072 -1.821727,-0.43683 -0.917798,-0.1561 -2.367227,-0.47611 -3.220949,-0.71112 -0.853722,-0.23501 -5.362222,-1.06615 -10.018888,-1.84697 -7.834418,-1.313656 -8.602514,-1.396124 -10.285848,-1.10434 -4.41907,0.76599 -7.922462,3.67144 -9.318009,7.72767 -0.738825,2.14743 -0.408422,6.42144 0.673152,8.7077 2.561731,5.41505 8.940437,8.02097 14.477013,5.91436 z M 88.721095,100.9652 C 88.41065,100.75905 77.552151,93.894793 64.591096,85.711278 51.630041,77.527762 40.073042,70.123126 38.908875,69.256532 30.458267,62.96598 25.671187,53.088846 26.773542,44.217824 c 0.996646,-8.02035 6.01175,-14.84361 13.686806,-18.621474 3.878933,-1.909314 6.582717,-2.522467 11.007415,-2.49622 5.456716,0.03237 9.178812,1.166017 13.848198,4.217778 2.384205,1.55824 5.775833,4.886952 7.076059,6.944791 1.621589,2.566458 3.487964,7.175058 3.487964,8.612756 0,0.607156 -1.903021,2.331929 -2.572924,2.331929 -0.930196,0 -1.866344,-1.236652 -2.483586,-3.280822 -1.875691,-6.211864 -6.785121,-11.06621 -13.429044,-13.278368 -1.938706,-0.64551 -2.756329,-0.754979 -5.785556,-0.774612 -5.226248,-0.03387 -9.129959,1.266709 -12.84111,4.278208 l -1.693333,1.374095 0.01356,3.089083 c 0.01546,3.523303 0.467959,5.558113 1.948707,8.762999 2.009468,4.349231 5.658293,8.74014 9.575233,11.522609 2.730576,1.939713 26.356763,16.811251 26.707779,16.811251 0.173852,0 0.251226,-0.22225 0.171942,-0.493889 -1.24188,-4.254906 -2.253977,-9.367903 -2.990901,-15.109683 -0.812236,-6.328596 -0.779664,-7.374276 0.262153,-8.416094 0.820889,-0.820887 0.85033,-0.827214 1.86891,-0.401624 0.569188,0.237822 1.078407,0.432403 1.131601,0.432403 0.385086,0 0.734285,1.660589 1.107499,5.266624 1.575706,15.224675 5.961704,28.631037 13.155091,40.210211 1.222581,1.967983 2.222872,3.885138 2.222872,4.26035 0,1.500465 -2.152029,2.418595 -3.527777,1.505075 z m 8.704519,-0.31986 c -0.54078,-0.54079 -0.68574,-0.916133 -0.57219,-1.481667 0.12628,-0.628969 28.879646,-55.367773 31.574736,-60.109931 1.29042,-2.270579 3.96986,-5.773288 5.86949,-7.672921 7.45692,-7.456914 16.56079,-9.4154 24.17444,-5.200566 6.70919,3.714128 10.92063,10.514378 10.90973,17.616018 -0.009,6.134894 -2.92978,11.796191 -8.06083,15.62639 -3.83804,2.864996 -5.45155,3.322836 -6.78932,1.9265 -1.42767,-1.490159 -0.81659,-2.718382 2.20497,-4.431854 0.77611,-0.44012 2.27636,-1.632458 3.33389,-2.649646 3.50345,-3.369803 5.21931,-8.168065 4.47438,-12.512186 -0.43861,-2.557782 -0.8663,-3.212683 -2.37474,-3.636377 -2.93696,-0.824941 -7.82141,-0.13403 -11.21908,1.586951 -3.26945,1.656031 -7.13862,5.191248 -9.92682,9.070022 -1.57504,2.191108 -12.27136,22.022761 -12.01589,22.278231 0.0727,0.07269 1.5776,-0.776991 3.34423,-1.888187 7.47843,-4.703869 14.17919,-8.154289 15.83572,-8.154289 1.28136,0 1.91609,0.715605 1.91609,2.16025 0,1.3714 -0.62565,2.038593 -2.82507,3.012652 -2.48268,1.099506 -7.73526,4.027254 -11.85048,6.605374 -9.84211,6.165911 -19.98732,14.141881 -31.26974,24.583671 -4.769896,4.414495 -5.322226,4.682855 -6.733516,3.271565 z M 30.912525,92.131331 c -0.75027,-0.250007 -1.982123,-1.010187 -2.737452,-1.689292 -3.025838,-2.72049 -3.775525,-6.465497 -2.011563,-10.048615 1.59254,-3.234907 4.390193,-4.844737 8.088699,-4.654412 3.134331,0.161293 4.069315,0.776823 8.642117,5.689374 2.190115,2.352836 4.170544,4.560725 4.400954,4.906419 0.894518,1.342083 0.342402,3.473521 -1.153686,4.453797 -0.674092,0.441681 -10.53106,1.845245 -12.736052,1.813526 -0.620889,-0.0089 -1.742746,-0.220791 -2.493017,-0.470797 z M 153.5126,88.244501 c -3.01501,-0.697173 -5.78228,-1.464448 -6.14949,-1.705056 -0.99247,-0.650291 -1.60344,-2.126367 -1.37785,-3.328848 0.15059,-0.802727 0.71468,-1.486809 2.78897,-3.382264 7.48924,-6.843552 8.11425,-7.242073 11.34908,-7.23644 1.30443,0.0023 2.3611,0.178585 3.11046,0.518996 1.43479,0.651778 3.41603,2.842832 4.62979,5.120069 0.84726,1.589631 0.9254,1.931459 0.79966,3.497967 -0.33947,4.229125 -3.62252,7.417925 -7.9034,7.67652 -1.36434,0.08242 -3.01074,-0.181322 -7.24722,-1.160944 z M 94.049204,87.430956 c -1.29465,-0.58324 -1.938141,-1.600685 -5.695619,-9.005552 -3.816784,-7.521747 -4.246513,-8.855854 -3.796479,-11.786353 1.239145,-8.068973 10.164068,-12.160024 16.898284,-7.745924 1.73127,1.134807 3.25739,2.928769 4.10232,4.822294 0.84241,1.887914 1.03416,5.40622 0.40778,7.48219 -0.68989,2.286426 -7.517176,15.217393 -8.361016,15.835866 -0.96551,0.707653 -2.48875,0.877951 -3.55527,0.397479 z"
       style="fill:#289dd4;fill-opacity:1;stroke-width:0.28222221" />
    <path
       inkscape:connector-curvature="0"
       id="path828"
       d="m 89.285539,167.14594 c -9.091277,-1.48968 -16.092875,-8.22896 -17.795738,-17.12903 -0.706905,-3.69465 -0.416343,-7.52389 0.838775,-11.05411 0.595469,-1.67485 14.757095,-29.33337 15.60099,-30.46969 0.944197,-1.27138 2.575404,-2.04351 4.317128,-2.04351 1.8277,0 3.03559,0.51093 4.11543,1.7408 1.18549,1.3502 15.466746,29.36031 16.265306,31.90145 0.55377,1.7622 0.64515,2.64851 0.63419,6.15108 -0.0115,3.6681 -0.0912,4.32623 -0.76889,6.35 -2.83832,8.47562 -10.42885,14.25694 -19.256076,14.66641 -1.397004,0.0648 -3.175004,0.0138 -3.951115,-0.1134 z m 7.323015,-4.68324 c 2.20673,-0.57478 5.056666,-2.10219 6.850796,-3.67166 1.96033,-1.71485 4.05183,-4.91299 4.89322,-7.48229 0.90885,-2.77529 0.98324,-7.74093 0.152,-10.14582 -0.29509,-0.85372 -3.30564,-6.94972 -6.69012,-13.54666 -7.574646,-14.76429 -8.450276,-16.38266 -9.071686,-16.76649 -1.078749,-0.66632 -0.657262,-1.40252 -12.507623,21.84649 -3.665569,7.19142 -4.144887,8.29741 -4.525461,10.44222 -0.509798,2.87308 -0.336104,5.17539 0.619139,8.20657 1.659142,5.26482 6.311019,9.68407 11.68672,11.10232 2.077904,0.54821 6.516745,0.55612 8.593015,0.0153 z m -46.308345,-0.37648 c -1.67075,-0.78294 -3.414511,-2.45806 -4.281691,-4.11315 -0.626511,-1.19576 -0.749621,-1.79758 -0.754187,-3.6868 -0.0046,-1.89181 0.118798,-2.51078 0.7611,-3.8186 0.421606,-0.85845 1.13413,-1.91298 1.583387,-2.3434 0.449257,-0.43041 3.150204,-2.10929 6.002104,-3.73084 5.934986,-3.37455 6.83212,-3.60375 8.394163,-2.14459 0.473191,0.44203 0.943469,1.13487 1.045064,1.53965 0.244441,0.97393 -0.918865,11.54396 -1.455725,13.22701 -0.513958,1.61126 -2.261009,3.65254 -3.996546,4.66963 -1.76024,1.03157 -5.512228,1.23778 -7.297669,0.40109 z m 4.389609,-3.98321 c 1.132778,-0.32488 2.232155,-1.27722 2.614151,-2.26452 0.260635,-0.67363 1.070647,-6.78297 1.075786,-8.11389 0.0014,-0.34925 -0.125349,-0.635 -0.281548,-0.635 -0.318519,0 -5.889409,3.12201 -7.066488,3.96016 -1.049519,0.74733 -1.496131,1.97901 -1.333042,3.6763 0.15653,1.62905 1.171725,2.93536 2.605152,3.35222 1.165466,0.33893 1.286068,0.34018 2.385989,0.0247 z m 85.557312,-17.40147 c -1.2934,-1.64429 -0.47006,-2.84869 2.56968,-3.75897 5.62023,-1.68303 10.19307,-6.41314 11.66568,-12.06687 0.54881,-2.10699 0.53532,-6.18428 -0.0277,-8.36647 -1.3441,-5.20989 -5.4166,-9.73238 -10.49578,-11.65552 -2.47505,-0.93713 -5.97898,-1.13785 -23.26952,-1.33296 -11.57073,-0.13057 -13.23984,-0.0961 -13.61722,0.28129 -0.23656,0.23656 -0.4301,0.66022 -0.4301,0.94148 0,0.6319 17.57851,25.89605 19.2896,27.72334 1.5707,1.67739 4.14655,3.34717 6.44067,4.17516 2.04524,0.73816 2.77417,1.41518 2.77417,2.57662 0,1.15111 -0.89472,1.94506 -2.18722,1.94085 -1.31714,-0.004 -4.73911,-1.4779 -6.9999,-3.01438 -2.60919,-1.77326 -4.31836,-3.83745 -10.13968,-12.24585 -2.94624,-4.25559 -6.79912,-9.76581 -8.56195,-12.24493 -3.75262,-5.27743 -4.54912,-6.58054 -4.85724,-7.94673 -0.33395,-1.48065 0.30667,-3.61337 1.43509,-4.77759 1.88002,-1.939695 1.33281,-1.896766 20.33656,-1.595457 15.92629,0.252515 17.18601,0.308923 19.2397,0.861507 3.79266,1.02049 6.46866,2.61714 9.51464,5.67694 4.38741,4.40731 6.25234,8.76831 6.28104,14.68771 0.0173,3.56682 -0.51153,5.97025 -2.01144,9.14186 -2.59438,5.48591 -6.66197,9.15235 -12.22158,11.01627 -2.84628,0.95425 -3.96654,0.95014 -4.72753,-0.0173 z M 53.054911,126.90515 c -2.404662,-0.67266 -5.307894,-2.3528 -7.04326,-4.07601 -6.669579,-6.62288 -6.38032,-17.37108 0.635788,-23.624432 2.800515,-2.496058 6.801513,-4.043993 10.452647,-4.043993 2.545309,0 25.123226,3.836165 26.399898,4.485549 1.925311,0.979316 2.905017,3.343226 2.267477,5.471136 -0.288419,0.96267 -1.816294,2.60299 -9.240979,9.92111 -4.892486,4.82227 -9.460108,9.17008 -10.150271,9.66181 -0.690163,0.49173 -2.104404,1.24213 -3.142756,1.66756 -1.623788,0.6653 -2.361723,0.78668 -5.274581,0.86761 -2.404892,0.0668 -3.826521,-0.0289 -4.903963,-0.33034 z m 9.398388,-4.92324 c 1.743849,-0.83226 2.844168,-1.81865 10.579258,-9.4838 6.752581,-6.69153 8.558908,-8.62959 8.292899,-8.89769 -0.416159,-0.41944 -22.22757,-4.199658 -24.254075,-4.203569 -5.834569,-0.01126 -11.082249,4.967419 -11.586377,10.992449 -0.379447,4.53492 2.247315,9.30451 6.264982,11.37576 2.14022,1.10336 3.285238,1.33713 6.071852,1.23965 2.344361,-0.082 2.932221,-0.21183 4.631461,-1.0228 z M 87.451095,100.16718 C 86.44215,99.523884 75.583651,92.658886 63.321096,84.911629 51.058541,77.164376 40.073042,70.118958 38.908875,69.255149 27.861705,61.058163 23.67011,47.546152 28.894915,36.974183 c 1.31963,-2.670163 2.421102,-4.192253 4.63811,-6.409261 3.28088,-3.28088 6.65584,-5.254085 11.443628,-6.690631 2.219166,-0.665848 3.02125,-0.761787 6.349999,-0.759543 2.988573,0.002 4.28634,0.131267 6.019396,0.599506 7.097474,1.917603 13.128052,6.639331 16.20023,12.684201 0.766224,1.507633 1.622371,3.593819 1.90255,4.635968 0.479656,1.784116 0.481539,1.937367 0.03219,2.623152 -0.610563,0.931836 -1.645339,1.33478 -2.547211,0.991889 -0.804051,-0.3057 -1.17261,-0.91895 -1.755783,-2.921476 -0.600956,-2.063581 -2.460309,-5.425987 -3.99218,-7.219356 -2.582026,-3.022789 -7.242135,-5.785889 -11.269268,-6.681841 -3.097094,-0.689038 -8.217851,-0.43381 -11.027289,0.54962 -6.231637,2.181355 -10.952316,6.82083 -13.098841,12.873519 -0.883771,2.492023 -1.005618,7.190247 -0.262673,10.128198 0.780349,3.08586 2.203479,5.990429 4.295157,8.766293 2.027588,2.690814 4.077136,4.587767 7.319275,6.774337 5.356266,3.612383 39.263191,24.890893 39.524433,24.803813 0.154734,-0.05158 -0.241647,-1.172345 -0.880847,-2.490594 -1.557903,-3.212933 -3.641668,-8.47859 -4.857394,-12.274594 -2.027975,-6.332175 -4.002588,-16.528093 -4.565229,-23.572571 -0.175308,-2.194904 -0.139102,-2.473355 0.412812,-3.175 0.448395,-0.570042 0.855317,-0.769095 1.572263,-0.769095 1.364691,0 2.016867,0.76501 2.205733,2.587349 0.603145,5.819647 0.874731,7.875515 1.485036,11.24154 2.209289,12.184898 6.282267,22.935462 12.313149,32.500384 1.043189,1.654489 1.896708,3.315101 1.896708,3.690248 0,0.927892 -1.111238,1.913222 -2.134856,1.892972 -0.465663,-0.009 -1.631834,-0.52861 -2.662921,-1.18603 z m 9.974519,0.47816 c -0.54235,-0.54235 -0.68548,-0.914499 -0.56987,-1.481667 0.12461,-0.611282 27.873286,-53.451586 31.397606,-59.788758 3.13437,-5.635988 8.23673,-10.762694 13.20501,-13.268013 3.87457,-1.953802 8.93779,-2.605257 12.74954,-1.64041 5.20908,1.318544 10.59189,5.743103 13.08758,10.757714 1.50018,3.014337 2.04617,5.240768 2.06752,8.430956 0.0311,4.653785 -1.42685,8.700033 -4.45987,12.377115 -2.45376,2.974797 -6.98885,6.10844 -8.84032,6.10844 -0.90363,0 -2.00728,-1.086209 -2.00728,-1.975556 0,-0.804801 1.02854,-1.865127 2.7504,-2.835387 0.89322,-0.503335 2.52711,-1.817531 3.63086,-2.920439 3.04953,-3.047209 4.62541,-6.612258 4.62541,-10.46388 0,-4.169976 -1.49665,-7.578867 -4.78828,-10.906155 -5.35604,-5.414061 -11.80449,-6.175486 -18.55193,-2.190586 -2.12204,1.253232 -6.36184,5.502441 -8.09974,8.117704 -1.33134,2.003464 -25.85116,48.111594 -25.85116,48.611644 0,0.501122 0.48486,0.188293 2.96333,-1.911923 11.23832,-9.523171 22.27571,-17.082317 32.5723,-22.307707 2.23732,-1.135411 4.40593,-2.064382 4.81914,-2.064382 0.98932,0 1.97856,1.078061 1.97856,2.156217 0,1.098728 -0.78733,1.823288 -3.11422,2.865933 -1.01432,0.454502 -3.48568,1.745166 -5.49191,2.868142 -11.90903,6.666021 -24.42259,16.13316 -37.7859,28.586928 -4.281136,3.98976 -4.891876,4.26897 -6.286776,2.87407 z M 31.571098,92.356801 c -3.759355,-1.147688 -6.306275,-4.466525 -6.318864,-8.233977 -0.0052,-1.542342 0.152774,-2.188664 0.911276,-3.7294 1.59254,-3.234907 4.390193,-4.844737 8.088699,-4.654412 3.134331,0.161293 4.069315,0.776823 8.642117,5.689374 2.190115,2.352836 4.170544,4.560725 4.400954,4.906419 0.888055,1.332388 0.342807,3.473255 -1.130437,4.438563 -0.376641,0.246783 -2.883441,0.711259 -6.113885,1.13282 -5.640746,0.736092 -7.262469,0.822268 -8.47986,0.450613 z m 7.972777,-4.834492 c 1.202972,-0.182838 2.187222,-0.45538 2.187222,-0.605649 0,-0.150269 -1.221632,-1.590607 -2.714739,-3.20075 -3.142338,-3.388645 -4.315617,-4.05172 -6.248415,-3.531271 -0.697976,0.187946 -1.480597,0.690293 -2.003811,1.286202 -1.855082,2.11282 -1.329621,4.814671 1.230299,6.326033 0.642447,0.379299 4.066765,0.25476 7.549444,-0.274565 z m 114.026835,0.732389 c -2.98303,-0.686872 -5.68858,-1.390616 -6.01232,-1.563875 -0.77725,-0.415973 -1.68519,-1.93478 -1.68519,-2.818996 0,-0.388056 0.23447,-1.090044 0.52105,-1.559975 0.78955,-1.294723 8.90107,-8.371083 10.42004,-9.090281 1.72023,-0.814497 4.75497,-0.866821 6.41948,-0.110682 1.43479,0.651778 3.41603,2.842832 4.62979,5.120069 0.84726,1.589631 0.9254,1.931459 0.79966,3.497967 -0.33969,4.231806 -3.62841,7.424343 -7.9034,7.672256 -1.35071,0.07833 -3.03942,-0.19098 -7.18911,-1.146483 z m 8.16462,-3.885949 c 1.35733,-0.762857 2.4802,-2.559823 2.4802,-3.969119 0,-2.177277 -2.68093,-3.951977 -5.00944,-3.316102 -1.1753,0.320951 -7.2273,5.496954 -7.04982,6.029389 0.1075,0.32251 6.24648,1.81748 7.64639,1.86206 0.44453,0.01417 1.31424,-0.258645 1.93267,-0.606228 z m -67.686126,3.058217 c -1.30689,-0.582831 -1.963117,-1.624793 -5.723934,-9.088425 -3.819918,-7.580925 -4.263469,-8.996431 -3.743692,-11.947256 1.171925,-6.653117 7.718258,-10.757382 14.052936,-8.810568 3.375676,1.037435 6.345436,3.966486 7.308016,7.207842 0.53858,1.813622 0.53332,4.776078 -0.0116,6.543712 -0.68703,2.228491 -7.519896,15.101089 -8.319806,15.673887 -0.99027,0.709103 -2.51226,0.888913 -3.5619,0.420808 z m 4.51508,-10.973872 c 1.632706,-3.148971 3.101746,-6.319686 3.264526,-7.046036 0.89816,-4.007784 -2.266856,-7.841171 -6.460346,-7.824588 -2.827489,0.01118 -5.034136,1.582756 -6.084649,4.333482 -0.870351,2.278984 -0.560031,3.417573 2.675449,9.816454 2.66942,5.279364 3.31192,6.446087 3.54981,6.446087 0.0477,0 1.42249,-2.576429 3.05521,-5.725399 z"
       style="fill:#090e0f;stroke-width:0.28222221" />
    <path
       style="fill:#ffffff;fill-opacity:1;stroke:none;stroke-width:0.28434542px;stroke-linecap:butt;stroke-linejoin:miter;stroke-opacity:1"
       d="m 40.157053,35.486522 c -3.07284,3.208412 -1.677352,4.28745 0.473258,2.92002 4.785806,-3.042975 16.284703,-7.073233 26.972309,9.137156 1.743351,2.644221 2.158691,1.161285 1.453954,-0.846096 -2.924211,-8.329355 -5.95881,-12.30695 -12.14156,-15.364293 -5.472027,-2.705894 -11.701635,-1.126196 -16.757961,4.153213 z"
       id="path840"
       inkscape:connector-curvature="0"
       sodipodi:nodetypes="ssssss" />
    <ellipse
       style="fill:#ffffff;fill-opacity:1;stroke:none;stroke-width:1.40522695;stroke-linecap:round;stroke-linejoin:round;stroke-miterlimit:4;stroke-dasharray:none;stroke-dashoffset:19.80000305;stroke-opacity:1;paint-order:fill markers stroke"
       id="path857"
       cx="65.789742"
       cy="133.02432"
       rx="5.900804"
       ry="3.4010656"
       transform="matrix(0.76979916,-0.63828618,0.7568639,0.65357252,0,0)" />
    <path
       style="fill:#ffffff;fill-opacity:1;stroke:none;stroke-width:0.25647053px;stroke-linecap:butt;stroke-linejoin:miter;stroke-opacity:1"
       d="m 152.3733,122.51517 c -0.48131,3.5064 -2.20853,2.91712 -2.54536,0.81036 -0.74954,-4.68822 -5.06789,-14.65486 -24.39293,-16.02503 -3.15229,-0.22352 -2.28217,-1.11245 -0.28785,-1.3933 8.27519,-1.16533 13.28264,-0.52904 19.61289,2.76347 5.60258,2.91402 8.40527,8.07474 7.61325,13.8445 z"
       id="path840-2"
       inkscape:connector-curvature="0"
       sodipodi:nodetypes="ssssss" />
    <ellipse
       style="fill:#ffffff;fill-opacity:1;stroke:none;stroke-width:1.40522695;stroke-linecap:round;stroke-linejoin:round;stroke-miterlimit:4;stroke-dasharray:none;stroke-dashoffset:19.80000305;stroke-opacity:1;paint-order:fill markers stroke"
       id="path857-8"
       cx="-46.144653"
       cy="117.31239"
       rx="5.900804"
       ry="3.4010656"
       transform="matrix(0.76979916,-0.63828619,0.75686391,0.65357251,0,0)" />
  </g>
</svg>
