<?xml version="1.0" encoding="UTF-8" standalone="no"?>
<!-- Created with Inkscape (http://www.inkscape.org/) -->

<svg
   xmlns:dc="http://purl.org/dc/elements/1.1/"
   xmlns:cc="http://creativecommons.org/ns#"
   xmlns:rdf="http://www.w3.org/1999/02/22-rdf-syntax-ns#"
   xmlns:svg="http://www.w3.org/2000/svg"
   xmlns="http://www.w3.org/2000/svg"
   xmlns:sodipodi="http://sodipodi.sourceforge.net/DTD/sodipodi-0.dtd"
   xmlns:inkscape="http://www.inkscape.org/namespaces/inkscape"
   width="137.01982mm"
   height="136.97807mm"
   viewBox="0 0 137.01982 136.97807"
   version="1.1"
   id="svg8"
   inkscape:version="0.92.4 (5da689c313, 2019-01-14)"
   sodipodi:docname="target.svg"
   inkscape:export-filename="C:\xampp\htdocs\BatallaNaval\imagen\target2.png"
   inkscape:export-xdpi="96"
   inkscape:export-ydpi="96">
  <defs
     id="defs2" />
  <sodipodi:namedview
     id="base"
     pagecolor="#ffffff"
     bordercolor="#666666"
     borderopacity="1.0"
     inkscape:pageopacity="0.0"
     inkscape:pageshadow="2"
     inkscape:zoom="0.49497475"
     inkscape:cx="234.83824"
     inkscape:cy="211.36542"
     inkscape:document-units="mm"
     inkscape:current-layer="layer1"
     showgrid="false"
     inkscape:pagecheckerboard="true"
     fit-margin-top="0"
     fit-margin-left="0"
     fit-margin-right="0"
     fit-margin-bottom="0"
     inkscape:window-width="1366"
     inkscape:window-height="745"
     inkscape:window-x="-8"
     inkscape:window-y="-8"
     inkscape:window-maximized="1" />
  <metadata
     id="metadata5">
    <rdf:RDF>
      <cc:Work
         rdf:about="">
        <dc:format>image/svg+xml</dc:format>
        <dc:type
           rdf:resource="http://purl.org/dc/dcmitype/StillImage" />
        <dc:title></dc:title>
      </cc:Work>
    </rdf:RDF>
  </metadata>
  <g
     inkscape:label="Layer 1"
     inkscape:groupmode="layer"
     id="layer1"
     transform="translate(-26.870344,-36.833718)">
    <path
       inkscape:connector-curvature="0"
       id="path35"
       d="m 93.029458,171.88428 c -0.97409,-0.53564 -1.080336,-0.87766 -1.084685,-3.49173 l -0.0041,-2.43541 -0.859896,-0.12475 c -0.472943,-0.0686 -2.169583,-0.2584 -3.770312,-0.42174 -6.470167,-0.66023 -13.053664,-2.61513 -19.579117,-5.81381 -6.928641,-3.39632 -12.223233,-7.27146 -17.531846,-12.83163 -9.422229,-9.86872 -15.548842,-23.14947 -16.606271,-35.99767 -0.08384,-1.01864 -0.211279,-2.23903 -0.283207,-2.71197 l -0.130777,-0.8599 -2.435407,-0.004 c -2.669789,-0.004 -2.951818,-0.099 -3.511109,-1.17702 -0.483183,-0.93134 -0.483183,-1.99819 0,-2.92952 0.559291,-1.07804 0.84132,-1.17258 3.511109,-1.17702 l 2.435407,-0.004 0.124755,-0.85991 c 0.06861,-0.47294 0.258397,-2.169583 0.421739,-3.770312 2.02639,-19.858413 15.101829,-38.407629 33.554641,-47.601637 6.774558,-3.375384 14.296071,-5.55662 21.088465,-6.115646 1.018646,-0.08384 2.239036,-0.211279 2.711979,-0.283207 l 0.859896,-0.130777 0.004,-2.435407 c 0.0044,-2.669789 0.09899,-2.951818 1.177023,-3.511109 0.931333,-0.483183 1.998186,-0.483183 2.929519,0 1.078037,0.559291 1.17258,0.84132 1.177023,3.511109 l 0.004,2.435407 0.859896,0.133806 c 0.47294,0.07359 1.81239,0.206117 2.976567,0.294497 4.33427,0.329044 11.0613,1.943068 15.61042,3.745421 7.77142,3.079021 14.52183,7.423547 20.45452,13.164403 5.43737,5.26156 9.14756,10.370664 12.50065,17.213974 3.19846,6.527749 5.15288,13.110598 5.81294,19.579166 0.16334,1.600729 0.35313,3.297372 0.42174,3.770312 l 0.12476,0.85991 2.4354,0.004 c 2.66979,0.004 2.95182,0.099 3.51111,1.17702 0.48318,0.93133 0.48318,1.99818 0,2.92952 -0.55929,1.07803 -0.84132,1.17258 -3.51111,1.17702 l -2.4354,0.004 -0.12476,0.8599 c -0.0686,0.47294 -0.2584,2.16958 -0.42174,3.77031 -1.10614,10.8401 -6.03682,22.45074 -13.37749,31.50102 -3.89894,4.80698 -9.85387,10.04338 -15.17382,13.34291 -7.83281,4.85806 -17.57964,8.17279 -26.09181,8.87335 -1.018647,0.0838 -2.239037,0.21128 -2.711977,0.28321 l -0.859896,0.13078 -0.004,2.4354 c -0.0021,1.33948 -0.103383,2.59206 -0.224788,2.78351 -0.638156,1.00637 -2.748089,1.38238 -3.974091,0.70822 z m -1.088736,-13.88444 c 0,-2.24874 0.04139,-2.4234 0.766672,-3.23513 0.634458,-0.71008 0.95853,-0.85806 1.879161,-0.85806 0.920631,0 1.244703,0.14798 1.879161,0.85806 0.725278,0.81173 0.766672,0.98639 0.766672,3.23513 v 2.37708 h 1.222815 c 3.174237,0 9.604297,-1.28065 14.123037,-2.81284 16.03605,-5.43739 28.95245,-18.15898 34.75298,-34.22883 1.58593,-4.39369 3.08243,-11.63568 3.08243,-14.91677 v -1.22281 h -2.37707 c -2.24874,0 -2.42341,-0.0414 -3.23514,-0.76667 -0.71007,-0.63446 -0.85805,-0.95853 -0.85805,-1.87916 0,-0.92064 0.14798,-1.24471 0.85805,-1.87917 0.81173,-0.72527 0.9864,-0.76667 3.23514,-0.76667 h 2.37707 v -1.22282 c 0,-0.67255 -0.18528,-2.488253 -0.41174,-4.034896 -2.35187,-16.062568 -11.23707,-30.004167 -24.85596,-39.001014 -2.81863,-1.862027 -8.87542,-4.861387 -12.04062,-5.962591 -4.39617,-1.529467 -11.47623,-2.959933 -14.650127,-2.959933 h -1.222815 v 2.377076 c 0,2.248737 -0.04139,2.423402 -0.766672,3.235132 -0.634458,0.71008 -0.95853,0.858057 -1.879161,0.858057 -0.920631,0 -1.244703,-0.147977 -1.879161,-0.858057 -0.725278,-0.81173 -0.766672,-0.986395 -0.766672,-3.235132 v -2.377076 l -1.256771,0.0048 c -0.691224,0.0027 -2.48104,0.178878 -3.977367,0.391583 -22.338341,3.175471 -40.693881,19.628863 -46.362308,41.557922 -0.800366,3.096324 -1.584802,8.06854 -1.584802,10.045419 v 1.18153 h 2.377076 c 2.248737,0 2.423402,0.0414 3.235132,0.76667 0.71008,0.63446 0.858057,0.95853 0.858057,1.87917 0,0.92063 -0.147977,1.2447 -0.858057,1.87916 -0.81173,0.72527 -0.986395,0.76667 -3.235132,0.76667 h -2.377076 v 1.18153 c 0,1.97687 0.784436,6.94909 1.584802,10.04541 5.210804,20.15868 21.163416,35.80357 41.409988,40.6112 3.060226,0.72667 6.731852,1.28492 8.665104,1.31748 l 1.521354,0.0256 z m 0.874649,-24.45471 -0.742358,-0.63804 -0.132291,-6.15423 -0.132292,-6.15423 -1.875975,-0.57247 c -2.640891,-0.80589 -4.724527,-2.06827 -6.739241,-4.08298 -2.014715,-2.01472 -3.27709,-4.09835 -4.082984,-6.73924 l -0.572471,-1.87598 -6.154232,-0.13229 -6.154229,-0.13229 -0.638037,-0.74236 c -0.865286,-1.00676 -0.865286,-2.5356 0,-3.54237 l 0.638037,-0.74236 6.154229,-0.13229 6.154232,-0.13229 0.572471,-1.875983 c 0.805894,-2.640891 2.068269,-4.724527 4.082984,-6.739241 2.014714,-2.014715 4.09835,-3.27709 6.739241,-4.082984 l 1.875975,-0.572471 0.132292,-6.154232 0.132291,-6.154229 0.742358,-0.638037 c 0.509222,-0.437664 1.065461,-0.638038 1.771184,-0.638038 0.705723,0 1.261962,0.200374 1.771184,0.638038 l 0.742358,0.638037 0.132291,6.134068 0.132292,6.13407 1.882963,0.596633 c 2.677737,0.848458 4.732977,2.099855 6.732267,4.099145 2.01472,2.014714 3.27709,4.09835 4.08299,6.739241 l 0.57247,1.875983 6.15423,0.13229 6.15423,0.13229 0.63804,0.74236 c 0.86528,1.00677 0.86528,2.53561 0,3.54237 l -0.63804,0.74236 -6.15423,0.13229 -6.15423,0.13229 -0.57247,1.87598 c -0.8059,2.64089 -2.06827,4.72452 -4.08299,6.73924 -2.01471,2.01471 -4.09836,3.27709 -6.739257,4.08298 l -1.875973,0.57247 -0.132292,6.15423 -0.132291,6.15423 -0.742358,0.63804 c -0.509222,0.43766 -1.065461,0.63804 -1.771184,0.63804 -0.705723,0 -1.261962,-0.20038 -1.771184,-0.63804 z m 5.739932,-18.91497 c 2.728437,-1.03897 5.305927,-3.69067 6.259007,-6.4392 0.65125,-1.87812 0.65125,-5.40413 0,-7.28225 -1.0358,-2.987121 -3.89348,-5.723452 -6.969419,-6.673516 -8.36876,-2.584844 -16.157813,5.204209 -13.572969,13.572976 0.796502,2.57877 2.973152,5.19509 5.348444,6.4288 2.40937,1.25142 6.238639,1.41993 8.934937,0.39319 z"
       style="fill:#ffffff;stroke-width:0.26458332" />
    <path
       style="fill:#ff0000;stroke-width:0.26458332"
       d="m 94.616955,173.47178 c -0.97409,-0.53564 -1.080336,-0.87766 -1.084685,-3.49173 l -0.0041,-2.43541 -0.859896,-0.12475 c -0.472943,-0.0686 -2.169583,-0.2584 -3.770312,-0.42174 -6.470167,-0.66023 -13.053664,-2.61513 -19.579117,-5.81381 -6.928641,-3.39632 -12.223233,-7.27146 -17.531846,-12.83163 -9.422229,-9.86872 -15.548842,-23.14947 -16.606271,-35.99767 -0.08384,-1.01864 -0.211279,-2.23903 -0.283207,-2.71197 l -0.130777,-0.8599 -2.435407,-0.004 c -2.669789,-0.004 -2.951818,-0.099 -3.511109,-1.17702 -0.483183,-0.93134 -0.483183,-1.99819 0,-2.92952 0.559291,-1.07804 0.84132,-1.17258 3.511109,-1.17702 l 2.435407,-0.004 0.124755,-0.8599 c 0.06861,-0.47294 0.258397,-2.16959 0.421739,-3.770321 2.02639,-19.858413 15.101829,-38.407629 33.554641,-47.601637 6.774558,-3.375384 14.296071,-5.55662 21.088465,-6.115646 1.018646,-0.08384 2.239036,-0.211279 2.711979,-0.283207 l 0.859896,-0.130777 0.004,-2.435407 c 0.0044,-2.669789 0.09899,-2.951818 1.177023,-3.511109 0.931333,-0.483183 1.998186,-0.483183 2.929519,0 1.078037,0.559291 1.17258,0.84132 1.177023,3.511109 l 0.004,2.435407 0.859899,0.133806 c 0.472937,0.07359 1.812397,0.206117 2.976567,0.294497 4.33426,0.329044 11.06129,1.943068 15.61041,3.745421 7.77142,3.079021 14.52183,7.423547 20.45452,13.164403 5.43737,5.26156 9.14756,10.370664 12.50065,17.213974 3.19846,6.527749 5.15288,13.110598 5.81294,19.579166 0.16334,1.600731 0.35313,3.297381 0.42174,3.770321 l 0.12476,0.8599 2.4354,0.004 c 2.66979,0.004 2.95182,0.099 3.51111,1.17702 0.48318,0.93133 0.48318,1.99818 0,2.92952 -0.55929,1.07803 -0.84132,1.17258 -3.51111,1.17702 l -2.4354,0.004 -0.12476,0.8599 c -0.0686,0.47294 -0.2584,2.16958 -0.42174,3.77031 -1.10614,10.8401 -6.03682,22.45074 -13.37749,31.50102 -3.89894,4.80698 -9.85387,10.04338 -15.17382,13.34291 -7.83281,4.85806 -17.57964,8.17279 -26.0918,8.87335 -1.01864,0.0838 -2.23904,0.21128 -2.711977,0.28321 l -0.859899,0.13078 -0.004,2.4354 c -0.0021,1.33948 -0.103383,2.59206 -0.224788,2.78351 -0.638156,1.00637 -2.748089,1.38238 -3.974091,0.70822 z m -1.088736,-13.88444 c 0,-2.24874 0.04139,-2.4234 0.766672,-3.23513 0.634458,-0.71008 0.95853,-0.85806 1.879161,-0.85806 0.920631,0 1.244703,0.14798 1.879161,0.85806 0.725278,0.81173 0.766672,0.98639 0.766672,3.23513 v 2.37708 h 1.222815 c 3.17424,0 9.60429,-1.28065 14.12303,-2.81284 16.03605,-5.43739 28.95245,-18.15898 34.75298,-34.22883 1.58593,-4.39369 3.08243,-11.63568 3.08243,-14.91677 v -1.22281 h -2.37707 c -2.24874,0 -2.42341,-0.0414 -3.23514,-0.76667 -0.71007,-0.63446 -0.85805,-0.95853 -0.85805,-1.87916 0,-0.92064 0.14798,-1.24471 0.85805,-1.87917 0.81173,-0.72527 0.9864,-0.76667 3.23514,-0.76667 h 2.37707 v -1.22281 c 0,-0.67255 -0.18528,-2.488267 -0.41174,-4.034905 -2.35187,-16.062568 -11.23707,-30.004167 -24.85596,-39.001014 -2.81863,-1.862027 -8.87542,-4.861387 -12.04062,-5.962591 -4.39617,-1.529467 -11.47622,-2.959933 -14.65012,-2.959933 h -1.222815 v 2.377076 c 0,2.248737 -0.04139,2.423402 -0.766672,3.235132 -0.634458,0.71008 -0.95853,0.858057 -1.879161,0.858057 -0.920631,0 -1.244703,-0.147977 -1.879161,-0.858057 -0.725278,-0.81173 -0.766672,-0.986395 -0.766672,-3.235132 v -2.377076 l -1.256771,0.0048 c -0.691224,0.0027 -2.48104,0.178878 -3.977367,0.391583 C 65.95574,53.882101 47.6002,70.335493 41.931773,92.264552 c -0.800366,3.096324 -1.584802,8.068538 -1.584802,10.045428 v 1.18152 h 2.377076 c 2.248737,0 2.423402,0.0414 3.235132,0.76667 0.71008,0.63446 0.858057,0.95853 0.858057,1.87917 0,0.92063 -0.147977,1.2447 -0.858057,1.87916 -0.81173,0.72527 -0.986395,0.76667 -3.235132,0.76667 h -2.377076 v 1.18153 c 0,1.97687 0.784436,6.94909 1.584802,10.04541 5.210804,20.15868 21.163416,35.80357 41.409988,40.6112 3.060226,0.72667 6.731852,1.28492 8.665104,1.31748 l 1.521354,0.0256 z m 0.874649,-24.45471 -0.742358,-0.63804 -0.132291,-6.15423 -0.132292,-6.15423 -1.875975,-0.57247 c -2.640891,-0.80589 -4.724527,-2.06827 -6.739241,-4.08298 -2.014715,-2.01472 -3.27709,-4.09835 -4.082984,-6.73924 l -0.572471,-1.87598 -6.154232,-0.13229 -6.154229,-0.13229 -0.638037,-0.74236 c -0.865286,-1.00676 -0.865286,-2.5356 0,-3.54237 l 0.638037,-0.74236 6.154229,-0.13229 6.154232,-0.13229 0.572471,-1.87598 c 0.805894,-2.640893 2.068269,-4.724529 4.082984,-6.739243 2.014714,-2.014715 4.09835,-3.27709 6.739241,-4.082984 l 1.875975,-0.572471 0.132292,-6.154232 0.132291,-6.154229 0.742358,-0.638037 c 0.509222,-0.437664 1.065461,-0.638038 1.771184,-0.638038 0.705723,0 1.261962,0.200374 1.771184,0.638038 l 0.742358,0.638037 0.132291,6.134068 0.132292,6.13407 1.882963,0.596633 c 2.67774,0.848458 4.73297,2.099855 6.73226,4.099145 2.01472,2.014714 3.27709,4.09835 4.08299,6.739243 l 0.57247,1.87598 6.15423,0.13229 6.15423,0.13229 0.63804,0.74236 c 0.86528,1.00677 0.86528,2.53561 0,3.54237 l -0.63804,0.74236 -6.15423,0.13229 -6.15423,0.13229 -0.57247,1.87598 c -0.8059,2.64089 -2.06827,4.72452 -4.08299,6.73924 -2.01471,2.01471 -4.09835,3.27709 -6.73925,4.08298 l -1.875973,0.57247 -0.132292,6.15423 -0.132291,6.15423 -0.742358,0.63804 c -0.509222,0.43766 -1.065461,0.63804 -1.771184,0.63804 -0.705723,0 -1.261962,-0.20038 -1.771184,-0.63804 z m 5.739932,-18.91497 c 2.72844,-1.03897 5.30592,-3.69067 6.259,-6.4392 0.65125,-1.87812 0.65125,-5.40413 0,-7.28224 -1.0358,-2.987127 -3.89347,-5.723461 -6.969412,-6.673525 -8.36876,-2.584844 -16.157813,5.204215 -13.572969,13.572975 0.796502,2.57877 2.973152,5.19509 5.348444,6.4288 2.40937,1.25142 6.238639,1.41993 8.934937,0.39319 z"
       id="path47"
       inkscape:connector-curvature="0" />
    <path
       inkscape:connector-curvature="0"
       id="path23"
       d="m 94.851139,172.15093 c -0.29104,-0.12511 -0.43987,-0.23585 -0.33073,-0.24607 0.10914,-0.0102 -0.0397,-0.25673 -0.33073,-0.54777 -0.45878,-0.45878 -0.52916,-0.88194 -0.52916,-3.18155 0,-2.6037 -0.0125,-2.65711 -0.67869,-2.91041 -0.37327,-0.14192 -1.22119,-0.25804 -1.88427,-0.25804 -0.66307,0 -2.47103,-0.18394 -4.01767,-0.40877 -13.11122,-1.90588 -24.94922,-7.83774 -34.2975,-17.18602 -7.9628,-7.9628 -13.56383,-17.93847 -16.11826,-28.70729 -0.76176,-3.21141 -1.47653,-7.86242 -1.47653,-9.60788 0,-0.66307 -0.11611,-1.51099 -0.25803,-1.88427 -0.2533,-0.66623 -0.30671,-0.67868 -2.91042,-0.67868 -2.2996,0 -2.72276,-0.0704 -3.18155,-0.52917 -0.29104,-0.29104 -0.53671,-0.43987 -0.54593,-0.33073 -0.009,0.10914 -0.12445,-0.0695 -0.25606,-0.39687 -0.14266,-0.35492 -0.14266,-0.83571 0,-1.19063 0.13161,-0.32742 0.24683,-0.50601 0.25606,-0.39687 0.009,0.10914 0.25489,-0.0397 0.54593,-0.33073 0.45879,-0.45879 0.88195,-0.52917 3.18155,-0.52917 3.13136,0 2.99901,0.14516 3.25672,-3.571876 0.21436,-3.09168 1.01677,-7.47892 2.0202,-11.04563 4.55911,-16.205444 16.06519,-30.08614 31.1828,-37.618283 6.94368,-3.459596 14.71485,-5.670811 21.60977,-6.148861 3.71703,-0.257716 3.57188,-0.125365 3.57188,-3.256721 0,-2.299604 0.0704,-2.722763 0.52916,-3.181549 0.29104,-0.291041 0.43987,-0.536713 0.33073,-0.545937 -0.10914,-0.0092 0.0694,-0.12445 0.39688,-0.256058 0.35491,-0.142659 0.8357,-0.142659 1.19062,0 0.32742,0.131608 0.50602,0.246834 0.39688,0.256058 -0.10914,0.0092 0.0397,0.254896 0.33073,0.545937 0.45878,0.458786 0.52916,0.881945 0.52916,3.181549 0,2.603706 0.0125,2.657117 0.67869,2.910416 0.37327,0.141919 1.221187,0.258035 1.884264,0.258035 3.204467,0 11.039087,1.607551 15.670277,3.215319 3.3511,1.163368 10.35145,4.681929 13.43016,6.75035 12.7248,8.549115 21.84455,21.630054 25.33299,36.336415 0.76177,3.21141 1.47653,7.86242 1.47653,9.607876 0,0.66308 0.11611,1.51101 0.25803,1.88428 0.2533,0.66623 0.30671,0.67868 2.91042,0.67868 2.29961,0 2.72276,0.0704 3.18155,0.52917 0.29104,0.29104 0.53671,0.43987 0.54594,0.33073 0.009,-0.10914 0.12445,0.0695 0.25605,0.39687 0.14266,0.35492 0.14266,0.83571 0,1.19063 -0.1316,0.32742 -0.24683,0.50601 -0.25605,0.39687 -0.009,-0.10914 -0.2549,0.0397 -0.54594,0.33073 -0.45879,0.45879 -0.88194,0.52917 -3.18155,0.52917 -2.60371,0 -2.65712,0.0125 -2.91042,0.67868 -0.14192,0.37328 -0.25803,1.2212 -0.25803,1.88427 0,1.74546 -0.71476,6.39647 -1.47653,9.60788 -1.96377,8.27875 -5.92104,16.41949 -11.44679,23.54792 -2.23477,2.88293 -6.94791,7.59607 -9.83085,9.83084 -7.12842,5.52576 -15.26917,9.48302 -23.54791,11.44679 -3.21141,0.76177 -7.86243,1.47653 -9.607877,1.47653 -0.663077,0 -1.510994,0.11612 -1.884264,0.25804 -0.66623,0.2533 -0.67869,0.30671 -0.67869,2.91041 0,2.26117 -0.0748,2.72718 -0.50712,3.1595 -0.27891,0.27892 -0.43766,0.57657 -0.35277,0.66146 0.0849,0.0849 0.0252,0.15434 -0.1327,0.15434 -0.15788,0 -0.44561,0.0512 -0.63941,0.11379 -0.19381,0.0626 -0.5905,0.0114 -0.88154,-0.1137 z m -1.19062,-13.68405 c 0.14815,-3.02791 0.4434,-3.60215 1.85208,-3.60215 1.40868,0 1.70393,0.57424 1.85208,3.60215 l 0.13229,2.70375 2.910411,-0.0399 c 5.66996,-0.0778 13.12896,-2.09829 19.8865,-5.38686 11.56886,-5.63001 20.65044,-14.7116 26.28046,-26.28046 3.28857,-6.75753 5.30907,-14.21654 5.38686,-19.88649 l 0.0399,-2.91042 -2.70375,-0.13229 c -3.02792,-0.14815 -3.60215,-0.4434 -3.60215,-1.85208 0,-1.40868 0.57423,-1.70393 3.60215,-1.85209 l 2.70375,-0.13229 -0.0399,-2.910427 c -0.10699,-7.798249 -3.89779,-18.728969 -9.23652,-26.633367 -5.84298,-8.650994 -13.21645,-15.06489 -22.50678,-19.577801 -6.68165,-3.245702 -14.17016,-5.26526 -19.81052,-5.342646 l -2.910411,-0.03993 -0.13229,2.703752 c -0.14815,3.027916 -0.4434,3.60215 -1.85208,3.60215 -1.40868,0 -1.70393,-0.574234 -1.85208,-3.60215 l -0.1323,-2.703752 -2.91041,0.03993 c -5.63442,0.0773 -13.05118,2.079548 -19.84375,5.357056 -11.48719,5.542729 -20.81028,14.865822 -26.35301,26.353009 -2.14042,4.43598 -3.69366,8.97331 -4.58869,13.4045 -0.742,3.67357 -1.20341,8.492566 -0.87017,9.088036 0.17069,0.305 0.77833,0.39393 2.69154,0.39393 2.89452,0 3.67623,0.38774 3.67623,1.82346 0,1.43891 -0.5612,1.73192 -3.60215,1.88071 l -2.70375,0.13229 0.0399,2.91042 c 0.12879,9.387 5.49812,22.76226 12.48011,31.08854 8.5457,10.19107 20.18088,17.19936 32.71941,19.7081 3.97941,0.79621 4.54022,0.861 7.14805,0.82573 l 2.11666,-0.0286 z m 0.52916,-25.47437 c -0.49841,-0.49841 -0.52916,-0.88194 -0.52916,-6.59897 0,-4.56709 -0.0819,-6.12196 -0.33073,-6.28048 -0.1819,-0.11587 -1.18232,-0.45851 -2.22315,-0.76142 -4.84409,-1.40977 -8.85382,-5.4195 -10.26358,-10.26359 -0.30292,-1.04082 -0.64556,-2.04124 -0.76143,-2.22314 -0.15852,-0.24885 -1.71339,-0.33073 -6.28048,-0.33073 -5.71702,0 -6.10055,-0.0307 -6.59897,-0.52917 -0.68033,-0.68033 -0.68033,-1.9655 0,-2.64583 0.49842,-0.49841 0.88195,-0.52917 6.59897,-0.52917 4.56709,0 6.12196,-0.0819 6.28048,-0.33073 0.11587,-0.1819 0.45851,-1.18232 0.76143,-2.22315 1.40976,-4.844086 5.41949,-8.853816 10.26358,-10.263586 1.04083,-0.30291 2.04125,-0.64555 2.22315,-0.76142 0.24885,-0.15852 0.33073,-1.71339 0.33073,-6.28048 0,-5.717029 0.0308,-6.100561 0.52916,-6.598972 0.29398,-0.293981 0.88195,-0.529167 1.32292,-0.529167 0.44097,0 1.02893,0.235186 1.32292,0.529167 0.49841,0.498411 0.52916,0.881943 0.52916,6.598972 0,4.56709 0.0819,6.12196 0.33073,6.28048 0.1819,0.11587 1.18232,0.45851 2.223144,0.76142 4.844087,1.40977 8.853817,5.4195 10.263587,10.263586 0.30291,1.04083 0.64555,2.04125 0.76142,2.22315 0.15852,0.24886 1.71339,0.33073 6.28048,0.33073 5.71702,0 6.10056,0.0307 6.59897,0.52917 0.68033,0.68033 0.68033,1.9655 0,2.64583 -0.49841,0.49841 -0.88195,0.52917 -6.59897,0.52917 -4.56709,0 -6.12196,0.0819 -6.28048,0.33073 -0.11587,0.1819 -0.45851,1.18232 -0.76142,2.22314 -1.40977,4.84409 -5.4195,8.85382 -10.263587,10.26359 -1.040824,0.30291 -2.041244,0.64555 -2.223144,0.76142 -0.24885,0.15852 -0.33073,1.71339 -0.33073,6.28048 0,5.71703 -0.0307,6.10056 -0.52916,6.59897 -0.29399,0.29398 -0.88195,0.52917 -1.32292,0.52917 -0.44097,0 -1.02894,-0.23519 -1.32292,-0.52917 z m 5.556254,-17.42054 c 2.898477,-1.13006 5.492537,-3.71725 6.674207,-6.65654 0.83904,-2.08702 0.83904,-6.37964 0,-8.46668 -1.17688,-2.927376 -3.74684,-5.497326 -6.674207,-6.674216 -1.179314,-0.47411 -1.981914,-0.58503 -4.233334,-0.58503 -3.20829,0 -4.79611,0.49197 -7.00513,2.17046 -2.81482,2.1388 -4.35892,5.071836 -4.57214,8.684846 -0.31914,5.40767 2.8742,10.06641 8.0747,11.78013 2.04019,0.6723 5.66688,0.55371 7.735904,-0.25297 z"
       style="fill:#020202;stroke-width:0.26458332" />
  </g>
</svg>
